/* XPM */
static char * arrowup_xpm[] = {
"32 32 356 2",
"  	c None",
". 	c #80CE83",
"+ 	c #50AB56",
"@ 	c #7ECF80",
"# 	c #54A55F",
"$ 	c #5CAC67",
"% 	c #4AAD4F",
"& 	c #7AD07D",
"* 	c #53A65F",
"= 	c #55AB5F",
"- 	c #52AC5E",
"; 	c #5AB066",
"> 	c #42AC47",
", 	c #76CF78",
"' 	c #53A85F",
") 	c #52AB5D",
"! 	c #51AD5D",
"~ 	c #4FAE5B",
"{ 	c #4DB15A",
"] 	c #56B664",
"^ 	c #3AAA3E",
"/ 	c #71CD72",
"( 	c #55AB61",
"_ 	c #50AB5C",
": 	c #4EAD5A",
"< 	c #4CAF59",
"[ 	c #4BB158",
"} 	c #4AB157",
"| 	c #49B157",
"1 	c #54B662",
"2 	c #33A637",
"3 	c #6BCB6B",
"4 	c #58AD64",
"5 	c #4EAB5A",
"6 	c #4CAE59",
"7 	c #4AB057",
"8 	c #49B056",
"9 	c #47B055",
"0 	c #46B054",
"a 	c #46B053",
"b 	c #53B661",
"c 	c #2DA330",
"d 	c #63C864",
"e 	c #5CB168",
"f 	c #4DAC59",
"g 	c #4BAF58",
"h 	c #47AF55",
"i 	c #45AF53",
"j 	c #44AE51",
"k 	c #44B051",
"l 	c #44B052",
"m 	c #53B760",
"n 	c #289D2B",
"o 	c #5CC65C",
"p 	c #60B46C",
"q 	c #4CAC58",
"r 	c #48AF56",
"s 	c #45AE53",
"t 	c #43AF51",
"u 	c #43AE50",
"v 	c #42AE4F",
"w 	c #41AE4E",
"x 	c #42AF4F",
"y 	c #43B04F",
"z 	c #53B85F",
"A 	c #239524",
"B 	c #55C255",
"C 	c #65B770",
"D 	c #4CAD59",
"E 	c #44AE52",
"F 	c #42AD4F",
"G 	c #40AD4D",
"H 	c #3FAD4C",
"I 	c #40AF4C",
"J 	c #40AE4D",
"K 	c #41AF4D",
"L 	c #42B04E",
"M 	c #43B14F",
"N 	c #54B95F",
"O 	c #4FC04E",
"P 	c #69BB74",
"Q 	c #4BB058",
"R 	c #48B056",
"S 	c #42AE51",
"T 	c #41AD4E",
"U 	c #3FAD4B",
"V 	c #3DAD4A",
"W 	c #3DAE4A",
"X 	c #3EAE4B",
"Y 	c #3FAF4C",
"Z 	c #41B14C",
"` 	c #43B24F",
" .	c #44B24F",
"..	c #55BA5F",
"+.	c #48BD47",
"@.	c #6EBD77",
"#.	c #46AF53",
"$.	c #3FAE4D",
"%.	c #3EAD4B",
"&.	c #3FAF4B",
"*.	c #3EAF4A",
"=.	c #3EB04A",
"-.	c #40B14B",
";.	c #42B24D",
">.	c #47B451",
",.	c #4AB655",
"'.	c #5BBC63",
").	c #42BB40",
"!.	c #72C07A",
"~.	c #50AD5C",
"{.	c #4FB15B",
"].	c #48B055",
"^.	c #47B053",
"/.	c #42AE4E",
"(.	c #32A841",
"_.	c #26A334",
":.	c #1DA12D",
"<.	c #199F27",
"[.	c #159E24",
"}.	c #149E22",
"|.	c #159F23",
"1.	c #18A125",
"2.	c #1AA227",
"3.	c #1CA428",
"4.	c #1EA52A",
"5.	c #20A62C",
"6.	c #23A82E",
"7.	c #3EB046",
"8.	c #76C27D",
"9.	c #51B15D",
"0.	c #4EB35B",
"a.	c #4FB35B",
"b.	c #25A235",
"c.	c #109921",
"d.	c #059516",
"e.	c #09971A",
"f.	c #0D9A1D",
"g.	c #119C20",
"h.	c #149D22",
"i.	c #179F25",
"j.	c #1AA127",
"k.	c #1CA329",
"l.	c #1FA52B",
"m.	c #21A62D",
"n.	c #23A82F",
"o.	c #26A931",
"p.	c #27AB32",
"q.	c #29AC33",
"r.	c #27AC32",
"s.	c #40B147",
"t.	c #79C581",
"u.	c #55AC61",
"v.	c #54B161",
"w.	c #52B55F",
"x.	c #2FA63F",
"y.	c #069318",
"z.	c #009212",
"A.	c #059517",
"B.	c #09961A",
"C.	c #0C981D",
"D.	c #0F9B1F",
"E.	c #129D20",
"F.	c #159E23",
"G.	c #1AA228",
"H.	c #1DA42A",
"I.	c #23A72F",
"J.	c #26AA31",
"K.	c #29AE34",
"L.	c #2BAF35",
"M.	c #2DB037",
"N.	c #2FB138",
"O.	c #2DB236",
"P.	c #44B24A",
"Q.	c #49AB4A",
"R.	c #409945",
"S.	c #429D47",
"T.	c #429E47",
"U.	c #25932C",
"V.	c #1B8D23",
"W.	c #63C568",
"X.	c #00900F",
"Y.	c #089619",
"Z.	c #0B991C",
"`.	c #18A025",
" +	c #1BA228",
".+	c #24A830",
"++	c #2AAC34",
"@+	c #37B441",
"#+	c #38983B",
"$+	c #369339",
"%+	c #37923A",
"&+	c #38923B",
"*+	c #37923B",
"=+	c #247E25",
"-+	c #75D176",
";+	c #009111",
">+	c #0B981B",
",+	c #0E9A1E",
"'+	c #1BA328",
")+	c #1EA42B",
"!+	c #22A62E",
"~+	c #26A930",
"{+	c #2CAD36",
"]+	c #2FAF38",
"^+	c #3EB846",
"/+	c #75D276",
"(+	c #019212",
"_+	c #0D9A1E",
":+	c #109B20",
"<+	c #17A025",
"[+	c #23A72E",
"}+	c #29AB34",
"|+	c #2DAE37",
"1+	c #30B139",
"2+	c #34B23C",
"3+	c #43BC4A",
"4+	c #039314",
"5+	c #0F9A1F",
"6+	c #139D22",
"7+	c #16A024",
"8+	c #25A931",
"9+	c #29AC34",
"0+	c #2DAF37",
"a+	c #32B13A",
"b+	c #35B33D",
"c+	c #38B63F",
"d+	c #48BF4E",
"e+	c #75D076",
"f+	c #129C21",
"g+	c #19A126",
"h+	c #1DA32A",
"i+	c #21A72D",
"j+	c #25A930",
"k+	c #29AB33",
"l+	c #2EAE37",
"m+	c #31B13A",
"n+	c #3AB640",
"o+	c #3DB943",
"p+	c #4DC252",
"q+	c #75CF76",
"r+	c #079617",
"s+	c #149D23",
"t+	c #18A026",
"u+	c #24A82F",
"v+	c #28AB33",
"w+	c #2CAE36",
"x+	c #31B03A",
"y+	c #36B43D",
"z+	c #39B641",
"A+	c #3EB944",
"B+	c #42BC47",
"C+	c #52C556",
"D+	c #75CE77",
"E+	c #099819",
"F+	c #169F24",
"G+	c #22A72E",
"H+	c #27AA32",
"I+	c #2BAD35",
"J+	c #30B039",
"K+	c #34B33C",
"L+	c #3EB943",
"M+	c #43BC48",
"N+	c #46BF4A",
"O+	c #58C95A",
"P+	c #75CD76",
"Q+	c #0B991A",
"R+	c #2EAF37",
"S+	c #33B23B",
"T+	c #38B53F",
"U+	c #42BB47",
"V+	c #47BF4A",
"W+	c #4BC24E",
"X+	c #5CCC5E",
"Y+	c #75CC76",
"Z+	c #0C9A1C",
"`+	c #19A127",
" @	c #1EA42A",
".@	c #36B43E",
"+@	c #3BB742",
"@@	c #40BA46",
"#@	c #46BE4A",
"$@	c #4BC14E",
"%@	c #4FC451",
"&@	c #60CF61",
"*@	c #76CB77",
"=@	c #0E9B1D",
"-@	c #20A52C",
";@	c #38B640",
">@	c #44BD48",
",@	c #49C04C",
"'@	c #54C755",
")@	c #65D265",
"!@	c #75CA77",
"~@	c #0F9C1E",
"{@	c #31B039",
"]@	c #35B43D",
"^@	c #40BB46",
"/@	c #46BE4B",
"(@	c #4DC24F",
"_@	c #52C653",
":@	c #58CA58",
"<@	c #69D568",
"[@	c #76CA77",
"}@	c #109D1F",
"|@	c #1DA42B",
"1@	c #28AA32",
"2@	c #32B23B",
"3@	c #37B53F",
"4@	c #55C856",
"5@	c #5BCC5A",
"6@	c #6DD76B",
"7@	c #76C977",
"8@	c #119D20",
"9@	c #2EAF38",
"0@	c #39B640",
"a@	c #3FBA45",
"b@	c #4CC24E",
"c@	c #5ECE5D",
"d@	c #70D96E",
"e@	c #76C877",
"f@	c #129E20",
"g@	c #3BB741",
"h@	c #41BB46",
"i@	c #46BF4B",
"j@	c #4DC34F",
"k@	c #53C755",
"l@	c #59CB5A",
"m@	c #60CF5E",
"n@	c #73DB70",
"o@	c #77C878",
"p@	c #1FA62C",
"q@	c #2AAD34",
"r@	c #30B138",
"s@	c #3BB842",
"t@	c #41BC47",
"u@	c #48C04C",
"v@	c #4EC451",
"w@	c #55C956",
"x@	c #5CCD5B",
"y@	c #62D260",
"z@	c #75DD72",
"A@	c #59AF5A",
"B@	c #249C2D",
"C@	c #2CA034",
"D@	c #30A137",
"E@	c #33A23A",
"F@	c #37A53C",
"G@	c #3AA73F",
"H@	c #3EA942",
"I@	c #42AC45",
"J@	c #47AE49",
"K@	c #4BB14C",
"L@	c #4FB44F",
"M@	c #53B753",
"N@	c #58BA56",
"O@	c #63C161",
"                                                                ",
"                              . +                               ",
"                            @ # $ %                             ",
"                          & * = - ; >                           ",
"                        , ' ) ! ~ { ] ^                         ",
"                      / ( _ : < [ } | 1 2                       ",
"                    3 4 5 6 7 8 9 0 0 a b c                     ",
"                  d e f g 8 h i j j k l l m n                   ",
"                o p q 7 r s t u v w w v x y z A                 ",
"              B C D g h E u F G H H I J K L M N                 ",
"            O P f Q R s S T H U V W W X Y Z `  ...              ",
"          +.@.: { 8 #.t w $.H %.X X &.*.=.-.;.>.,.'.            ",
"        ).!.~.{.[ ].#.^./.(._.:.<.[.}.|.1.2.3.4.5.6.7.          ",
"        8.- 9.0.a.T b.c.d.e.f.g.h.i.j.k.l.m.n.o.p.q.r.s.        ",
"      t.u.v.w.x.y.z.A.B.C.D.E.F.1.G.H.m.I.J.p.K.L.M.N.O.P.      ",
"    Q.R.S.T.U.V.W.X.Y.Z.D.E.F.`. +l.m..+p.++@+#+$+%+&+&+*+=+    ",
"                -+;+>+,+g.F.1.'+)+!+~+q.{+]+^+                  ",
"                /+(+_+:+h.<+'+)+[+J.}+|+1+2+3+                  ",
"                -+4+5+6+7+j.4.!+8+9+0+a+b+c+d+                  ",
"                e+d.f+F.g+h+i+j+k+l+m+b+n+o+p+                  ",
"                q+r+s+t+ +5.u+v+w+x+y+z+A+B+C+                  ",
"                D+E+F+2.)+G+H+I+J+K+n+L+M+N+O+                  ",
"                P+Q+t+k.5.j+9+R+S+T+o+U+V+W+X+                  ",
"                Y+Z+`+ @G+H+w+m+.@+@@@#@$@%@&@                  ",
"                *@=@ +-@.+q.R+2+;@A+>@,@%@'@)@                  ",
"                !@~@k.m.J.I+{@]@+@^@/@(@_@:@<@                  ",
"                [@}@|@[+1@w+2@3@L+>@,@%@4@5@6@                  ",
"                7@8@l.u+k+9@K+0@a@#@b@_@:@c@d@                  ",
"                e@f@5..+++]+b+g@h@i@j@k@l@m@n@                  ",
"                o@f@p@j+q@r@y+s@t@u@v@w@x@y@z@                  ",
"                A@B@C@D@E@F@G@H@I@J@K@L@M@N@O@                  ",
"                                                                "};
