/* XPM */
static char * bundle_rotate_xpm[] = {
"32 32 459 2",
"  	c #FDFCFC",
". 	c #FFFAFB",
"+ 	c #FDFDFD",
"@ 	c #FBF1F0",
"# 	c #FAA6A4",
"$ 	c #F97D7A",
"% 	c #FCB7B0",
"& 	c #FDFAF9",
"* 	c #FEFBFB",
"= 	c #FEFBFC",
"- 	c #F8E5E1",
"; 	c #EE6B56",
"> 	c #FF0000",
", 	c #FA3C23",
"' 	c #FD9D88",
") 	c #F7F3F2",
"! 	c #EA7A6A",
"~ 	c #CE3122",
"{ 	c #E03B27",
"] 	c #FCDEDA",
"^ 	c #FDFBFC",
"/ 	c #DC9F92",
"( 	c #FF452E",
"_ 	c #DF4339",
": 	c #FC856F",
"< 	c #FCFCFC",
"[ 	c #FEFAFB",
"} 	c #FEFCFC",
"| 	c #F4E3DF",
"1 	c #EA5C47",
"2 	c #EF3B29",
"3 	c #FFEFDB",
"4 	c #B26A67",
"5 	c #542522",
"6 	c #FCF4F2",
"7 	c #FDFBFB",
"8 	c #FDF4F3",
"9 	c #FBEDE5",
"0 	c #EA9883",
"a 	c #F36A50",
"b 	c #FFFFFE",
"c 	c #E1E3E2",
"d 	c #5D2B27",
"e 	c #A63323",
"f 	c #FCAF9F",
"g 	c #FADED3",
"h 	c #F0AF8E",
"i 	c #EDA183",
"j 	c #EF3B28",
"k 	c #E3AB9B",
"l 	c #5A9F99",
"m 	c #30A098",
"n 	c #43BEB2",
"o 	c #88544A",
"p 	c #FFF9F9",
"q 	c #F6976A",
"r 	c #F38A4C",
"s 	c #E76A44",
"t 	c #EC4D35",
"u 	c #B5BAB3",
"v 	c #30B0A7",
"w 	c #4BD2C1",
"x 	c #CAE7A9",
"y 	c #B6BB94",
"z 	c #FEFAFA",
"A 	c #E9E6E2",
"B 	c #DFD9AF",
"C 	c #F07542",
"D 	c #F4703E",
"E 	c #DB5837",
"F 	c #E35F4B",
"G 	c #A7AB8F",
"H 	c #2AB2A8",
"I 	c #5CD9C0",
"J 	c #D4E9A4",
"K 	c #B5D69F",
"L 	c #D47063",
"M 	c #F1EEEF",
"N 	c #F7F2F4",
"O 	c #F8F4F5",
"P 	c #FEF9FA",
"Q 	c #E4E1E0",
"R 	c #C6CC51",
"S 	c #E3E073",
"T 	c #EDAA69",
"U 	c #E47048",
"V 	c #E57766",
"W 	c #A0A57C",
"X 	c #2AB1A7",
"Y 	c #4BD4A1",
"Z 	c #8AE4BB",
"` 	c #8AC1AB",
" .	c #979AAC",
"..	c #7B8FD6",
"+.	c #7E93E6",
"@.	c #778EE8",
"#.	c #A9B5E9",
"$.	c #F9F5F6",
"%.	c #E5E3C5",
"&.	c #D4DA3A",
"*.	c #DCE05A",
"=.	c #DBE063",
"-.	c #DDC974",
";.	c #EC7C59",
">.	c #D3824D",
",.	c #2BA99E",
"'.	c #2DC087",
").	c #2EDCC7",
"!.	c #738AB1",
"~.	c #506DD8",
"{.	c #ACADB9",
"].	c #DDD0A7",
"^.	c #7285D6",
"/.	c #4361E4",
"(.	c #DFE0F2",
"_.	c #FDF9FA",
":.	c #F6F2ED",
"<.	c #C0C66B",
"[.	c #CCDB35",
"}.	c #C7DA36",
"|.	c #C9DA37",
"1.	c #DD8C73",
"2.	c #F66C33",
"3.	c #2E967D",
"4.	c #2ABB93",
"5.	c #52BCA0",
"6.	c #4564DB",
"7.	c #7A8ED9",
"8.	c #DFD1A7",
"9.	c #D3C7A8",
"0.	c #3D58D9",
"a.	c #2644E2",
"b.	c #C3C9ED",
"c.	c #FCFBFB",
"d.	c #FDFAFA",
"e.	c #FBF4F8",
"f.	c #C6AFC6",
"g.	c #B4B370",
"h.	c #C2D448",
"i.	c #CAD240",
"j.	c #EF422D",
"k.	c #C87752",
"l.	c #EC612D",
"m.	c #528770",
"n.	c #2BB28C",
"o.	c #547AB6",
"p.	c #5371E0",
"q.	c #7D97E4",
"r.	c #7B96E2",
"s.	c #3453D4",
"t.	c #233ED0",
"u.	c #6981EB",
"v.	c #F7F7FB",
"w.	c #FDFCFD",
"x.	c #FCF9FB",
"y.	c #BD7BD3",
"z.	c #E462D2",
"A.	c #E885C2",
"B.	c #B28BC6",
"C.	c #88B9C4",
"D.	c #EB562F",
"E.	c #CABA37",
"F.	c #C74F24",
"G.	c #8E7C5A",
"H.	c #479677",
"I.	c #7983CA",
"J.	c #7492E7",
"K.	c #557AE4",
"L.	c #4265BF",
"M.	c #264280",
"N.	c #2D4B94",
"O.	c #D1E2EB",
"P.	c #DEF2F6",
"Q.	c #994BB3",
"R.	c #DC2DC1",
"S.	c #DC2EC1",
"T.	c #D33AC4",
"U.	c #9756A8",
"V.	c #E95330",
"W.	c #CDDB38",
"X.	c #C77734",
"Y.	c #977553",
"Z.	c #468E8B",
"`.	c #7591E6",
" +	c #5479E4",
".+	c #3D5DB5",
"++	c #253A7E",
"@+	c #2B477E",
"#+	c #7DB9A0",
"$+	c #3CFC44",
"%+	c #6FFD75",
"&+	c #A4F696",
"*+	c #DBF7CA",
"=+	c #FCFDFB",
"-+	c #E4F7E9",
";+	c #5C919A",
">+	c #853184",
",+	c #BB2DA8",
"'+	c #D32DBC",
")+	c #BD38A1",
"!+	c #EA4C35",
"~+	c #D1D847",
"{+	c #C89837",
"]+	c #9A6642",
"^+	c #538FA8",
"/+	c #587DE4",
"(+	c #4967CD",
"_+	c #283388",
":+	c #415591",
"<+	c #79CF79",
"[+	c #00FF00",
"}+	c #2BE13C",
"|+	c #2BDD3B",
"1+	c #53E73A",
"2+	c #88EE4C",
"3+	c #8CF063",
"4+	c #D8F8CA",
"5+	c #FCFDFC",
"6+	c #DBF1DA",
"7+	c #89F68B",
"8+	c #5EEE69",
"9+	c #6D625E",
"0+	c #762B72",
"a+	c #7F337B",
"b+	c #EB4735",
"c+	c #C68D70",
"d+	c #BE8E2B",
"e+	c #A55935",
"f+	c #617EB9",
"g+	c #4B6CD8",
"h+	c #29338B",
"i+	c #705585",
"j+	c #FB8477",
"k+	c #6BE14D",
"l+	c #4BEE4D",
"m+	c #71F183",
"n+	c #F3FAF3",
"o+	c #A3DFA8",
"p+	c #64F167",
"q+	c #4EC65D",
"r+	c #6A5981",
"s+	c #E93E38",
"t+	c #D44DD4",
"u+	c #BD8341",
"v+	c #C05632",
"w+	c #5C67C7",
"x+	c #2B3B9E",
"y+	c #543160",
"z+	c #BE302A",
"A+	c #FD3725",
"B+	c #FAD8CD",
"C+	c #70D18A",
"D+	c #48C469",
"E+	c #78F280",
"F+	c #FAFAF7",
"G+	c #D0E2D0",
"H+	c #5BDB70",
"I+	c #33BC56",
"J+	c #34BD57",
"K+	c #4BC56B",
"L+	c #EEF5ED",
"M+	c #D6D2D5",
"N+	c #E33A3E",
"O+	c #CF43D7",
"P+	c #D171A3",
"Q+	c #9D544D",
"R+	c #334BCA",
"S+	c #3F4691",
"T+	c #823432",
"U+	c #A02B24",
"V+	c #F8D3C5",
"W+	c #FCFCFB",
"X+	c #F3FAF5",
"Y+	c #A2E0B3",
"Z+	c #54CC70",
"`+	c #56EE64",
" @	c #E7F9E4",
".@	c #A4BEA2",
"+@	c #3AA84F",
"@@	c #31C254",
"#@	c #46CB65",
"$@	c #D1EED7",
"%@	c #FBF9F8",
"&@	c #E1B2B3",
"*@	c #EF3733",
"=@	c #D04DA9",
"-@	c #BE4BB8",
";@	c #99524A",
">@	c #2B3CA7",
",@	c #A0A4CA",
"'@	c #A05C54",
")@	c #F8D8C7",
"!@	c #F8FDFA",
"~@	c #EDFCED",
"{@	c #9BDD91",
"]@	c #30C653",
"^@	c #D5EFD5",
"/@	c #BBC9B9",
"(@	c #2D873B",
"_@	c #2BB248",
":@	c #35DD51",
"<@	c #74E787",
"[@	c #D7F5D8",
"}@	c #DDC6BD",
"|@	c #F2AFAF",
"1@	c #F3E3F3",
"2@	c #979FDA",
"3@	c #7271B0",
"4@	c #E6D5C3",
"5@	c #914736",
"6@	c #AA432D",
"7@	c #EFF1E2",
"8@	c #D5F9D8",
"9@	c #ADF2AF",
"0@	c #8CEF8F",
"a@	c #48E94B",
"b@	c #30C64B",
"c@	c #4C9458",
"d@	c #FAF7F6",
"e@	c #FAF6F6",
"f@	c #769A77",
"g@	c #2F803B",
"h@	c #2B9F41",
"i@	c #29DD3E",
"j@	c #28E230",
"k@	c #2FD62B",
"l@	c #869368",
"m@	c #70F17C",
"n@	c #30E533",
"o@	c #3BE336",
"p@	c #4EE842",
"q@	c #63EE60",
"r@	c #43E64D",
"s@	c #5EEE5F",
"t@	c #43E853",
"u@	c #2AE037",
"v@	c #27E22F",
"w@	c #2BD045",
"x@	c #2CB644",
"y@	c #3D8744",
"z@	c #D1DCCE",
"A@	c #F7F4F3",
"B@	c #86A085",
"C@	c #366B39",
"D@	c #2C8B3C",
"E@	c #2BA644",
"F@	c #2CA744",
"G@	c #7D9163",
"H@	c #2DB943",
"I@	c #2DAA44",
"J@	c #2D9940",
"K@	c #4B8D54",
"L@	c #D0DBCE",
"M@	c #E4E6E0",
"N@	c #97AD96",
"O@	c #5E845E",
"P@	c #417544",
"Q@	c #336E37",
"R@	c #2D7D38",
"S@	c #2E863A",
"T@	c #9C3E2B",
"U@	c #915541",
"V@	c #68D771",
"W@	c #2EB043",
"X@	c #2EAB42",
"Y@	c #2EA742",
"Z@	c #2EA242",
"`@	c #2EA041",
" #	c #2DA442",
".#	c #2DA142",
"+#	c #2D9B41",
"@#	c #2C9740",
"##	c #2C9B41",
"$#	c #2C923F",
"%#	c #3C8145",
"&#	c #8DA78C",
"*#	c #EFEEEC",
"=#	c #DBE0D9",
"-#	c #A8BBA6",
";#	c #769676",
">#	c #946A56",
",#	c #B62D28",
"'#	c #4B9A4F",
")#	c #2BA444",
"!#	c #2C913E",
"~#	c #2C8C3E",
"{#	c #2C853C",
"]#	c #2C823B",
"^#	c #2C7B3A",
"/#	c #2C783A",
"(#	c #2D7339",
"_#	c #487950",
":#	c #8AA88E",
"<#	c #C8D4C7",
"[#	c #ECE2E2",
"}#	c #C9483D",
"|#	c #FF302A",
"1#	c #7E7665",
"2#	c #719A78",
"3#	c #729474",
"4#	c #707B5B",
"5#	c #759372",
"6#	c #857456",
"7#	c #ABB6A3",
"8#	c #C6D2C5",
"9#	c #D1DBD1",
"0#	c #FDF9F9",
"a#	c #F9F6F7",
"b#	c #F2EEEF",
"c#	c #A7625E",
"d#	c #E8766A",
"e#	c #C7C2C2",
"f#	c #FAEEEE",
"g#	c #923736",
"h#	c #FBCFCC",
"i#	c #FDF8F9",
"j#	c #FBF6F7",
"k#	c #FDF8FA",
"l#	c #FBFAFA",
"m#	c #FCF7F8",
"n#	c #C49797",
"o#	c #9B2A2A",
"p#	c #FF5A3F",
"q#	c #FFE9E4",
"r#	c #FFE9E8",
"s#	c #8A2E2D",
"t#	c #F9F4F6",
"u#	c #FCF9FA",
"v#	c #FCF2F3",
"w#	c #9F5453",
"x#	c #A32B2A",
"y#	c #FA9090",
"z#	c #FAF6F7",
"A#	c #FDFAFB",
"B#	c #F1DADA",
"C#	c #89302E",
"D#	c #9F2D2A",
"E#	c #A7302B",
"F#	c #9F2824",
"G#	c #E23A33",
"H#	c #FCEBEA",
"I#	c #F1F1F1",
"J#	c #FCF8F9",
"K#	c #FCF9F9",
"L#	c #FEF8F8",
"M#	c #E4BDBC",
"N#	c #A0302C",
"O#	c #C02B26",
"P#	c #CB2B26",
"Q#	c #E33831",
"R#	c #F9CFCD",
"S#	c #FBFBFB",
"T#	c #F0EFEF",
"U#	c #F9F8F8",
"V#	c #FBF9F9",
"W#	c #E5C8C7",
"X#	c #E38F8A",
"Y#	c #F17A75",
"Z#	c #F8C6C3",
"  . . . . . . . . . .   + + @ # $ % &   * . . . . . . . . .   = ",
"+ . . . . . . . . .   + + - ; > > , '     = . . . . . . . .   = ",
"+ . . . . . . . . * + + ) ! > > > ~ { ] +   . . . . . . . . ^ = ",
"+ . . . . . . . . = + + / > > ( _ > > : < < [ . . . . . . . } = ",
"+ . . . . . . . . } + | 1 > 2 3 4 5 > > 6 < 7 . . . . . . . = = ",
"  . . . . . . . . 8 9 0 > > a b c d e > f < * . . . . . . . = = ",
"  . . . . . . . g h i > > j k l m n o > > < . . . . . . . . = = ",
". . . . . . . p q r s > > t u v w x y > > [ . . . . . . . . [ * ",
". . . . . z A B C D E > > F G H I J K L > M N O P . . . . . . . ",
". . . . . Q R S T U > > > V W X Y Z `  ...+.@.#.$.P . . . . . . ",
". . . . . %.&.*.=.-.> > > ;.>.,.'.).!.~.{.].^./.(._.* . . . . * ",
". . . . . :.<.[.}.|.> > > 1.2.3.4.5.6.7.8.9.0.a.b.c.< d.. . . * ",
". . . . . e.f.g.h.i.> > j.k.l.m.n.o.p.q.r.s.t.u.v.+ + + w.* . * ",
". . . . x.y.z.A.B.C.> > D.E.F.G.H.I.J.K.L.M.N.O.+ + + + + + = . ",
". . . . P.Q.R.S.T.U.> > V.W.X.Y.Z.`. +.+++@+#+$+%+&+*+=++ + + . ",
". . . . -+;+>+,+'+)+> > !+~+{+]+^+/+(+_+:+<+[+}+|+1+2+3+4+5++ = ",
". . 6+7+8+[+[+9+0+a+> > b+c+d+e+f+g+h+i+j+[+[+[+[+[+[+k+l+m+n+* ",
"z o+p+<+[+[+[+q+<+r+> > s+t+u+v+w+x+y+z+A+B+  <+C+D+[+[+[+<+E+F+",
"G+H+<+[+[+I+J+K+L+M+> > N+O+P+Q+R+S+T+U+> V+W+  + X+Y+Z+[+[+`+ @",
".@+@[+[+@@#@$@%@. &@> > *@=@-@;@>@,@'@> > )@!@  < ~@{@[+[+[+]@^@",
"/@(@_@[+[+[+:@<@[@}@> > > |@1@2@3@4@5@6@> 7@8@9@0@a@[+[+[+b@c@d@",
"e@f@g@h@[+[+[+i@j@k@> > > l@m@n@o@p@q@r@s@t@u@v@[+[+[+w@x@y@z@. ",
". A@B@C@D@E@F@[+[+[+> > > G@[+[+[+[+[+[+[+[+[+[+[+H@I@J@K@L@. . ",
". . . M@N@O@P@Q@R@S@T@> > U@V@W@X@Y@Z@`@ #.#+#@###$#%#&#*#. . * ",
". . . . . . A@=#-#;#>#> > ,#'#)#!#~#{#]#^#/#(#_#:#<#e@. . . . = ",
". . . . . . . . . . [#}#> |#1#2#3#4#5#6#7#8#9#0#. . . . . . . = ",
"^ P P z [ . . z ^ a#b#c#> > d#e#f#g#> > h#w.* i#j#j#k#i#j#P [ ^ ",
"  [ . . [ d.7 l#    m#n#o#> p#q#r#s#> > & + ^ _.j#m#P P t#P [ ^ ",
"  u#i#. ^ + +   < + * v#w#x#> > > > > y#+ + 7 P z#m#P P t#P [ = ",
"  A#k#z [   +       ^ * B#C#D#> E#F#G#H#+ I#J#P J#K#* 7 l#[ * = ",
"  ^ A#[ [ [       <   [ L#M#N#O#P#Q#R#+ S#T#U#  w.+ + + + + + } ",
"+ + + + + + + + + < < c.V#+ W#X#Y#Z#+ + < + + +   < + + + + + } "};
