/* XPM */
static char * bundle_resize_xpm[] = {
"32 32 626 2",
"  	c None",
". 	c #FFFAFB",
"+ 	c #FEF9FA",
"@ 	c #FEF9FB",
"# 	c #FDF8F9",
"$ 	c #F8F4F6",
"% 	c #ECE9EB",
"& 	c #E0DFE2",
"* 	c #DAD9DC",
"= 	c #D3D3D7",
"- 	c #D1D3D6",
"; 	c #D9DADC",
"> 	c #EBE9EB",
", 	c #F7F3F4",
"' 	c #FBF7F8",
") 	c #FEFAFB",
"! 	c #F6F3F4",
"~ 	c #D3D4D8",
"{ 	c #ACB2B9",
"] 	c #87929C",
"^ 	c #74808B",
"/ 	c #6C7885",
"( 	c #687582",
"_ 	c #687482",
": 	c #667381",
"< 	c #677381",
"[ 	c #707B87",
"} 	c #86909A",
"| 	c #B0B5BB",
"1 	c #DDDEE0",
"2 	c #F1EEF0",
"3 	c #FAF6F7",
"4 	c #FFF9FB",
"5 	c #FDF9FA",
"6 	c #F0EEEF",
"7 	c #BBBFC3",
"8 	c #7E8893",
"9 	c #697582",
"0 	c #667380",
"a 	c #657280",
"b 	c #657180",
"c 	c #677481",
"d 	c #64717F",
"e 	c #6F7B87",
"f 	c #9BA4AA",
"g 	c #C8CDCE",
"h 	c #E2E2E3",
"i 	c #F8F5F6",
"j 	c #CACCCE",
"k 	c #8C959C",
"l 	c #6A7683",
"m 	c #65717F",
"n 	c #687684",
"o 	c #738B96",
"p 	c #82A7AF",
"q 	c #8FC1C7",
"r 	c #99D4D8",
"s 	c #9EDDE0",
"t 	c #9EDCE0",
"u 	c #9FDCDF",
"v 	c #9AD3D6",
"w 	c #97CACD",
"x 	c #92B9BC",
"y 	c #80959C",
"z 	c #6C7B87",
"A 	c #727F89",
"B 	c #909CA1",
"C 	c #BDC4C5",
"D 	c #ECEAEB",
"E 	c #E6E5E7",
"F 	c #99A1A8",
"G 	c #65727F",
"H 	c #697986",
"I 	c #81A6AD",
"J 	c #9AD6DA",
"K 	c #A3E7E9",
"L 	c #A4EAEC",
"M 	c #A8EBEC",
"N 	c #B1EBED",
"O 	c #B7EBED",
"P 	c #BDECEE",
"Q 	c #BFEDEF",
"R 	c #BBEEF0",
"S 	c #ADEBEE",
"T 	c #A4EAED",
"U 	c #A3E7EA",
"V 	c #9FDEE0",
"W 	c #90C0C4",
"X 	c #7C99A2",
"Y 	c #6A7985",
"Z 	c #737F89",
"` 	c #A4ABAF",
" .	c #E6E5E6",
"..	c #DEDEE0",
"+.	c #7F8A94",
"@.	c #64727F",
"#.	c #70848E",
"$.	c #94CACF",
"%.	c #A4E9EB",
"&.	c #A8EAEC",
"*.	c #C0EEEF",
"=.	c #D9F3F4",
"-.	c #E9F7F7",
";.	c #EFF9F9",
">.	c #F0F9FA",
",.	c #F0FAFA",
"'.	c #F1F9FA",
").	c #F0F9F9",
"!.	c #DFF5F7",
"~.	c #CBF0F3",
"{.	c #B3EBEE",
"].	c #A3EAEC",
"^.	c #A2EAEB",
"/.	c #9BDADC",
"(.	c #78A0A5",
"_.	c #697683",
":.	c #9199A1",
"<.	c #E9E7E8",
"[.	c #F0EDEE",
"}.	c #959FA5",
"|.	c #657381",
"1.	c #84A8B0",
"2.	c #A2E6E9",
"3.	c #ABEBEF",
"4.	c #CDF2F4",
"5.	c #EAF8F8",
"6.	c #EFF8F8",
"7.	c #E0EAEC",
"8.	c #C9D4D8",
"9.	c #BCC7CC",
"0.	c #B1BDC2",
"a.	c #ACB7BD",
"b.	c #B2BDC3",
"c.	c #CDD7DB",
"d.	c #E8F2F2",
"e.	c #D9F3F5",
"f.	c #BFEFF1",
"g.	c #A9EAEE",
"h.	c #A1EAED",
"i.	c #83CFCA",
"j.	c #758A92",
"k.	c #687481",
"l.	c #828C96",
"m.	c #EDEAEC",
"n.	c #BFC3C6",
"o.	c #8EBCC1",
"p.	c #ADEBED",
"q.	c #D1F3F4",
"r.	c #EDF9F9",
"s.	c #E2EBED",
"t.	c #B7C2C7",
"u.	c #8996A0",
"v.	c #6F7C87",
"w.	c #6C7985",
"x.	c #6A7784",
"y.	c #6A7885",
"z.	c #6B7784",
"A.	c #73808B",
"B.	c #99A5AC",
"C.	c #CFD9DB",
"D.	c #ECF5F6",
"E.	c #F1FAFA",
"F.	c #EBF8F8",
"G.	c #CBEFF1",
"H.	c #AEE9ED",
"I.	c #90D5D1",
"J.	c #7F8E95",
"K.	c #ABB1B8",
"L.	c #F8F4F5",
"M.	c #8D98A0",
"N.	c #63707E",
"O.	c #7B9AA4",
"P.	c #C9F1F1",
"Q.	c #EEF9F9",
"R.	c #E3EBED",
"S.	c #A2ADB5",
"T.	c #6E7B87",
"U.	c #6B7985",
"V.	c #788C98",
"W.	c #869FAB",
"X.	c #8DADBA",
"Y.	c #8FB8C7",
"Z.	c #8FBED0",
"`.	c #8FC0D2",
" +	c #8EBED0",
".+	c #8CB7C7",
"++	c #87AAB9",
"@+	c #77909F",
"#+	c #697784",
"$+	c #7C8893",
"%+	c #AFBAC0",
"&+	c #E8F1F2",
"*+	c #F2FAFA",
"=+	c #EAF6F7",
"-+	c #D2EEEF",
";+	c #93BEC3",
">+	c #A8AEB5",
",+	c #FCF7F8",
"'+	c #7D8A97",
")+	c #647180",
"!+	c #8EB9BF",
"~+	c #DDF1F1",
"{+	c #DDE9EB",
"]+	c #A3AEB5",
"^+	c #788995",
"/+	c #97C3D2",
"(+	c #A8D5DB",
"_+	c #8AD7A8",
":+	c #52E36C",
"<+	c #ADD3E5",
"[+	c #A2D5E0",
"}+	c #9DD2E0",
"|+	c #A3D2DF",
"1+	c #A4D2DF",
"2+	c #A2D2DF",
"3+	c #A3D1DE",
"4+	c #8FBFD0",
"5+	c #7896A6",
"6+	c #697885",
"7+	c #77848F",
"8+	c #BDC8CD",
"9+	c #F0F7F7",
"0+	c #EDF7F7",
"a+	c #96AEB4",
"b+	c #9AA3A9",
"c+	c #FCF7F9",
"d+	c #8596A5",
"e+	c #687887",
"f+	c #72828E",
"g+	c #7F8E98",
"h+	c #6E7C88",
"i+	c #6A7986",
"j+	c #768D9A",
"k+	c #A6C2CE",
"l+	c #BBDEDF",
"m+	c #4C975B",
"n+	c #07E708",
"o+	c #10D412",
"p+	c #00FF00",
"q+	c #BADBDE",
"r+	c #B4E5DD",
"s+	c #B0E0DC",
"t+	c #ACD9DE",
"u+	c #A8D3DF",
"v+	c #AAD4DF",
"w+	c #AAD5DF",
"x+	c #A6D3DF",
"y+	c #92C0CF",
"z+	c #778A96",
"A+	c #828E99",
"B+	c #8F9CA5",
"C+	c #6F7F8B",
"D+	c #6C7E8E",
"E+	c #B4BDC4",
"F+	c #C0C8D0",
"G+	c #728DA3",
"H+	c #6E8191",
"I+	c #7D93A0",
"J+	c #9BC1CE",
"K+	c #ABD5DE",
"L+	c #A2CCD3",
"M+	c #4F715E",
"N+	c #25AC2B",
"O+	c #28B230",
"P+	c #46B651",
"Q+	c #10BA11",
"R+	c #61E26A",
"S+	c #AAE5CA",
"T+	c #B2E2DD",
"U+	c #78BFD0",
"V+	c #2DA8DA",
"W+	c #8ACFE8",
"X+	c #AED4E1",
"Y+	c #AAD5DE",
"Z+	c #A8D4DF",
"`+	c #96CADB",
" @	c #85A4B0",
".@	c #72889B",
"+@	c #859BAA",
"@@	c #F2EFF1",
"#@	c #849AAB",
"$@	c #6D8498",
"%@	c #677584",
"&@	c #8BA8B4",
"*@	c #A8D3DE",
"=@	c #98B4B9",
"-@	c #2A522C",
";@	c #08EF0A",
">@	c #7DD585",
",@	c #D9F1DC",
"'@	c #84D385",
")@	c #09EA0A",
"!@	c #3BEC40",
"~@	c #68ACBE",
"{@	c #1B91D2",
"]@	c #3DA5E3",
"^@	c #08B8F1",
"/@	c #7ACCE7",
"(@	c #B1D8E1",
"_@	c #A7D3DE",
":@	c #96C9DB",
"<@	c #81919B",
"[@	c #6B7C8A",
"}@	c #7890A3",
"|@	c #C5CCD0",
"1@	c #ADB9C1",
"2@	c #728DA4",
"3@	c #7792A7",
"4@	c #AAD4DE",
"5@	c #B7D8E4",
"6@	c #7C8C8C",
"7@	c #335D36",
"8@	c #8CDC91",
"9@	c #A8E6AB",
"0@	c #EAF9EA",
"a@	c #3AEA3C",
"b@	c #1CC659",
"c@	c #2CC7FB",
"d@	c #ADCEEE",
"e@	c #83B7DE",
"f@	c #18C0F7",
"g@	c #9BD6EA",
"h@	c #ABD7DE",
"i@	c #ABD6DF",
"j@	c #84A3B4",
"k@	c #758EA4",
"l@	c #9AA9B4",
"m@	c #F2F0F1",
"n@	c #7F96A8",
"o@	c #728FA5",
"p@	c #9BC1CF",
"q@	c #AFD7E0",
"r@	c #BBCCE2",
"s@	c #859990",
"t@	c #227F26",
"u@	c #08E909",
"v@	c #18F719",
"w@	c #92DF98",
"x@	c #CCEECF",
"y@	c #3DEC3D",
"z@	c #05F605",
"A@	c #2780AA",
"B@	c #08ACF1",
"C@	c #2E6ECB",
"D@	c #16BDF7",
"E@	c #1ABEF1",
"F@	c #AFD3DF",
"G@	c #ACD7DE",
"H@	c #738FA6",
"I@	c #8298A9",
"J@	c #D5D7D9",
"K@	c #B9C0C5",
"L@	c #7590A6",
"M@	c #7B98AC",
"N@	c #A9D4DC",
"O@	c #B7DAE0",
"P@	c #D4CED9",
"Q@	c #C1BBAE",
"R@	c #306436",
"S@	c #238628",
"T@	c #09F50B",
"U@	c #2CF22F",
"V@	c #5FDA68",
"W@	c #44D752",
"X@	c #2CC237",
"Y@	c #2F7787",
"Z@	c #2C63BF",
"`@	c #2A6ECB",
" #	c #0EADE5",
".#	c #3BBCE1",
"+#	c #A0C6D8",
"@#	c #AAD3DC",
"##	c #A7CFDA",
"$#	c #7896AA",
"%#	c #738FA5",
"&#	c #B3BDC4",
"*#	c #F9F5F6",
"=#	c #8A9CA8",
"-#	c #728EA5",
";#	c #95AEBA",
">#	c #D08A7D",
",#	c #DF523A",
"'#	c #B73F31",
")#	c #6E7048",
"!#	c #2B6230",
"~#	c #247128",
"{#	c #11E415",
"]#	c #0AF80C",
"^#	c #39DE49",
"/#	c #27E332",
"(#	c #2C8173",
"_#	c #2D60B4",
":#	c #2A6BC8",
"<#	c #2261CF",
"[#	c #040CFC",
"}#	c #040BFA",
"|#	c #283ADB",
"1#	c #87A8C4",
"2#	c #7591A7",
"3#	c #8CA1AF",
"4#	c #F3F0F1",
"5#	c #D4D6D9",
"6#	c #7893A8",
"7#	c #A86463",
"8#	c #D13F32",
"9#	c #E5A186",
"0#	c #DDDCCE",
"a#	c #C0604D",
"b#	c #6B5735",
"c#	c #264A28",
"d#	c #218624",
"e#	c #04FB05",
"f#	c #1CEC24",
"g#	c #30E23E",
"h#	c #40A763",
"i#	c #366FA4",
"j#	c #2B68CF",
"k#	c #060FFB",
"l#	c #0006FF",
"m#	c #8B97AC",
"n#	c #040DF8",
"o#	c #2442B5",
"p#	c #A4BEC6",
"q#	c #ABBAC7",
"r#	c #995160",
"s#	c #A32837",
"t#	c #C16060",
"u#	c #D4AC9B",
"v#	c #BF5341",
"w#	c #842520",
"x#	c #2F4C25",
"y#	c #254728",
"z#	c #05EE07",
"A#	c #04F506",
"B#	c #2FD83B",
"C#	c #2DE237",
"D#	c #469EC9",
"E#	c #2454E4",
"F#	c #0E1BF6",
"G#	c #868DB2",
"H#	c #C3C88F",
"I#	c #2A3EC8",
"J#	c #253B88",
"K#	c #B4C1CC",
"L#	c #DBE4E9",
"M#	c #7A7F92",
"N#	c #982D3A",
"O#	c #A42738",
"P#	c #9F2836",
"Q#	c #A93039",
"R#	c #942324",
"S#	c #673121",
"T#	c #244C27",
"U#	c #208323",
"V#	c #23C32A",
"W#	c #25E72F",
"X#	c #24A481",
"Y#	c #182AEE",
"Z#	c #0711F7",
"`#	c #2B3BCB",
" $	c #2B3BCA",
".$	c #23309F",
"+$	c #4D5D98",
"@$	c #B5BDC4",
"#$	c #F4F5F6",
"$$	c #91AABC",
"%$	c #897D90",
"&$	c #A0494F",
"*$	c #9E3A31",
"=$	c #A53236",
"-$	c #AA332E",
";$	c #7A201E",
">$	c #555531",
",$	c #255F28",
"'$	c #16C619",
")$	c #24DD2D",
"!$	c #279881",
"~$	c #020AFC",
"{$	c #121EE6",
"]$	c #2A3BC9",
"^$	c #293B98",
"/$	c #2A3A7B",
"($	c #A9B7CD",
"_$	c #D7D9DA",
":$	c #F8F7F8",
"<$	c #CEDCE5",
"[$	c #B7BBB6",
"}$	c #A79730",
"|$	c #A09F1F",
"1$	c #9F9E41",
"2$	c #A09623",
"3$	c #9C4B22",
"4$	c #964537",
"5$	c #325A35",
"6$	c #12B515",
"7$	c #12D515",
"8$	c #24DA2C",
"9$	c #3A949B",
"0$	c #0C17F2",
"a$	c #0C15EE",
"b$	c #293BB6",
"c$	c #2D3E79",
"d$	c #91B0C4",
"e$	c #C9D2D5",
"f$	c #FAF5F6",
"g$	c #FBF8F9",
"h$	c #D3D9DE",
"i$	c #B3802F",
"j$	c #D3A028",
"k$	c #D7D458",
"l$	c #D7EFD5",
"m$	c #BCC06B",
"n$	c #948B23",
"o$	c #903E22",
"p$	c #7C775C",
"q$	c #235926",
"r$	c #23AC2A",
"s$	c #25DF2E",
"t$	c #35709D",
"u$	c #0811F0",
"v$	c #212FA8",
"w$	c #2F407B",
"x$	c #8A98A2",
"y$	c #B5BFBF",
"z$	c #F4F1F2",
"A$	c #E5E5E6",
"B$	c #D2872B",
"C$	c #DF8927",
"D$	c #DCBA3B",
"E$	c #DBD76A",
"F$	c #DCD055",
"G$	c #B7AF49",
"H$	c #906621",
"I$	c #A56558",
"J$	c #213E21",
"K$	c #23A028",
"L$	c #26D330",
"M$	c #294CA9",
"N$	c #28356D",
"O$	c #29335C",
"P$	c #6E7B89",
"Q$	c #969899",
"R$	c #EDE9EA",
"S$	c #F6F2F3",
"T$	c #D4AA70",
"U$	c #DF8A2A",
"V$	c #DF8A28",
"W$	c #DE9D2E",
"X$	c #DCA938",
"Y$	c #D6B539",
"Z$	c #9F8C20",
"`$	c #AD7D5F",
" %	c #39543A",
".%	c #239F27",
"+%	c #24BD32",
"@%	c #3A56AE",
"#%	c #2A345E",
"$%	c #40506F",
"%%	c #838781",
"&%	c #D5D3D4",
"*%	c #F8F4F4",
"=%	c #F7F1EE",
"-%	c #EDCFAA",
";%	c #E4B57C",
">%	c #D4A463",
",%	c #D8872D",
"'%	c #DC8425",
")%	c #B77F21",
"!%	c #B4AF60",
"~%	c #546F55",
"{%	c #217623",
"]%	c #2A8260",
"^%	c #32417B",
"/%	c #28335B",
"(%	c #616C79",
"_%	c #A8A8A9",
":%	c #FBF6F8",
"<%	c #C4CCD6",
"[%	c #8A9291",
"}%	c #CF8936",
"|%	c #D98124",
"1%	c #B3922A",
"2%	c #60805E",
"3%	c #1D541E",
"4%	c #2E4F82",
"5%	c #2C365F",
"6%	c #2E3B67",
"7%	c #7B8089",
"8%	c #E6E3E3",
"9%	c #F2F0F3",
"0%	c #879EB1",
"a%	c #839096",
"b%	c #D7892F",
"c%	c #C79422",
"d%	c #6C9E48",
"e%	c #1E7920",
"f%	c #2F3E75",
"g%	c #2A3358",
"h%	c #5A6378",
"i%	c #BEBDBF",
"j%	c #FCF8F8",
"k%	c #B7C3D0",
"l%	c #7590A7",
"m%	c #BC925C",
"n%	c #CB9E25",
"o%	c #69BB32",
"p%	c #1F742A",
"q%	c #2D3A6A",
"r%	c #384265",
"s%	c #919394",
"t%	c #EFEBEC",
"u%	c #E2E4E9",
"v%	c #95A0A7",
"w%	c #ADB764",
"x%	c #79C650",
"y%	c #368151",
"z%	c #667BA6",
"A%	c #8A93A8",
"B%	c #CDCCCD",
"C%	c #E3E5EA",
"D%	c #E8E7E9",
"E%	c #E8E5E6",
"F%	c #EBEDE9",
"G%	c #EDEDEC",
"H%	c #E7E8F3",
"I%	c #F6F2F4",
". . . . . . . + + @ + # $ % & * = - ; > , ' # @ ) . . . . . . . ",
". . . . . @ + # ! ~ { ] ^ / ( _ : : < [ } | 1 2 3 + @ 4 . . . . ",
". . . 4 + 5 6 7 8 9 0 a b 0 c : : 0 : a a d e f g h i ) 4 . . . ",
". . + + , j k l m n o p q r s t u v w x y z 0 a A B C D + @ . . ",
". + # E F l G H I J K L M N O P Q R S T U V W X Y : Z `  .+ @ . ",
"+ + ..+.G @.#.$.%.&.*.=.-.;.>.>.,.'.).!.~.{.].^./.(._._ :.<.+ . ",
"+ [.}.m |.1.2.3.4.5.).6.7.8.9.0.a.b.c.d.).,.e.f.g.h.i.j.k.l.m.+ ",
"# n._.c o.p.q.r.>.s.t.u.v.w./ x.y.z.x.A.B.C.D.E.F.G.H.I.J.: K.+ ",
"L.M.N.O.P.Q.).R.S.T.U.V.W.X.Y.Z.`. +.+++@+#+$+%+&+*+=+-+;+: >+,+",
"L.'+)+!+~+{+]+T.: ^+/+(+_+:+<+[+}+|+1+2+3+4+5+6+7+8+9+0+a+G b+# ",
"c+d+e+f+g+h+d i+j+k+l+m+n+o+p+q+r+s+t+u+v+w+x+y+z+_ A+B+C+D+E+. ",
". F+G+H+d a I+J+K+L+M+N+O+P+Q+R+S+T+U+V+W+X+Y+Z+`+ @( : .@+@6 . ",
". @@#@$@%@&@*@K+Y+=@-@;@>@,@'@)@!@~@{@]@^@/@(@Y+_@:@<@[@}@|@. . ",
". . 1@2@3@4@Y+Y+5@6@7@p+8@9@0@p+a@b@c@d@e@f@g@h@i@_@j@k@l@m@. . ",
". .  .n@o@p@K+q@r@s@t@u@v@w@x@y@z@A@B@C@D@E@F@G@K+p@H@I@J@@ . . ",
". . + K@L@M@N@O@P@Q@R@S@T@U@V@W@X@Y@Z@`@ #.#+#@###$#%#&#*#. . . ",
". . . 6 =#-#;#>#,#'#)#!#~#{#]#^#/#(#_#:#<#[#}#|#1#2#3#4#. . . . ",
". . . @ 5#6#7#8#9#0#a#b#c#d#e#f#g#h#i#j#k#l#m#n#o#p#1 . . . . . ",
". . . . ,+q#r#s#t#u#v#w#x#y#z#A#B#C#D#E#F#G#H#I#J#K#. . . . . . ",
". . . . ) L#M#N#O#P#Q#R#S#T#U#p+V#W#X#Y#Z#`# $.$+$@$. . . . . . ",
". . . . 4 #$$$%$&$*$=$-$;$>$,$'$p+)$!$~${$]$^$/$($_$. . . . . . ",
". . . . + :$<$[$}$|$1$2$3$4$5$6$7$8$9$0$a$b$c$d$e$f$. . . . . . ",
". . . . . g$h$i$j$k$l$m$n$o$p$q$r$s$t$u$v$w$x$y$z$. . . . . . . ",
". . . . . + A$B$C$D$E$F$G$H$I$J$K$L$M$N$O$P$Q$R$+ . . . . . . . ",
". . . . . . S$T$U$V$W$X$Y$Z$`$ %.%+%@%#%$%%%&%+ . . . . . . + *%",
". . . . . . + =%-%;%>%,%'%)%!%~%{%]%^%/%(%_%*#. . . . . . . . :%",
". . . . . . 4 . 4 # <%[%}%|%1%2%3%4%5%6%7%8%4 . . . . . . . . . ",
". . . . . . . . . . 9%0%a%b%c%d%e%f%g%h%i%j%. . . . . . . . . . ",
". . . . . . . . . . . k%l%m%n%o%p%q%r%s%t%. . . . . . . . . . . ",
". . . . . . . . . . . u%0%v%w%x%y%z%A%B%. . . . . . . . . . . . ",
". . . . . . . . . . . + C%D%E%F%G%H%I%@ . . . . . . . . . . . . ",
". . . . . . . . . . . . . . . . . . . . . . . . . . . . . . . . "};
