/* XPM */
static char * filter_xpm[] = {
"32 32 287 2",
"  	c None",
". 	c #2B75A7",
"+ 	c #2674A8",
"@ 	c #1F73A9",
"# 	c #1D76AC",
"$ 	c #1A75AE",
"% 	c #1774B0",
"& 	c #1B79B5",
"* 	c #1D7DB9",
"= 	c #1D80BD",
"- 	c #1D83C0",
"; 	c #1F84C2",
"> 	c #2186C2",
", 	c #2588C3",
"' 	c #2A8BC4",
") 	c #328EC5",
"! 	c #3E93C7",
"~ 	c #4899CA",
"{ 	c #519FCC",
"] 	c #54A0CB",
"^ 	c #4F9AC6",
"/ 	c #4A94C0",
"( 	c #2871A4",
"_ 	c #19659F",
": 	c #1768A3",
"< 	c #166DA8",
"[ 	c #1270AC",
"} 	c #1073B0",
"| 	c #1176B4",
"1 	c #147AB8",
"2 	c #187DBD",
"3 	c #1B82C2",
"4 	c #1C87C7",
"5 	c #1C8ACB",
"6 	c #1D8CCC",
"7 	c #218ECD",
"8 	c #2692D0",
"9 	c #2F97D2",
"0 	c #3B9DD6",
"a 	c #4BA5DA",
"b 	c #5AAFE0",
"c 	c #69BBE7",
"d 	c #78CAF0",
"e 	c #81D2F6",
"f 	c #71C3EB",
"g 	c #51A1CF",
"h 	c #2771A4",
"i 	c #14629D",
"j 	c #025999",
"k 	c #005E9F",
"l 	c #0166A6",
"m 	c #006CAC",
"n 	c #0672B3",
"o 	c #0E79B9",
"p 	c #157EBE",
"q 	c #1983C5",
"r 	c #1B8ACA",
"s 	c #1C8ECF",
"t 	c #2090D0",
"u 	c #2493D2",
"v 	c #2A97D5",
"w 	c #339ED9",
"x 	c #42A6DE",
"y 	c #55B0E4",
"z 	c #65BBEC",
"A 	c #74C8F3",
"B 	c #81D3F8",
"C 	c #82D4F6",
"D 	c #6DBFE8",
"E 	c #4D9ECE",
"F 	c #2E79A8",
"G 	c #4F8EB8",
"H 	c #6BA0C5",
"I 	c #5090BC",
"J 	c #3E88B9",
"K 	c #3184B7",
"L 	c #2981B8",
"M 	c #257FB8",
"N 	c #227EBA",
"O 	c #2180BC",
"P 	c #1E82BF",
"Q 	c #1B83C1",
"R 	c #1C84C2",
"S 	c #1F86C3",
"T 	c #2388C4",
"U 	c #288BC6",
"V 	c #308EC7",
"W 	c #3B92C9",
"X 	c #4395CA",
"Y 	c #4898CB",
"Z 	c #4898C8",
"` 	c #3E8EBF",
" .	c #428EBB",
"..	c #3D86B2",
"+.	c #7FB5CF",
"@.	c #D1E9F4",
"#.	c #E5F2FB",
"$.	c #C5DEEE",
"%.	c #B1D2E7",
"&.	c #A0C7E2",
"*.	c #8FBEDD",
"=.	c #80B5D8",
"-.	c #72ABD3",
";.	c #619FCE",
">.	c #3F8FC6",
",.	c #1A7EBC",
"'.	c #1779B7",
").	c #1877B3",
"!.	c #1473AF",
"~.	c #136EAA",
"{.	c #1468A3",
"].	c #13619C",
"^.	c #115D98",
"/.	c #0B5995",
"(.	c #1D699F",
"_.	c #3D84AE",
":.	c #90C0D7",
"<.	c #E8F8FF",
"[.	c #EFFDFF",
"}.	c #E4F8FF",
"|.	c #DDF4FF",
"1.	c #D2EFFF",
"2.	c #C3E6FA",
"3.	c #B1D7F3",
"4.	c #9BC5EB",
"5.	c #6BABDE",
"6.	c #268BCB",
"7.	c #1580C0",
"8.	c #157CBA",
"9.	c #0F75B3",
"0.	c #0D6EAC",
"a.	c #1168A5",
"b.	c #14649E",
"c.	c #125F9A",
"d.	c #19659E",
"e.	c #3981AE",
"f.	c #4C92B7",
"g.	c #A7D0E3",
"h.	c #EAFBFF",
"i.	c #DDF3FE",
"j.	c #D3EEFD",
"k.	c #C9E9FB",
"l.	c #BBE0F7",
"m.	c #A9D2F0",
"n.	c #93C1E8",
"o.	c #71ACDE",
"p.	c #3890CD",
"q.	c #1881C1",
"r.	c #147CBA",
"s.	c #1076B3",
"t.	c #0E70AD",
"u.	c #136AA7",
"v.	c #1565A0",
"w.	c #13609C",
"x.	c #317BAB",
"y.	c #6BA8C6",
"z.	c #C0E1F0",
"A.	c #E5F7FF",
"B.	c #D1ECFC",
"C.	c #C7E7FA",
"D.	c #B9DFF6",
"E.	c #A7D1EF",
"F.	c #8FC0E7",
"G.	c #72ACDD",
"H.	c #4594CE",
"I.	c #1C82C1",
"J.	c #137BBA",
"K.	c #0F70AD",
"L.	c #11619E",
"M.	c #2570A5",
"N.	c #438AB4",
"O.	c #88BBD5",
"P.	c #D5EEFB",
"Q.	c #D8F0FF",
"R.	c #C6E7FA",
"S.	c #8FBFE7",
"T.	c #72ACDE",
"U.	c #4A95CF",
"V.	c #2183C2",
"W.	c #0F76B3",
"X.	c #0F67A5",
"Y.	c #1D6BA4",
"Z.	c #3D85B0",
"`.	c #4A91B6",
" +	c #A1CDE3",
".+	c #DBF3FF",
"++	c #C8E8FB",
"@+	c #B8DFF6",
"#+	c #4B96CF",
"$+	c #2785C2",
"%+	c #147BBA",
"&+	c #0D6FAC",
"*+	c #1068A5",
"=+	c #317CAD",
"-+	c #4D92B7",
";+	c #69A7C6",
">+	c #B5DBEE",
",+	c #B7DEF5",
"'+	c #71ACDD",
")+	c #4C96CF",
"!+	c #2A86C3",
"~+	c #096BAB",
"{+	c #2478AE",
"]+	c #468EB5",
"^+	c #83B9D4",
"/+	c #C2E6F7",
"(+	c #BFE3F9",
"_+	c #A6D0EF",
":+	c #4D96D0",
"<+	c #2C86C3",
"[+	c #0A72B2",
"}+	c #1776B0",
"|+	c #3B89B5",
"1+	c #4B91B5",
"2+	c #97C8E0",
"3+	c #C1E5FA",
"4+	c #A8D1F0",
"5+	c #70ACDD",
"6+	c #2E87C4",
"7+	c #127AB9",
"8+	c #0E75B4",
"9+	c #3086B6",
"0+	c #4E92B7",
"a+	c #67A6C5",
"b+	c #A2D0E9",
"c+	c #B0D7F4",
"d+	c #8DBEE6",
"e+	c #4E96D0",
"f+	c #2E87C3",
"g+	c #0E78B9",
"h+	c #2382B8",
"i+	c #4792B9",
"j+	c #79B3D1",
"k+	c #A1CEEB",
"l+	c #92C1E9",
"m+	c #70ABDD",
"n+	c #4E97D0",
"o+	c #2A86C4",
"p+	c #1F83BD",
"q+	c #3D8FBA",
"r+	c #4189B1",
"s+	c #8EC2DF",
"t+	c #99C8EC",
"u+	c #6DA9DC",
"v+	c #4B94CE",
"w+	c #2D85C2",
"x+	c #338ABB",
"y+	c #93C9E2",
"z+	c #9ACBED",
"A+	c #6AA6DB",
"B+	c #478FC9",
"C+	c #2E7FB8",
"D+	c #3A87B3",
"E+	c #95CBE4",
"F+	c #99CAED",
"G+	c #6AA5DA",
"H+	c #478EC9",
"I+	c #2D7DB6",
"J+	c #3986B2",
"K+	c #95CAE4",
"L+	c #2D7EB7",
"M+	c #96CBE4",
"N+	c #2D7EB6",
"O+	c #2C7DB6",
"P+	c #3987B2",
"Q+	c #3886B2",
"R+	c #99CAEE",
"S+	c #458DC9",
"T+	c #2B7CB5",
"U+	c #97CDE5",
"V+	c #9ACBEE",
"W+	c #68A4DA",
"X+	c #458DCA",
"Y+	c #3483B9",
"Z+	c #448FB7",
"`+	c #8FC6E0",
" @	c #6CA7DC",
".@	c #5297CC",
"+@	c #4F97C0",
"@@	c #4991B5",
"#@	c #6CAACA",
"$@	c #86BEDF",
"%@	c #78B5DA",
"&@	c #599FC5",
"*@	c #4B93B6",
"=@	c #498FB6",
"-@	c #4C93B7",
"                                                                ",
"                                                                ",
"            . + @ # $ % & * = - ; > , ' ) ! ~ { ] ^ /           ",
"        ( _ : < [ } | 1 2 3 4 5 6 7 8 9 0 a b c d e f g         ",
"        h i j k l m n o p q r s t u v w x y z A B C D E         ",
"        F G H I J K L M N O P Q R S T U V W X Y Z `  ...        ",
"          +.@.#.$.%.&.*.=.-.;.>.,.'.).!.~.{.].^./.(._.          ",
"            :.<.[.}.|.1.2.3.4.5.6.7.8.9.0.a.b.c.d.e.            ",
"            f.g.h.i.j.k.l.m.n.o.p.q.r.s.t.u.v.w.x.f.            ",
"              y.z.A.B.C.D.E.F.G.H.I.J.s.K.u.L.M.N.              ",
"                O.P.Q.R.D.E.S.T.U.V.J.W.K.X.Y.Z.                ",
"                `. +.+++@+E.S.o.#+$+%+W.&+*+=+-+                ",
"                  ;+>+1.,+E.S.'+)+!+r.W.~+{+]+                  ",
"                    ^+/+(+_+F.'+:+<+8.[+}+|+                    ",
"                    1+2+3+4+S.5+:+6+7+8+9+0+                    ",
"                      a+b+c+d+5+e+f+g+h+i+                      ",
"                        j+k+l+m+n+o+p+q+                        ",
"                        r+s+t+u+v+w+x+1+                        ",
"                          y+z+A+B+C+D+                          ",
"                          E+F+G+H+I+J+                          ",
"                          K+F+A+H+L+J+                          ",
"                          M+F+A+H+L+J+                          ",
"                          M+F+A+H+L+J+                          ",
"                          K+F+A+H+N+J+                          ",
"                          K+F+A+H+O+P+                          ",
"                          K+F+A+H+I+P+                          ",
"                          E+F+A+H+O+Q+                          ",
"                          E+R+A+S+T+Q+                          ",
"                          U+V+W+X+Y+Z+                          ",
"                          `+F+ @.@+@@@                          ",
"                          #@$@%@&@*@                            ",
"                            =@-@                                "};
