/* XPM */
static char * proxyPaintTool_randscale_xpm[] = {
"32 32 494 2",
"  	c None",
". 	c #B5DEE0",
"+ 	c #A4CFD1",
"@ 	c #A1CACC",
"# 	c #A9D4D6",
"$ 	c #B3DDDF",
"% 	c #B0D6DF",
"& 	c #B5DDDF",
"* 	c #A3C7CF",
"= 	c #97BEC5",
"- 	c #9ABDCF",
"; 	c #A2C3D5",
"> 	c #AFCFE0",
", 	c #B7D9E8",
"' 	c #92AFC6",
") 	c #B9D9E2",
"! 	c #9EBDD3",
"~ 	c #98BAD7",
"{ 	c #9CBEDA",
"] 	c #A3C1DB",
"^ 	c #B0CEE2",
"/ 	c #8FABC2",
"( 	c #516C91",
"_ 	c #243E62",
": 	c #B3DBDE",
"< 	c #80CDA0",
"[ 	c #B4D5D8",
"} 	c #C4D7E6",
"| 	c #B7D0E2",
"1 	c #99B6D2",
"2 	c #496685",
"3 	c #24456D",
"4 	c #274774",
"5 	c #284361",
"6 	c #3D596A",
"7 	c #B4DDDF",
"8 	c #BBDEE3",
"9 	c #6FC4A4",
"0 	c #50A795",
"a 	c #3F758B",
"b 	c #3B8AA7",
"c 	c #8CBECD",
"d 	c #688AA8",
"e 	c #1F4070",
"f 	c #2D4F7D",
"g 	c #2A4967",
"h 	c #213852",
"i 	c #5C7B85",
"j 	c #A7DADD",
"k 	c #A9E2E7",
"l 	c #AEEFF4",
"m 	c #A8E6ED",
"n 	c #A1D4D3",
"o 	c #ADCBD1",
"p 	c #ADC7CE",
"q 	c #B6D6D9",
"r 	c #B7DDDE",
"s 	c #A8CEDD",
"t 	c #8AB6DF",
"u 	c #7CAADE",
"v 	c #77A4D6",
"w 	c #408DC5",
"x 	c #3C8BB6",
"y 	c #318BA5",
"z 	c #316C90",
"A 	c #2D4866",
"B 	c #2F507D",
"C 	c #2A4773",
"D 	c #233B5F",
"E 	c #4F6873",
"F 	c #9BC3C5",
"G 	c #A1D5D7",
"H 	c #79B9BD",
"I 	c #3E6B81",
"J 	c #88C8CB",
"K 	c #CAD7E5",
"L 	c #C1CBD5",
"M 	c #A3BBC1",
"N 	c #9BBDC7",
"O 	c #78A9DF",
"P 	c #5D8ABC",
"Q 	c #3D6495",
"R 	c #2B4A73",
"S 	c #2F81B9",
"T 	c #3F8EC0",
"U 	c #3D90A9",
"V 	c #347194",
"W 	c #2E4A6B",
"X 	c #305282",
"Y 	c #2A476F",
"Z 	c #253C5A",
"` 	c #22404C",
" .	c #82ABA9",
"..	c #7CA7AD",
"+.	c #2E6A6F",
"@.	c #25586B",
"#.	c #4AB1AB",
"$.	c #59C2A2",
"%.	c #93D2C3",
"&.	c #C1DCE7",
"*.	c #85C6D6",
"=.	c #2F5883",
"-.	c #224371",
";.	c #25466A",
">.	c #273B4C",
",.	c #2F78AA",
"'.	c #408FBF",
").	c #3B91A9",
"!.	c #346F92",
"~.	c #304A77",
"{.	c #2D4C7A",
"].	c #244067",
"^.	c #355067",
"/.	c #738CA2",
"(.	c #B1D0E4",
"_.	c #B5D4E5",
":.	c #97C0CD",
"<.	c #7EAFB5",
"[.	c #78AAC9",
"}.	c #B0D7DC",
"|.	c #59B7B3",
"1.	c #4CBC9D",
"2.	c #43C38C",
"3.	c #61CBA7",
"4.	c #56A2AF",
"5.	c #254E7D",
"6.	c #29496E",
"7.	c #2A5665",
"8.	c #253B46",
"9.	c #2C6E9E",
"0.	c #3A8EBF",
"a.	c #348CA5",
"b.	c #2C648B",
"c.	c #2F4A79",
"d.	c #203B64",
"e.	c #476794",
"f.	c #B2D2E6",
"g.	c #B3D4E8",
"h.	c #AECEDE",
"i.	c #9CBDDD",
"j.	c #8BB5D8",
"k.	c #98C7E1",
"l.	c #8BBBDA",
"m.	c #43687C",
"n.	c #ACD3D6",
"o.	c #B3DCDF",
"p.	c #B2DADD",
"q.	c #57B3B1",
"r.	c #4CBD9E",
"s.	c #4CC98E",
"t.	c #4B95BA",
"u.	c #3C86AF",
"v.	c #28527E",
"w.	c #29496C",
"x.	c #2B5465",
"y.	c #1F2F3D",
"z.	c #296996",
"A.	c #5F9ABD",
"B.	c #7EA9C1",
"C.	c #6E97B6",
"D.	c #496E9A",
"E.	c #284B77",
"F.	c #47648E",
"G.	c #B4CADD",
"H.	c #C1DBE5",
"I.	c #9ABEDB",
"J.	c #9AC1DB",
"K.	c #8DBEDC",
"L.	c #658AAB",
"M.	c #2D4363",
"N.	c #243B4C",
"O.	c #B1CCD5",
"P.	c #C0DADF",
"Q.	c #B7CED9",
"R.	c #56B4B0",
"S.	c #4CB1A9",
"T.	c #4DA9AB",
"U.	c #4F8EC6",
"V.	c #408AB1",
"W.	c #28466A",
"X.	c #335471",
"Y.	c #6189A6",
"Z.	c #9AC0D6",
"`.	c #AFCBDE",
" +	c #B2C1CE",
".+	c #B0CCDD",
"++	c #ACC9DA",
"@+	c #9AB9CC",
"#+	c #4D6E99",
"$+	c #3C5C89",
"%+	c #708CB2",
"&+	c #B4CADB",
"*+	c #70A1C0",
"=+	c #2F4465",
"-+	c #22354F",
";+	c #213143",
">+	c #253342",
",+	c #65B6A4",
"'+	c #58BE84",
")+	c #73A9C1",
"!+	c #55B6AF",
"~+	c #4CB4A2",
"{+	c #4D90BE",
"]+	c #4D89C6",
"^+	c #367CA0",
"/+	c #29517B",
"(+	c #1B3450",
"_+	c #6E8FA8",
":+	c #D4E7EF",
"<+	c #BFD3DF",
"[+	c #A9BED2",
"}+	c #A6C0D3",
"|+	c #AFD0E3",
"1+	c #B4D0DF",
"2+	c #A6B6C3",
"3+	c #5F6F86",
"4+	c #405F84",
"5+	c #3E5C87",
"6+	c #40699D",
"7+	c #427D90",
"8+	c #364E60",
"9+	c #293C4D",
"0+	c #24313E",
"a+	c #253341",
"b+	c #4DB8AB",
"c+	c #41A07F",
"d+	c #337FA6",
"e+	c #4CB1AA",
"f+	c #4DAEA5",
"g+	c #4D85CA",
"h+	c #4C87C2",
"i+	c #318097",
"j+	c #2A5379",
"k+	c #20364D",
"l+	c #2B638E",
"m+	c #477BA2",
"n+	c #81ADCA",
"o+	c #B2CBDE",
"p+	c #B7CDDD",
"q+	c #91A0B2",
"r+	c #5F687E",
"s+	c #334363",
"t+	c #212F3E",
"u+	c #436185",
"v+	c #456186",
"w+	c #3F689A",
"x+	c #4A6973",
"y+	c #365064",
"z+	c #243349",
"A+	c #24323F",
"B+	c #51B8AF",
"C+	c #42869E",
"D+	c #397FA0",
"E+	c #48ADA9",
"F+	c #4D91C0",
"G+	c #4D8AC4",
"H+	c #2F6393",
"I+	c #33859C",
"J+	c #264C69",
"K+	c #1E344E",
"L+	c #27608B",
"M+	c #2775AD",
"N+	c #1E74A2",
"O+	c #3DA18A",
"P+	c #356BA0",
"Q+	c #2D466D",
"R+	c #2C4D7B",
"S+	c #2D486B",
"T+	c #24303C",
"U+	c #446288",
"V+	c #426396",
"W+	c #4B656E",
"X+	c #233244",
"Y+	c #243240",
"Z+	c #253241",
"`+	c #52BBB1",
" @	c #3D8196",
".@	c #27496B",
"+@	c #559F9D",
"@@	c #488BC5",
"#@	c #4B89C2",
"$@	c #2C5F8F",
"%@	c #30869C",
"&@	c #1C4760",
"*@	c #2F455C",
"=@	c #437BA1",
"-@	c #2374AD",
";@	c #2472AA",
">@	c #305E86",
",@	c #25688F",
"'@	c #394A66",
")@	c #425479",
"!@	c #2A486F",
"~@	c #1F2C3B",
"{@	c #39587D",
"]@	c #415F85",
"^@	c #406291",
"/@	c #4F6A72",
"(@	c #375265",
"_@	c #253651",
":@	c #253442",
"<@	c #31536C",
"[@	c #7994A8",
"}@	c #BCD2DD",
"|@	c #80ABCF",
"1@	c #5690C8",
"2@	c #295677",
"3@	c #5C8FA6",
"4@	c #7E99A1",
"5@	c #BBBFC3",
"6@	c #91AFC4",
"7@	c #6E9FC2",
"8@	c #518FBA",
"9@	c #2F5786",
"0@	c #28618C",
"a@	c #334D75",
"b@	c #3B5682",
"c@	c #3C4C68",
"d@	c #445772",
"e@	c #97A9C3",
"f@	c #69819F",
"g@	c #506E98",
"h@	c #516C74",
"i@	c #354E65",
"j@	c #283E60",
"k@	c #263543",
"l@	c #B4CBD3",
"m@	c #BED5E3",
"n@	c #B3CBDA",
"o@	c #C2D8E3",
"p@	c #ACC3D7",
"q@	c #26574A",
"r@	c #A5CFD1",
"s@	c #CBD7DF",
"t@	c #B8C2C9",
"u@	c #9CB3C3",
"v@	c #7CAACA",
"w@	c #5791B6",
"x@	c #2F517D",
"y@	c #295C88",
"z@	c #325182",
"A@	c #3D567E",
"B@	c #8D9EB6",
"C@	c #A5BAD9",
"D@	c #9AB1D7",
"E@	c #AEBDD7",
"F@	c #7F93B0",
"G@	c #506B71",
"H@	c #354D65",
"I@	c #273E5C",
"J@	c #253340",
"K@	c #A4D8C6",
"L@	c #C0E3D5",
"M@	c #BFDDDF",
"N@	c #6F869E",
"O@	c #3F5873",
"P@	c #2E5A5C",
"Q@	c #4CBBAE",
"R@	c #75BEA4",
"S@	c #9CAABB",
"T@	c #5187A5",
"U@	c #4C85B0",
"V@	c #273D57",
"W@	c #32527D",
"X@	c #2D577E",
"Y@	c #2C4C7A",
"Z@	c #30496D",
"`@	c #5274A5",
" #	c #607FAF",
".#	c #7995B3",
"+#	c #4C6486",
"@#	c #233F5B",
"##	c #45606D",
"$#	c #344A65",
"%#	c #263852",
"&#	c #25323F",
"*#	c #58B5A7",
"=#	c #84C5A8",
"-#	c #648E8A",
";#	c #39576E",
">#	c #283747",
",#	c #336264",
"'#	c #50BCB3",
")#	c #7AA1B0",
"!#	c #3A7996",
"~#	c #1F4466",
"{#	c #2F5173",
"]#	c #26364A",
"^#	c #32537D",
"/#	c #315784",
"(#	c #2A4666",
"_#	c #2F486C",
":#	c #607EA5",
"<#	c #5A759C",
"[#	c #3E7695",
"}#	c #274760",
"|#	c #294461",
"1#	c #3F5A6A",
"2#	c #31495A",
"3#	c #263D57",
"4#	c #253240",
"5#	c #5FB9AC",
"6#	c #81C2A6",
"7#	c #5E8B7E",
"8#	c #446177",
"9#	c #25303F",
"0#	c #2E585B",
"a#	c #58BBB1",
"b#	c #6A8DA3",
"c#	c #3A809E",
"d#	c #264A6C",
"e#	c #2B4A6C",
"f#	c #263647",
"g#	c #345680",
"h#	c #345C8C",
"i#	c #2B4666",
"j#	c #2F496F",
"k#	c #5D7BA2",
"l#	c #607DA1",
"m#	c #477094",
"n#	c #29495E",
"o#	c #29435B",
"p#	c #2A3D4F",
"q#	c #2A4459",
"r#	c #25384B",
"s#	c #273A4E",
"t#	c #5EBAAE",
"u#	c #80C1A5",
"v#	c #5E8A7E",
"w#	c #406174",
"x#	c #222F3C",
"y#	c #315B60",
"z#	c #51C193",
"A#	c #517E8E",
"B#	c #397694",
"C#	c #274B6B",
"D#	c #2C4B6C",
"E#	c #355F95",
"F#	c #366096",
"G#	c #29425E",
"H#	c #2F486D",
"I#	c #5E7CA1",
"J#	c #5B799F",
"K#	c #3C6592",
"L#	c #2A4A60",
"M#	c #273A4A",
"N#	c #253445",
"O#	c #273A4D",
"P#	c #263645",
"Q#	c #27394C",
"R#	c #57A39A",
"S#	c #77BAA2",
"T#	c #5D8B7E",
"U#	c #2A515C",
"V#	c #253540",
"W#	c #3F8285",
"X#	c #4DCD83",
"Y#	c #3F787C",
"Z#	c #375A7B",
"`#	c #264868",
" $	c #2B496C",
".$	c #232E3A",
"+$	c #355E92",
"@$	c #355E93",
"#$	c #294360",
"$$	c #5979A1",
"%$	c #39649C",
"&$	c #335D91",
"*$	c #2B475D",
"=$	c #253742",
"-$	c #294057",
";$	c #2B4864",
">$	c #3B8183",
",$	c #5A8D7F",
"'$	c #35615E",
")$	c #2E4F51",
"!$	c #5A9997",
"~$	c #3E6F7F",
"{$	c #375B7B",
"]$	c #264764",
"^$	c #284863",
"/$	c #293F52",
"($	c #3864A0",
"_$	c #294365",
":$	c #3F699F",
"<$	c #36629D",
"[$	c #356095",
"}$	c #293F54",
"|$	c #243342",
"1$	c #4E7294",
"2$	c #426888",
"3$	c #3B5F7D",
"4$	c #4D708A",
"5$	c #253546",
"                                                                ",
"                                                                ",
"                                                                ",
"                                                                ",
"                              . + @ # $ %                       ",
"                          $ & * = - ; > , '                     ",
"                          ) ! ~ { ] ^ / ( _                     ",
"                  :       < [ } | 1 2 3 4 5 6                   ",
"              7 : : & 8 9 0 a b c d e f g h i j k l m           ",
"          n o p q r s t u v w x y z A B C D E F G H I           ",
"          J K L M N O P Q R S T U V W X Y Z `  ...+.@.          ",
"          #.$.%.&.*.=.-.;.>.,.'.).!.~.{.].^./.(._.:.<.[.        ",
"        }.|.1.2.3.4.5.6.7.8.9.0.a.b.c.d.e.f.g.h.i.j.k.l.m.      ",
"    n.o.p.q.r.s.t.u.v.w.x.y.z.A.B.C.D.E.F.G.H.I.J.K.L.M.N.      ",
"    O.P.Q.R.S.T.U.V.v.W.X.Y.Z.`. +.+++@+#+$+%+&+*+=+-+;+>+      ",
"    ,+'+)+!+~+{+]+^+/+(+_+:+<+[+}+|+1+2+3+4+5+6+7+8+9+0+a+      ",
"    b+c+d+e+f+g+h+i+j+k+l+m+n+o+p+q+r+s+t+u+v+w+x+y+z+A+a+      ",
"    B+C+D+E+F+G+H+I+J+K+L+M+N+O+P+Q+R+S+T+u+U+V+W+y+X+Y+Z+      ",
"    `+ @.@+@@@#@$@%@&@*@=@-@;@>@,@'@)@!@~@{@]@^@/@(@_@Y+:@      ",
"      <@[@}@|@1@2@3@4@5@6@7@8@9@0@a@b@c@d@e@f@g@h@i@j@>+k@      ",
"      l@m@n@o@p@q@r@s@t@u@v@w@x@y@z@A@B@C@D@E@F@G@H@I@J@Y+      ",
"      K@L@M@N@O@P@Q@R@S@T@U@V@W@X@Y@Z@`@ #.#+#@###$#%#&#Y+      ",
"      *#=#-#;#>#,#'#)#!#~#{#]#^#/#(#_#:#<#[#}#|#1#2#3#4#a+      ",
"      5#6#7#8#9#0#a#b#c#d#e#f#g#h#i#j#k#l#m#n#o#p#q#r#T+s#      ",
"      t#u#v#w#x#y#z#A#B#C#D#T+E#F#G#H#I#J#K#L#M#N#O#P#Q#        ",
"      R#S#T#U#V#W#X#Y#Z#`# $.$+$@$#$Z@$$%$&$*$=$0+-$;$          ",
"        >$,$'$)$  !$~${$]$^$/$  ($_$  :$<$[$}$|$                ",
"                    1$2$3$4$                5$                  ",
"                                                                ",
"                                                                ",
"                                                                ",
"                                                                "};
