/* XPM */
static char * randommove_xpm[] = {
"32 32 134 2",
"  	c None",
". 	c #28CEC4",
"+ 	c #29D9D3",
"@ 	c #2BD9D3",
"# 	c #22AFAA",
"$ 	c #25C7C1",
"% 	c #29D3CD",
"& 	c #2CD8D2",
"* 	c #29D9CF",
"= 	c #24B7B2",
"- 	c #27D2CC",
"; 	c #29CFCA",
"> 	c #26CEC8",
", 	c #26CBC1",
"' 	c #27C2BD",
") 	c #22B8AF",
"! 	c #28D0C6",
"~ 	c #28CEC8",
"{ 	c #2AD6D0",
"] 	c #28D8D2",
"^ 	c #28D7D1",
"/ 	c #23BBB3",
"( 	c #27D3CD",
"_ 	c #2AD8CE",
": 	c #2AD0CA",
"< 	c #1FA79F",
"[ 	c #27D1CB",
"} 	c #2BD6D0",
"| 	c #25C5C0",
"1 	c #28D4CE",
"2 	c #28D5CB",
"3 	c #23B5B0",
"4 	c #28D6D0",
"5 	c #2AD7D1",
"6 	c #1FA7A0",
"7 	c #26CDC7",
"8 	c #27C9C0",
"9 	c #25C8C3",
"0 	c #27C6C1",
"a 	c #27CFC9",
"b 	c #28D5CF",
"c 	c #1A8E87",
"d 	c #28D4CF",
"e 	c #2AD8D2",
"f 	c #29D3CE",
"g 	c #25C7C2",
"h 	c #29CCC6",
"i 	c #29D6CC",
"j 	c #29D6D0",
"k 	c #1A8380",
"l 	c #115855",
"m 	c #0F514E",
"n 	c #0E4F4C",
"o 	c #146563",
"p 	c #1E9A95",
"q 	c #28D3CE",
"r 	c #20A5A1",
"s 	c #062221",
"t 	c #2AD5CF",
"u 	c #1D9490",
"v 	c #126360",
"w 	c #10514F",
"x 	c #105553",
"y 	c #0D4542",
"z 	c #1A8581",
"A 	c #29D2CC",
"B 	c #146F69",
"C 	c #198682",
"D 	c #29CCC7",
"E 	c #25BEB6",
"F 	c #06201F",
"G 	c #29D5CB",
"H 	c #29D0CA",
"I 	c #125A58",
"J 	c #115A58",
"K 	c #0D4442",
"L 	c #29CFC9",
"M 	c #0F5250",
"N 	c #26BEB8",
"O 	c #105451",
"P 	c #29D1CB",
"Q 	c #0F5351",
"R 	c #0F514F",
"S 	c #28D8CE",
"T 	c #2BD7D1",
"U 	c #125C5A",
"V 	c #22B6B1",
"W 	c #156C69",
"X 	c #26C4BE",
"Y 	c #24B9B4",
"Z 	c #28D7CD",
"` 	c #18807A",
" .	c #27CBC5",
"..	c #25BDB8",
"+.	c #29D2CD",
"@.	c #24BCB3",
"#.	c #29CDC8",
"$.	c #19847D",
"%.	c #27CEC5",
"&.	c #2BD4CE",
"*.	c #23BDB4",
"=.	c #24B9B0",
"-.	c #23BBB6",
";.	c #23BCB7",
">.	c #26C1BB",
",.	c #2AD4CE",
"'.	c #27C7C2",
").	c #29D3C9",
"!.	c #187976",
"~.	c #28CFC5",
"{.	c #20A9A5",
"].	c #136661",
"^.	c #2BD5CF",
"/.	c #24BAB5",
"(.	c #105552",
"_.	c #1D9B97",
":.	c #146663",
"<.	c #28D1C7",
"[.	c #27C5BF",
"}.	c #26C4BF",
"|.	c #25BEB9",
"1.	c #21A4A0",
"2.	c #177572",
"3.	c #072928",
"4.	c #1C8E8A",
"5.	c #20A4A0",
"6.	c #21ACA4",
"7.	c #22AAA6",
"8.	c #25BAB4",
"9.	c #0E4C4A",
"0.	c #1C8B87",
"a.	c #20AAA2",
"b.	c #1F9E9A",
"c.	c #1B8884",
"                                                                ",
"                                                                ",
"                                                                ",
"                                                                ",
"                                                                ",
"                                                  .             ",
"                                                  + @ #         ",
"                                                $ % & * =       ",
"- ; > > , ' )                       ! ~ { @ + + & ] ^ + @ /     ",
"( _ & & @ + @ : <                 [ @ @ @ @ + + & & @ } @ @ |   ",
"1 @ & & * } 2 + @ 3           ^ @ + 4 5 @ + + + & & ] ^ + @ 6   ",
"7 8 9 0 a + @ b * @ c       d + @ 4 e + f g g g h i j * + k     ",
"  l m n o p q e + r s     b @ + ] + t u v w x y z A @ 5 B       ",
"            C D E F     G @ @ + @ H I             + 1 J         ",
"                K       _ @ ] + L M               N O           ",
"                      + @ { + P Q                               ",
"                    + + i + [ R                                 ",
"                  + * S @ T U                     V             ",
"                4 * ] @ + W       X               & Y           ",
"            b 5 + Z @ @ `        .+ ..            +.& @.        ",
"          #.+ e { _ @ $.      %.+ ^ _ &.*.=.-.;.>.,.e & '.      ",
"S ).1 ,.@ & @ &.@ @ !.        A @ 1 ^ _ & + _ + & + } + @ ~.{.  ",
"* @ + + @ } 5 @ { ].            -.@ e ^.e + + + & + ] ] e + [   ",
"* @ + + @ + e /.(.                _.,.@ + @ * + + @ ] ] + X :.  ",
"<.[.}.0 |.1.2.3.                      4.5.6.# 7.8.{ + @ /.9.    ",
"                                                0.S + a.        ",
"                                                  @ b.          ",
"                                                  c.            ",
"                                                                ",
"                                                                ",
"                                                                ",
"                                                                "};
