/* XPM */
static char * randomrotate_xpm[] = {
"32 32 178 2",
"  	c None",
". 	c #D10C10",
"+ 	c #D00C10",
"@ 	c #0997CF",
"# 	c #0997CD",
"$ 	c #0997D0",
"% 	c #0896D2",
"& 	c #D00B0F",
"* 	c #D20B0F",
"= 	c #D00D11",
"- 	c #D30A0F",
"; 	c #E00102",
"> 	c #A6283A",
", 	c #029ECE",
"' 	c #0998CC",
") 	c #0896D3",
"! 	c #0D97BF",
"~ 	c #D00B10",
"{ 	c #D90609",
"] 	c #D90807",
"^ 	c #893E55",
"/ 	c #2384B8",
"( 	c #039AD7",
"_ 	c #0996D1",
": 	c #0997D2",
"< 	c #0C9ABA",
"[ 	c #D20B10",
"} 	c #D10B0F",
"| 	c #DD0304",
"1 	c #CA1118",
"2 	c #566385",
"3 	c #009DD9",
"4 	c #009DDB",
"5 	c #0599D5",
"6 	c #009CDB",
"7 	c #0699D3",
"8 	c #0997D1",
"9 	c #D10B10",
"0 	c #D20C10",
"a 	c #B2222E",
"b 	c #3C74A0",
"c 	c #00A0DF",
"d 	c #0A95D0",
"e 	c #0897D2",
"f 	c #009EDC",
"g 	c #019CD9",
"h 	c #1E8AB8",
"i 	c #0C98C0",
"j 	c #0897D0",
"k 	c #009EDB",
"l 	c #009DDA",
"m 	c #0798D3",
"n 	c #00A2E2",
"o 	c #2087BD",
"p 	c #884054",
"q 	c #D40B0A",
"r 	c #079ACD",
"s 	c #0997CC",
"t 	c #D30B0E",
"u 	c #1C8BBB",
"v 	c #00A2E0",
"w 	c #029BD8",
"x 	c #0699D5",
"y 	c #039AD8",
"z 	c #4D688C",
"A 	c #B1232F",
"B 	c #CE0F15",
"C 	c #E30000",
"D 	c #E00101",
"E 	c #546486",
"F 	c #0A96D0",
"G 	c #0A99C7",
"H 	c #DA0608",
"I 	c #675577",
"J 	c #00ACF0",
"K 	c #436F9B",
"L 	c #4F668E",
"M 	c #009ED9",
"N 	c #665774",
"O 	c #E10200",
"P 	c #CA1115",
"Q 	c #417399",
"R 	c #A52B3C",
"S 	c #C2191B",
"T 	c #1B8CBA",
"U 	c #0A99C6",
"V 	c #D7070A",
"W 	c #C6141B",
"X 	c #50678F",
"Y 	c #CE0F14",
"Z 	c #7A4864",
"` 	c #EC0000",
" .	c #BE1A21",
"..	c #188FBE",
"+.	c #158FC7",
"@.	c #307CAB",
"#.	c #039AD6",
"$.	c #0996D2",
"%.	c #D30B0F",
"&.	c #D6090C",
"*.	c #D90709",
"=.	c #E20000",
"-.	c #8D3B51",
";.	c #A32D3A",
">.	c #1B8BBC",
",.	c #009DDC",
"'.	c #009CD9",
").	c #0897D3",
"!.	c #0798D1",
"~.	c #D7080A",
"{.	c #D40A0D",
"].	c #D20B0E",
"^.	c #D10B0E",
"/.	c #0C96CA",
"(.	c #0897D1",
"_.	c #069BD0",
":.	c #6E526E",
"<.	c #D90608",
"[.	c #D4090D",
"}.	c #D20C0F",
"|.	c #0898CD",
"1.	c #2981B3",
"2.	c #A92835",
"3.	c #059BCC",
"4.	c #059AD7",
"5.	c #AA2837",
"6.	c #DF0203",
"7.	c #0898D0",
"8.	c #0A96D1",
"9.	c #0797D3",
"0.	c #00A0DE",
"a.	c #586085",
"b.	c #E80000",
"c.	c #009EDA",
"d.	c #2783B6",
"e.	c #B71F2A",
"f.	c #0698D4",
"g.	c #009EDD",
"h.	c #1290C9",
"i.	c #94374C",
"j.	c #019DD5",
"k.	c #2980B3",
"l.	c #BC1B26",
"m.	c #E10100",
"n.	c #D6080B",
"o.	c #0B95CE",
"p.	c #0999CE",
"q.	c #0999CC",
"r.	c #2D81A9",
"s.	c #B2232C",
"t.	c #DB0406",
"u.	c #0799D1",
"v.	c #1F88BD",
"w.	c #426F9A",
"x.	c #466C96",
"y.	c #5E5C80",
"z.	c #B51E28",
"A.	c #D60709",
"B.	c #CF0B10",
"C.	c #CF0C10",
"D.	c #0A99C5",
"E.	c #BE1A1F",
"F.	c #CB1116",
"G.	c #C4161C",
"H.	c #CA1117",
"I.	c #D30A0E",
"J.	c #0999C7",
"K.	c #00A5DE",
"L.	c #DE0203",
"M.	c #D40A0E",
"N.	c #0998CB",
"O.	c #0997CE",
"P.	c #0998CD",
"Q.	c #0A99C9",
"R.	c #0898CF",
"S.	c #CF0C11",
"T.	c #0A99CA",
"U.	c #0A99C8",
"                                                                ",
"                                                                ",
"                                                                ",
"                      . +           @ # $ %                     ",
"                +   & * = - ; > , ' % % ) @ !   #               ",
"              . .   ~ = { ] ^ / ( _ % : % @ <   $ %             ",
"            . [ *   } | 1 2 3 4 _ _ _ 5 6 7     @ % 8           ",
"          9 0 0 +     a b c _ d _ e f g h     i j % % 8         ",
"          . [ 0 .     k l m _ _ e n o p q     r ) 8 % s         ",
"          [ . . t = u v w x _ e y z A B C D E f F 8 ) G         ",
"          . [ . . H I J K L f M N O P Q R S T y _ 8 ) U         ",
"          . . * . V W X Y Z l     `  ...+.@.#.e e $.#           ",
"            %.. * . &.*.=.-.        ;.>.,.'.% _ _ ).!.          ",
"            ~.{.. . * ].0 ^.          /.).(._ _ e $ _.          ",
"            :.<.[.. . . }.~           |.$.8 e e 4 1.2.          ",
"          3.4.5.6.* 0 . [ 9           7._ 8._ 9.0.a.b.          ",
"          c.d.e.| * . [ [ ~           ).% _ 8.f.g.h.i.<.        ",
"        j.k.l.m.n.= * . [ 9           8 8 (.e o.p.q.r.s.t.      ",
"        u.v.w.x.y.z.A.B.C.9           D.        E.F.G.H.I.      ",
"      J.$ f.4 4 K.                              L.<.{ M..       ",
"      N.(.% % O.                                  . * * . B.    ",
"      ' $ $ 8 P.      Q.                          . 9 . . C.    ",
"        N.G       R.# 8 e               9 . .         + .       ",
"              O.N.(.% % _ e           . 0 [ [ . ~               ",
"        # 8 O.8 ) $.8 8 e $._       0 0 0 9 . 0 0 0 . . ~       ",
"          % % 8 8 _ 8 % ) % 8     S.0 0 0 [ . 0 9 . 0 0         ",
"            8 ) % e ) 8 ' @           . . . 0 . 0 [ 9           ",
"              T.' _ U.                    9 + [ . +             ",
"                                                                ",
"                                                                ",
"                                                                ",
"                                                                "};
