/* XPM */
static char * Untitled_1_xpm[] = {
"48 48 429 2",
"  	c #FFFFFF",
". 	c #CAE0D7",
"+ 	c #D4E8E0",
"@ 	c #74A691",
"# 	c #95C5B2",
"$ 	c #FCFDFC",
"% 	c #3D8D6C",
"& 	c #5CD199",
"* 	c #FEFFFE",
"= 	c #D2E2DC",
"- 	c #268E63",
"; 	c #80CA8C",
"> 	c #CDFCE3",
", 	c #94B5AD",
"' 	c #249067",
") 	c #A4CF93",
"! 	c #A6F0B7",
"~ 	c #5C8786",
"{ 	c #23926A",
"] 	c #C3DA9C",
"^ 	c #94E396",
"/ 	c #F5FFFA",
"( 	c #E3EFEC",
"_ 	c #276962",
": 	c #23A06D",
"< 	c #C6D998",
"[ 	c #94E58F",
"} 	c #CFFDE6",
"| 	c #9EC5BC",
"1 	c #22645F",
"2 	c #24A16E",
"3 	c #81DD8E",
"4 	c #41F28F",
"5 	c #86FABF",
"6 	c #6B9D93",
"7 	c #22805B",
"8 	c #259869",
"9 	c #35E595",
"0 	c #2FE68C",
"a 	c #64F2AB",
"b 	c #BED6CE",
"c 	c #63A892",
"d 	c #36A380",
"e 	c #31CB88",
"f 	c #87DCB7",
"g 	c #EFFCF6",
"h 	c #D2E1E2",
"i 	c #36908E",
"j 	c #28D392",
"k 	c #C2FCDF",
"l 	c #FEFEFE",
"m 	c #C5D8D3",
"n 	c #2B8784",
"o 	c #25D08F",
"p 	c #D0E0DC",
"q 	c #2B8581",
"r 	c #24CA8E",
"s 	c #C4FCE0",
"t 	c #CCDDD7",
"u 	c #2A8582",
"v 	c #24C995",
"w 	c #CAF9E3",
"x 	c #C9DAD3",
"y 	c #2B8484",
"z 	c #26CD9E",
"A 	c #D6FAEA",
"B 	c #FFFFFE",
"C 	c #B5D0D1",
"D 	c #2B888C",
"E 	c #29D6A2",
"F 	c #D3FCE8",
"G 	c #AFCDCF",
"H 	c #2D8E8D",
"I 	c #25CF97",
"J 	c #C7FCE1",
"K 	c #ECEFDC",
"L 	c #B7D296",
"M 	c #9CDF98",
"N 	c #CBFAD4",
"O 	c #FFFEFE",
"P 	c #FFF8F8",
"Q 	c #FBFBF1",
"R 	c #DAD67F",
"S 	c #EAE45B",
"T 	c #EFEA72",
"U 	c #EBDB7A",
"V 	c #F17F66",
"W 	c #FF4047",
"X 	c #FF676F",
"Y 	c #FFF0F1",
"Z 	c #F3F2DC",
"` 	c #C2BD4A",
" .	c #F0E63F",
"..	c #ECDE3C",
"+.	c #E2BC43",
"@.	c #E48666",
"#.	c #F8B693",
"$.	c #FF2D38",
"%.	c #FFBEC1",
"&.	c #CEE5FD",
"*.	c #68B1F0",
"=.	c #4FB3E2",
"-.	c #78E2BE",
";.	c #C1C74E",
">.	c #DBCD3A",
",.	c #E9DD3A",
"'.	c #E9C83C",
").	c #F1433A",
"!.	c #FE3E34",
"~.	c #F43647",
"{.	c #EDC1C2",
"].	c #FCD9C5",
"^.	c #FFF9F5",
"/.	c #F8FBFF",
"(.	c #4F9FF8",
"_.	c #338EF6",
":.	c #31D8E7",
"<.	c #3CD4BC",
"[.	c #6FCB95",
"}.	c #C6BD3B",
"|.	c #E7DA36",
"1.	c #EBCB3A",
"2.	c #F04A2D",
"3.	c #E74847",
"4.	c #9D60CB",
"5.	c #BD76DC",
"6.	c #D282BC",
"7.	c #F3B197",
"8.	c #E9F2FE",
"9.	c #3185DF",
"0.	c #3F94F3",
"a.	c #3ACBE9",
"b.	c #40F1B9",
"c.	c #3DD5C6",
"d.	c #A5C45B",
"e.	c #DECE31",
"f.	c #EBCB41",
"g.	c #D6746E",
"h.	c #AA6FDB",
"i.	c #C571E1",
"j.	c #CD76DB",
"k.	c #CD7BA3",
"l.	c #DE889A",
"m.	c #FEF2EC",
"n.	c #4182BD",
"o.	c #206EB6",
"p.	c #3BA7F2",
"q.	c #43E4CD",
"r.	c #3BE3CE",
"s.	c #5BC294",
"t.	c #C4A827",
"u.	c #EFDB57",
"v.	c #B689CB",
"w.	c #C071E3",
"x.	c #C874D6",
"y.	c #B362C9",
"z.	c #A84ADA",
"A.	c #DA85A1",
"B.	c #EEF3F1",
"C.	c #F3FDFF",
"D.	c #BFD5EB",
"E.	c #2E6EAE",
"F.	c #3884CB",
"G.	c #3AB6F5",
"H.	c #37D7DD",
"I.	c #40CBBC",
"J.	c #9E943A",
"K.	c #CEB866",
"L.	c #C5AEDB",
"M.	c #AE73E2",
"N.	c #943AEA",
"O.	c #8E3AEE",
"P.	c #7483EA",
"Q.	c #9ED0E2",
"R.	c #AEDFE6",
"S.	c #83E5F5",
"T.	c #CEF6FD",
"U.	c #DCE1E9",
"V.	c #7492BD",
"W.	c #3780C2",
"X.	c #3BB4F3",
"Y.	c #3CCDC3",
"Z.	c #7CB368",
"`.	c #C2B79F",
" +	c #BA8FDB",
".+	c #9034EB",
"++	c #7E49F3",
"@+	c #4990E8",
"#+	c #79B8E3",
"$+	c #BADCE0",
"%+	c #8BC7E0",
"&+	c #50A1DB",
"*+	c #8BE4F8",
"=+	c #FBE3DA",
"-+	c #FCE7E0",
";+	c #FEF9F7",
">+	c #FEE7DA",
",+	c #F99D6B",
"'+	c #F48234",
")+	c #EB852A",
"!+	c #807374",
"~+	c #3A86CA",
"{+	c #38BCD3",
"]+	c #64E4B2",
"^+	c #C4B5D3",
"/+	c #9258D5",
"(+	c #6A68E4",
"_+	c #396DD4",
":+	c #3E88DB",
"<+	c #3CB2E5",
"[+	c #2B8CD2",
"}+	c #2484D0",
"|+	c #2C8DD3",
"1+	c #ACD7E9",
"2+	c #FFF9FA",
"3+	c #FEFDFD",
"4+	c #FFFDFD",
"5+	c #FFFEFD",
"6+	c #FEF8F5",
"7+	c #F18A58",
"8+	c #F5883A",
"9+	c #F6834E",
"0+	c #FEAA91",
"a+	c #FFE4DB",
"b+	c #FFF9F8",
"c+	c #F8F1F4",
"d+	c #D55B8B",
"e+	c #E72D6B",
"f+	c #F1266A",
"g+	c #E1354E",
"h+	c #D85E34",
"i+	c #7F756A",
"j+	c #3694C5",
"k+	c #80CDDF",
"l+	c #A280D3",
"m+	c #5765D8",
"n+	c #396BD2",
"o+	c #4184D5",
"p+	c #2A8CD3",
"q+	c #217FCE",
"r+	c #4474B6",
"s+	c #88638E",
"t+	c #D9536A",
"u+	c #F74356",
"v+	c #F74257",
"w+	c #F64859",
"x+	c #F26F66",
"y+	c #EF7A5E",
"z+	c #F08056",
"A+	c #F07852",
"B+	c #F56B50",
"C+	c #F27252",
"D+	c #EC7043",
"E+	c #F88632",
"F+	c #F0944B",
"G+	c #DAB179",
"H+	c #E29F70",
"I+	c #EFAA8B",
"J+	c #FDC4B2",
"K+	c #FFEAE4",
"L+	c #FFFBFA",
"M+	c #FBF6F8",
"N+	c #A9496C",
"O+	c #AB2059",
"P+	c #D31D6A",
"Q+	c #E11E70",
"R+	c #E61B6B",
"S+	c #D1414A",
"T+	c #4A749E",
"U+	c #6EADDB",
"V+	c #796FD2",
"W+	c #316AD0",
"X+	c #347FC9",
"Y+	c #6A5C8D",
"Z+	c #A04D5E",
"`+	c #CB4340",
" @	c #D84439",
".@	c #D64330",
"+@	c #D03927",
"@@	c #D23D2A",
"#@	c #D3442C",
"$@	c #D1422D",
"%@	c #D13E2E",
"&@	c #D1442E",
"*@	c #D14732",
"=@	c #E1433A",
"-@	c #DF432D",
";@	c #D4542C",
">@	c #E6603D",
",@	c #D8482F",
"'@	c #E74225",
")@	c #EA4425",
"!@	c #EA4F37",
"~@	c #DB745C",
"{@	c #E06453",
"]@	c #E44649",
"^@	c #EECCC9",
"/@	c #F3E6E6",
"(@	c #CE94A9",
"_@	c #B35F7D",
":@	c #B35A7A",
"<@	c #B8475F",
"[@	c #CF1F56",
"}@	c #C54B50",
"|@	c #7758BD",
"1@	c #515DCF",
"2@	c #336AD0",
"3@	c #AA9BB3",
"4@	c #C48B94",
"5@	c #C58E97",
"6@	c #C8929D",
"7@	c #C7909C",
"8@	c #C78F9B",
"9@	c #C58A95",
"0@	c #C38793",
"a@	c #C68D98",
"b@	c #CA919E",
"c@	c #D69BAD",
"d@	c #D187A0",
"e@	c #CD90A0",
"f@	c #C58996",
"g@	c #BA6B7A",
"h@	c #C9817D",
"i@	c #E04D37",
"j@	c #E62F2B",
"k@	c #E32D2A",
"l@	c #D92829",
"m@	c #BE2825",
"n@	c #A53930",
"o@	c #C07A70",
"p@	c #E9CDC8",
"q@	c #FEFDFC",
"r@	c #F0F7FD",
"s@	c #63A6DD",
"t@	c #71469B",
"u@	c #C91760",
"v@	c #784EC4",
"w@	c #365ECF",
"x@	c #7D9BE1",
"y@	c #F7E5E0",
"z@	c #C1482D",
"A@	c #A53B26",
"B@	c #933628",
"C@	c #AA6E67",
"D@	c #D9BBB9",
"E@	c #FCF8F7",
"F@	c #F3F8FD",
"G@	c #6BB1E9",
"H@	c #316FE2",
"I@	c #5759C9",
"J@	c #DB4C6E",
"K@	c #A092C7",
"L@	c #6C8CDC",
"M@	c #D5DEF5",
"N@	c #FEFCFC",
"O@	c #CC918A",
"P@	c #C59A96",
"Q@	c #F5EEEE",
"R@	c #FCFDFE",
"S@	c #81BDEC",
"T@	c #3174E8",
"U@	c #4156D7",
"V@	c #E6E7F8",
"W@	c #90C5EE",
"X@	c #3480E4",
"Y@	c #3648CE",
"Z@	c #D7D9F3",
"`@	c #B3D6F4",
" #	c #3684E4",
".#	c #2D44CD",
"+#	c #BCC6F3",
"@#	c #EDF3FB",
"##	c #F4F8FE",
"$#	c #D4E9F8",
"%#	c #3D91E7",
"&#	c #2A44CF",
"*#	c #9DAAEB",
"=#	c #FEFEFF",
"-#	c #9AADC5",
";#	c #2265C3",
">#	c #2273E5",
",#	c #2E7FE6",
"'#	c #2B4FCD",
")#	c #7D8DDA",
"!#	c #FCFDFF",
"~#	c #F2F6F8",
"{#	c #4383A5",
"]#	c #5BB0D8",
"^#	c #3082D6",
"/#	c #1A6FE1",
"(#	c #246AD3",
"_#	c #E6ECF5",
":#	c #9FB8CA",
"<#	c #4B9EBA",
"[#	c #60B4D7",
"}#	c #2E83CC",
"|#	c #1B6FE1",
"1#	c #196CE7",
"2#	c #D4E3FB",
"3#	c #F8F9FB",
"4#	c #4E85A7",
"5#	c #5FC0D6",
"6#	c #368BCB",
"7#	c #1E72DB",
"8#	c #1C57B9",
"9#	c #284FAA",
"0#	c #DAE3F9",
"a#	c #B9C8D9",
"b#	c #50AAC5",
"c#	c #3B95CB",
"d#	c #1E70D9",
"e#	c #1F4FAC",
"f#	c #394B97",
"g#	c #B8BAD8",
"h#	c #6BA9C7",
"i#	c #3D98CB",
"j#	c #2367C9",
"k#	c #274AA2",
"l#	c #8789BE",
"m#	c #EBE9F1",
"n#	c #D2E1EF",
"o#	c #2B77AD",
"p#	c #2955A9",
"q#	c #7182BA",
"r#	c #DBDCED",
"s#	c #8598C5",
"t#	c #597BB0",
"u#	c #CCD1E6",
"v#	c #F4F4FA",
"                                                                                                ",
"                                  . +                                                           ",
"                                  @ #                                                           ",
"                                $ % & *                                                         ",
"                                = - ; >                                                         ",
"                                , ' ) !                                                         ",
"                                ~ { ] ^ /                                                       ",
"                              ( _ : < [ }                                                       ",
"                              | 1 2 3 4 5                                                       ",
"                              6 7 8 9 0 a                                                       ",
"                              b c d e f g                                                       ",
"                                h i j k                                                         ",
"                              l m n o k                                                         ",
"                              l p q r s                                                         ",
"                                t u v w                                                         ",
"                                x y z A             B                                           ",
"                                C D E F                                                         ",
"                                G H I J                                                         ",
"                                K L M N O P O                                                   ",
"                              Q R S T U V W X Y                                                 ",
"                              Z `  ...+.@.#.$.%.                                                ",
"                        &.*.=.-.;.>.,.'.).!.~.{.].^.                                            ",
"                      /.(._.:.<.[.}.|.1.2.3.4.5.6.7.                                            ",
"                      8.9.0.a.b.c.d.e.f.g.h.i.j.k.l.m.                                          ",
"                        n.o.p.q.r.s.t.u.v.w.x.y.z.A.B.C.                                        ",
"                        D.E.F.G.H.I.J.K.L.M.N.O.P.Q.R.S.T.                                      ",
"                          U.V.W.X.Y.Z.`. +.+++@+#+$+%+&+*+                =+-+;+                ",
"                      >+,+'+)+!+~+{+]+^+/+(+_+:+<+[+}+|+1+2+l 3+4+5+  5+6+7+8+9+0+a+b+B         ",
"                    c+d+e+f+g+h+i+j+k+l+m+n+o+p+q+r+s+t+u+v+w+x+y+z+A+B+C+D+E+F+G+H+I+J+K+L+    ",
"                    M+N+O+P+Q+R+S+T+U+V+W+X+Y+Z+`+ @.@+@@@#@$@%@&@*@=@-@;@>@,@'@)@!@~@{@]@^@    ",
"                      /@(@_@:@<@[@}@|@1@2@3@4@5@6@7@8@9@0@a@b@c@d@e@f@g@h@i@j@k@l@m@n@o@p@q@  B ",
"                            r@s@t@u@v@w@x@                              y@z@A@B@C@D@E@          ",
"                          F@G@H@I@J@K@L@M@                              N@O@P@Q@                ",
"                        R@S@T@U@V@O                                                             ",
"                        W@X@Y@Z@                                                                ",
"                      `@ #.#+#                                                                  ",
"                @###$#%#&#*#=#                                                                  ",
"              -#;#>#,#'#)#!#                                                                    ",
"            ~#{#]#^#/#(#_#                                                                      ",
"            :#<#[#}#|#1#2#                                                                      ",
"          3#4#5#6#7#8#9#0#                                                                      ",
"          a#b#c#d#e#f#g#                                                                        ",
"        =#h#i#j#k#l#m#                                                                          ",
"        n#o#p#q#r#                                                                              ",
"        s#t#u#                                                                                  ",
"        v#=#                                                                                    ",
"                                                                                                ",
"                                                                                                "};
