/* XPM */
static char * down_xpm[] = {
"32 32 432 2",
"  	c None",
". 	c #FEFEFE",
"+ 	c #FDFDFD",
"@ 	c #FCFCFD",
"# 	c #FBFBFB",
"$ 	c #FFFFFF",
"% 	c #F3F4F4",
"& 	c #D9D9DB",
"* 	c #CBCCCE",
"= 	c #FCFCFC",
"- 	c #E4E6E7",
"; 	c #BDC0C4",
"> 	c #C1C3C6",
", 	c #FEFDFD",
"' 	c #FAFAFA",
") 	c #FEFEFD",
"! 	c #EAEBED",
"~ 	c #BEC1C7",
"{ 	c #BBBDC1",
"] 	c #CCCDCE",
"^ 	c #FDFCFC",
"/ 	c #FDFDFE",
"( 	c #F1F2F3",
"_ 	c #C6C8CD",
": 	c #B8BABF",
"< 	c #C8C9CA",
"[ 	c #F2F2F3",
"} 	c #C7CACF",
"| 	c #B9BBBF",
"1 	c #C1C2C3",
"2 	c #F2F2F2",
"3 	c #E1E1E2",
"4 	c #EBEBEB",
"5 	c #FEFDFE",
"6 	c #EEEEF0",
"7 	c #C5C8CD",
"8 	c #BABDC1",
"9 	c #BABBBC",
"0 	c #C3C4C6",
"a 	c #535559",
"b 	c #35373B",
"c 	c #8B8D8F",
"d 	c #F8F8F8",
"e 	c #EBEBED",
"f 	c #C4C6CB",
"g 	c #BDBEBF",
"h 	c #FEFEFC",
"i 	c #FBFCFC",
"j 	c #F9FAFA",
"k 	c #838488",
"l 	c #14161B",
"m 	c #191B1F",
"n 	c #7E7F82",
"o 	c #F9F9F9",
"p 	c #E9EBED",
"q 	c #C3C6CA",
"r 	c #C4C7CA",
"s 	c #CCCECF",
"t 	c #F2F4F9",
"u 	c #FDFDFC",
"v 	c #FEFDFC",
"w 	c #838586",
"x 	c #181819",
"y 	c #1A1A1B",
"z 	c #808183",
"A 	c #DFDFDF",
"B 	c #F0F0F0",
"C 	c #EBEDEE",
"D 	c #C9CBCC",
"E 	c #BDC3D1",
"F 	c #A3B6E2",
"G 	c #D3DBF0",
"H 	c #FFFFFD",
"I 	c #A6A6A6",
"J 	c #909090",
"K 	c #8C8C8C",
"L 	c #151515",
"M 	c #181817",
"N 	c #6F6F6F",
"O 	c #AFAFAF",
"P 	c #494949",
"Q 	c #636363",
"R 	c #D9D9D9",
"S 	c #FDFEFE",
"T 	c #FFFEFE",
"U 	c #F6F6F6",
"V 	c #D3D6DC",
"W 	c #9BABCE",
"X 	c #7593D6",
"Y 	c #95ABDE",
"Z 	c #E1E6F4",
"` 	c #B7B7B7",
" .	c #2D2D2E",
"..	c #202020",
"+.	c #929393",
"@.	c #7C7C7D",
"#.	c #1A1A1A",
"$.	c #1E1E1F",
"%.	c #494849",
"&.	c #4A4A4A",
"*.	c #141413",
"=.	c #171717",
"-.	c #A2A2A3",
";.	c #FFFFFE",
">.	c #E4EAF5",
",.	c #8696BC",
"'.	c #485A85",
").	c #43557E",
"!.	c #7392D6",
"~.	c #7391D5",
"{.	c #99AFDF",
"].	c #E4E9F4",
"^.	c #A8A8A8",
"/.	c #2C2C2C",
"(.	c #0A0A0A",
"_.	c #272728",
":.	c #3A3A3B",
"<.	c #212121",
"[.	c #232323",
"}.	c #262626",
"|.	c #191919",
"1.	c #1D1D1E",
"2.	c #818182",
"3.	c #EFEFF0",
"4.	c #F8FBFF",
"5.	c #9AACD7",
"6.	c #304476",
"7.	c #29334E",
"8.	c #323C56",
"9.	c #7693D6",
"0.	c #7190D7",
"a.	c #6C8ED9",
"b.	c #96ADE2",
"c.	c #E7EBF5",
"d.	c #BCBCBC",
"e.	c #4D4D4D",
"f.	c #0D0D0D",
"g.	c #252626",
"h.	c #1D1E1F",
"i.	c #151617",
"j.	c #7D7E7E",
"k.	c #BDCCED",
"l.	c #4E69AE",
"m.	c #32426F",
"n.	c #343D58",
"o.	c #323B54",
"p.	c #7592D7",
"q.	c #668ADC",
"r.	c #527EE1",
"s.	c #5680DF",
"t.	c #99B0E6",
"u.	c #EFF1F7",
"v.	c #E0DFDF",
"w.	c #555555",
"x.	c #121214",
"y.	c #1E2022",
"z.	c #202225",
"A.	c #1B1D21",
"B.	c #797A7C",
"C.	c #FEFDF9",
"D.	c #C3D1EE",
"E.	c #6386DC",
"F.	c #37539B",
"G.	c #3D4D76",
"H.	c #374261",
"I.	c #323A54",
"J.	c #688BDB",
"K.	c #567FE1",
"L.	c #4B78E5",
"M.	c #4877E6",
"N.	c #517CE7",
"O.	c #95AFEB",
"P.	c #F3F4F6",
"Q.	c #DDDDDD",
"R.	c #77797A",
"S.	c #282A2F",
"T.	c #828487",
"U.	c #F4F5F5",
"V.	c #FFFEFA",
"W.	c #B8C8E8",
"X.	c #6287E2",
"Y.	c #3F6BE1",
"Z.	c #3D579A",
"`.	c #404F76",
" +	c #374362",
".+	c #313A52",
"++	c #5F85DE",
"@+	c #4B76E4",
"#+	c #4572E6",
"$+	c #4370E6",
"%+	c #3A6BE9",
"&+	c #4A78E9",
"*+	c #94ADE7",
"=+	c #E3E7F4",
"-+	c #FDFDFF",
";+	c #D8D9DA",
">+	c #CFD0D1",
",+	c #FAFAFB",
"'+	c #FCFDFE",
")+	c #F2F3F7",
"!+	c #A6BAE7",
"~+	c #5780E2",
"{+	c #3B6CEC",
"]+	c #3C6AE3",
"^+	c #3F5899",
"/+	c #3F4D74",
"(+	c #3B4769",
"_+	c #384462",
":+	c #5D83DD",
"<+	c #4874E4",
"[+	c #4270E6",
"}+	c #426FE6",
"|+	c #3F6DE6",
"1+	c #3C6CE7",
"2+	c #4271E8",
"3+	c #6E92EA",
"4+	c #C3D3F5",
"5+	c #FFFFFC",
"6+	c #E3E9F3",
"7+	c #91ABE3",
"8+	c #4873DC",
"9+	c #3A69E4",
"0+	c #3D6CEB",
"a+	c #3F6BE0",
"b+	c #405997",
"c+	c #3E4C71",
"d+	c #42527F",
"e+	c #5D83DC",
"f+	c #4A75E3",
"g+	c #3F6DE7",
"h+	c #3D6CE7",
"i+	c #507EEE",
"j+	c #93B1F7",
"k+	c #D2E0FD",
"l+	c #EAEEF7",
"m+	c #ADBEEB",
"n+	c #6A8CE2",
"o+	c #406EE1",
"p+	c #3A6AE3",
"q+	c #3E6CE6",
"r+	c #406EEC",
"s+	c #406ADE",
"t+	c #405794",
"u+	c #3D4A6D",
"v+	c #42578F",
"w+	c #6588DB",
"x+	c #517BE2",
"y+	c #4673E7",
"z+	c #406EE6",
"A+	c #3F6DE5",
"B+	c #3A6AE7",
"C+	c #396CEC",
"D+	c #5280F1",
"E+	c #7A9DF2",
"F+	c #95B0F3",
"G+	c #A3B9F3",
"H+	c #A0B7F2",
"I+	c #86A3ED",
"J+	c #6287E7",
"K+	c #416EE3",
"L+	c #3868E6",
"M+	c #3D6BE7",
"N+	c #406CE5",
"O+	c #406CE4",
"P+	c #406DE7",
"Q+	c #4068D6",
"R+	c #40568D",
"S+	c #3D496C",
"T+	c #3F5695",
"U+	c #4B6FCC",
"V+	c #6C8DDB",
"W+	c #547DE2",
"X+	c #4472E7",
"Y+	c #416FE5",
"Z+	c #406EE5",
"`+	c #406DE4",
" @	c #416EE5",
".@	c #3B6AE6",
"+@	c #3466E6",
"@@	c #3668E7",
"#@	c #3B6BE7",
"$@	c #3A6AE6",
"%@	c #3465E5",
"&@	c #3666E5",
"*@	c #3E6CE5",
"=@	c #416DE5",
"-@	c #4169DB",
";@	c #4266CD",
">@	c #4169D8",
",@	c #4067CF",
"'@	c #415589",
")@	c #3C486A",
"!@	c #3D5696",
"~@	c #6589DE",
"{@	c #4C77E4",
"]@	c #3E6DE6",
"^@	c #406EE4",
"/@	c #3F6DE4",
"(@	c #3F6CE5",
"_@	c #3D6BE5",
":@	c #3B6AE5",
"<@	c #3C6BE5",
"[@	c #406BE1",
"}@	c #406BDD",
"|@	c #4169D7",
"1@	c #406BE0",
"2@	c #3F66CA",
"3@	c #405383",
"4@	c #3B4868",
"5@	c #3A4E80",
"6@	c #5C82E0",
"7@	c #4774E5",
"8@	c #406CE2",
"9@	c #406BE2",
"0@	c #3F6CE4",
"a@	c #3F6CE3",
"b@	c #406CE0",
"c@	c #406CE1",
"d@	c #3E6DE9",
"e@	c #3E62C0",
"f@	c #40527F",
"g@	c #3B4767",
"h@	c #374771",
"i@	c #5A81E0",
"j@	c #4673E5",
"k@	c #3E6DE5",
"l@	c #406DE5",
"m@	c #4368D4",
"n@	c #416AD7",
"o@	c #3F6CE7",
"p@	c #416AD9",
"q@	c #416ADD",
"r@	c #406CE7",
"s@	c #3F6CE6",
"t@	c #406DE6",
"u@	c #3E6DEA",
"v@	c #3F5DAA",
"w@	c #41517C",
"x@	c #384566",
"y@	c #384C7F",
"z@	c #6387DD",
"A@	c #4A75E4",
"B@	c #3C6CE6",
"C@	c #3F6BE5",
"D@	c #416ADB",
"E@	c #4368CF",
"F@	c #4269D2",
"G@	c #4269D4",
"H@	c #4369D0",
"I@	c #4369CF",
"J@	c #4369CE",
"K@	c #4467C8",
"L@	c #4466C8",
"M@	c #4368D0",
"N@	c #4369D4",
"O@	c #4369D3",
"P@	c #416BDB",
"Q@	c #416DE3",
"R@	c #416CE1",
"S@	c #3D62C7",
"T@	c #3D538C",
"U@	c #3E4B6F",
"V@	c #304069",
"W@	c #415CA0",
"X@	c #7291D7",
"Y@	c #587FDF",
"Z@	c #4473E5",
"`@	c #3D6AE6",
" #	c #3E6BE2",
".#	c #3F6BDE",
"+#	c #4167CF",
"@#	c #4466C2",
"##	c #4567C3",
"$#	c #4568C3",
"%#	c #4567C2",
"&#	c #4466C1",
"*#	c #4365BE",
"=#	c #4263BD",
"-#	c #4263BE",
";#	c #4263C0",
">#	c #4265C4",
",#	c #4163C1",
"'#	c #3956A3",
")#	c #33426F",
"!#	c #2E3A57",
"~#	c #31457C",
"{#	c #526FBA",
"]#	c #678BDB",
"^#	c #5C85E0",
"/#	c #517CE2",
"(#	c #4974E1",
"_#	c #436FE2",
":#	c #446FE1",
"<#	c #496FD1",
"[#	c #4364BC",
"}#	c #3C5CB3",
"|#	c #3B5BB2",
"1#	c #3A5AB1",
"2#	c #3755A9",
"3#	c #3552A2",
"4#	c #3754A3",
"5#	c #3551A0",
"6#	c #35519F",
"7#	c #35509D",
"8#	c #334E9A",
"9#	c #314B93",
"0#	c #364D8B",
"a#	c #435B9A",
"b#	c #5675C1",
"c#	c #7896D6",
"d#	c #7996D5",
"e#	c #7090D9",
"f#	c #6C8DD8",
"g#	c #6487D9",
"h#	c #6587D8",
"i#	c #6A8AD5",
"j#	c #5C7AC3",
"k#	c #4865AE",
"l#	c #4460A9",
"m#	c #4662AB",
"n#	c #4965AD",
"o#	c #4863AA",
"p#	c #4B67AC",
"q#	c #526EB3",
"r#	c #536EB4",
"s#	c #536FB5",
"t#	c #516DB3",
"u#	c #4C68AD",
"v#	c #4762A8",
"w#	c #4561A8",
"x#	c #5876C2",
"y#	c #7192DE",
"                                                                ",
"                                                                ",
"        . . + + . + . . . . . . . . . . . . . . . . @ #         ",
"      . + + . + + . + . . . + . . . + + + + + + . $ % & *       ",
"      . . . . . + . . + = . . . . . + . . + . . $ $ - ; >       ",
"    + + + + + , . . . # ' = + + + + . $ . + + ) . $ ! ~ { ]     ",
"    # = = # # ^ + . . # # # # = = = + $ . + + / . $ ( _ : <     ",
"    = = = = = = + + . # # # . $ $ $ , . . + + ) . $ [ } | 1     ",
"    = = = = = = = = + ' ' + $ 2 3 4 + $ . . . 5 / $ 6 7 8 9     ",
"    # = = = # # = = = ' + $ 0 a b c d $ + . . @ @ $ e f ; g     ",
"    h = i = = = = = = + $ j k l m n o $ $ + . @ @ $ p q r s     ",
"    t u v = = = + . $ . $ / w x y z d A B $ . + + $ C D E       ",
"    F G H u # = . $ = I J 4 K L M N O P Q R $ S = T U V W       ",
"    X Y Z H v + $ . `  ...+.@.#.$.%.&.*.=.-.$ . ^ ;.>.,.'.).    ",
"    !.~.{.].;.) $ + ^./.(._.:.<.[.}.|.1.2.3.$ + H 4.5.6.7.8.    ",
"    9.0.a.b.c.;.;.$ $ d.e.f.|.[.g.h.i.j.= $ . H ;.k.l.m.n.o.    ",
"    p.q.r.s.t.u.$ ;.$ $ v.w.x.y.z.A.B.' $ $ ;.C.D.E.F.G.H.I.    ",
"    J.K.L.M.N.O.P.$ ;./ $ Q.R.b S.T.U.$ . $ V.W.X.Y.Z.`. +.+    ",
"    ++@+#+$+%+&+*+=+H ) -+$ @ ;+>+,+$ '+;.)+!+~+{+]+^+/+(+_+    ",
"    :+<+[+}+|+1+2+3+4+H 5+$ $ $ $ $ $ 5+6+7+8+9+0+a+b+c+d+      ",
"    e+f+[+}+g+|+h+%+i+j+k+;.$ $ $ $ l+m+n+o+p+q+r+s+t+u+v+      ",
"    w+x+y+}+|+z+A+A+B+C+D+E+F+G+H+I+J+K+L+M+N+O+P+Q+R+S+T+U+    ",
"    V+W+X+Y+A+Z+`+`+ @ @.@+@@@#@$@%@&@*@=@O+-@;@>@,@'@)@!@      ",
"    ~@{@]@^@/@/@A+`+A+/@A+(@_@:@<@*@(@O+O+[@}@|@1@2@3@4@5@      ",
"    6@7@]@Z+8@9@N+(@(@N+0@0@a@b@c@0@(@(@(@0@(@|+d@e@f@g@h@      ",
"    i@j@k@l@9@m@n@8@N+o@o@N+N+b@p@q@N+r@s@s@t@u@_@v@w@x@y@      ",
"    z@A@B@`+C@D@E@F@G@G@G@H@I@J@K@L@M@N@O@P@Q@R@S@T@U@V@W@      ",
"    X@Y@[+Z@|+`@ #.#+#@###$#%#%#&#*#=#-#=#;#>#,#'#)#!#~#{#      ",
"      X@]#^#/#(#_#:#<#[#}#|#|#1#2#3#4#3#5#6#7#8#9#0#a#b#        ",
"      c#d#X e#f#g#h#i#j#k#l#m#n#o#p#q#r#s#t#u#v#w#x#y#          ",
"                                                                ",
"                                                                "};
