/* XPM */
static char * flat_xpm[] = {
"32 32 367 2",
"  	c None",
". 	c #FAF3F0",
"+ 	c #FBF4F1",
"@ 	c #FAF4F0",
"# 	c #FBF3F0",
"$ 	c #F9F1EE",
"% 	c #EDE4DF",
"& 	c #E9DFDA",
"* 	c #F0E3DE",
"= 	c #EADCD5",
"- 	c #DED2CC",
"; 	c #DDD1CC",
"> 	c #D0C5C3",
", 	c #F9F2EF",
"' 	c #FAF2EF",
") 	c #FAF3F1",
"! 	c #F8F1EE",
"~ 	c #EEE4E0",
"{ 	c #E2D7D2",
"] 	c #E2D5CF",
"^ 	c #E2D3CC",
"/ 	c #E0D1C9",
"( 	c #DFD1CB",
"_ 	c #D5CAC6",
": 	c #B7AFB3",
"< 	c #FBF3F1",
"[ 	c #F3EAE7",
"} 	c #E3D8D4",
"| 	c #DCD0CA",
"1 	c #E0D0C8",
"2 	c #DBCFCA",
"3 	c #C7BDBE",
"4 	c #B1A9B0",
"5 	c #FBF4F0",
"6 	c #FBF5F2",
"7 	c #FCF6F3",
"8 	c #EDE3DF",
"9 	c #DCD0CB",
"0 	c #DED1CA",
"a 	c #E0D1CA",
"b 	c #DFD2CC",
"c 	c #CFC4C2",
"d 	c #ACA6AD",
"e 	c #EFE5E2",
"f 	c #DFD3CD",
"g 	c #DED1CB",
"h 	c #E1D4CD",
"i 	c #9A96A2",
"j 	c #FCF5F2",
"k 	c #F2EAE6",
"l 	c #E2D7D1",
"m 	c #DDD2CA",
"n 	c #DED0CA",
"o 	c #E0D2CC",
"p 	c #D0C6C3",
"q 	c #9A97A1",
"r 	c #FBF4F2",
"s 	c #F6EFEB",
"t 	c #E6DBD5",
"u 	c #DDD1CB",
"v 	c #E0D3CD",
"w 	c #D2C7C4",
"x 	c #9F9AA4",
"y 	c #F9F3F0",
"z 	c #E8DED9",
"A 	c #DCCFC9",
"B 	c #E0D3CC",
"C 	c #A19CA5",
"D 	c #FAF4F1",
"E 	c #EAE1DB",
"F 	c #DCCFC8",
"G 	c #DDD1CA",
"H 	c #A39FA7",
"I 	c #EAE0DB",
"J 	c #DED2CB",
"K 	c #A8A3AA",
"L 	c #AAA4AC",
"M 	c #E9DFD9",
"N 	c #DCD0C9",
"O 	c #CBC0BF",
"P 	c #A8A2AA",
"Q 	c #F7F0EC",
"R 	c #E6DCD6",
"S 	c #CAC0BE",
"T 	c #AAA4AB",
"U 	c #F5EDEA",
"V 	c #E4D9D3",
"W 	c #DED1CC",
"X 	c #DDD0CB",
"Y 	c #C8BEBD",
"Z 	c #FCF4EF",
"` 	c #FDF5F0",
" .	c #FFF7F1",
"..	c #FFFAF2",
"+.	c #FFFBF2",
"@.	c #FFFCF3",
"#.	c #FFFCF2",
"$.	c #FFFBF3",
"%.	c #FFFDF3",
"&.	c #FAEFE6",
"*.	c #EBDED3",
"=.	c #E7D9CE",
"-.	c #E4D7CD",
";.	c #E2D4CB",
">.	c #CDC1BD",
",.	c #B3ABAD",
"'.	c #E9E4E5",
").	c #F3EDEE",
"!.	c #F1ECEF",
"~.	c #ECE8EE",
"{.	c #ECE7EE",
"].	c #EBE7EE",
"^.	c #EAE6ED",
"/.	c #E6E4ED",
"(.	c #E5E3EC",
"_.	c #E6E3EC",
":.	c #E5E2EC",
"<.	c #E4E1EC",
"[.	c #E6E3ED",
"}.	c #E8E5ED",
"|.	c #EAE6EE",
"1.	c #E4E2ED",
"2.	c #E1DEE9",
"3.	c #D8D2DB",
"4.	c #CDC5CC",
"5.	c #CBC2C7",
"6.	c #D3CACD",
"7.	c #D6CDCF",
"8.	c #CCC4C8",
"9.	c #C7BFC5",
"0.	c #A9B1DA",
"a.	c #B7BEE5",
"b.	c #A8B2E4",
"c.	c #8797DA",
"d.	c #8090D8",
"e.	c #8291D9",
"f.	c #8090D9",
"g.	c #7B8DD8",
"h.	c #7488D6",
"i.	c #7185D5",
"j.	c #7286D5",
"k.	c #7285D5",
"l.	c #6E82D5",
"m.	c #6D81D4",
"n.	c #6F83D5",
"o.	c #7285D6",
"p.	c #7386D5",
"q.	c #788AD6",
"r.	c #8191D9",
"s.	c #7D8ED8",
"t.	c #6D81D6",
"u.	c #6A7FD5",
"v.	c #6673C4",
"w.	c #5A60AD",
"x.	c #585EA3",
"y.	c #6970AB",
"z.	c #747BB3",
"A.	c #757CB5",
"B.	c #767DB6",
"C.	c #8396DF",
"D.	c #8C9EE2",
"E.	c #7F93DE",
"F.	c #566FD2",
"G.	c #4360CC",
"H.	c #4662CD",
"I.	c #4762CD",
"J.	c #4561CD",
"K.	c #4561CC",
"L.	c #4763CD",
"M.	c #4662CE",
"N.	c #384AB3",
"O.	c #2F389F",
"P.	c #2A3495",
"Q.	c #202A83",
"R.	c #202A7A",
"S.	c #232C77",
"T.	c #222C7D",
"U.	c #8396E0",
"V.	c #8E9FE2",
"W.	c #8497DF",
"X.	c #5E76D4",
"Y.	c #4864CD",
"Z.	c #4B66CE",
"`.	c #4C66CE",
" +	c #4C67CE",
".+	c #4D67CE",
"++	c #4D68CE",
"@+	c #4E69CF",
"#+	c #4D67CD",
"$+	c #3E4DB1",
"%+	c #353EA0",
"&+	c #2E3895",
"*+	c #202B80",
"=+	c #232A6A",
"-+	c #2A2D59",
";+	c #252B69",
">+	c #8496E0",
",+	c #91A1E2",
"'+	c #8698E0",
")+	c #6077D4",
"!+	c #4F69CF",
"~+	c #4F69CE",
"{+	c #506ACF",
"]+	c #506BD0",
"^+	c #4F68CD",
"/+	c #404FB1",
"(+	c #3840A1",
"_+	c #303A95",
":+	c #252F83",
"<+	c #2A3171",
"[+	c #313357",
"}+	c #2D3064",
"|+	c #90A1E2",
"1+	c #8698DF",
"2+	c #5F77D3",
"3+	c #4C67CD",
"4+	c #4D65CA",
"5+	c #404EB1",
"6+	c #3942A4",
"7+	c #303A94",
"8+	c #252F84",
"9+	c #293078",
"0+	c #31335C",
"a+	c #2F346C",
"b+	c #798DDC",
"c+	c #90A0E2",
"d+	c #8799DF",
"e+	c #6078D3",
"f+	c #516CD1",
"g+	c #4A60C4",
"h+	c #3B47A9",
"i+	c #2D378F",
"j+	c #242E82",
"k+	c #2A3076",
"l+	c #31335E",
"m+	c #2E3575",
"n+	c #768BDD",
"o+	c #8FA0E2",
"p+	c #8A9CE0",
"q+	c #637AD5",
"r+	c #4B66CD",
"s+	c #4F6ACE",
"t+	c #5069CF",
"u+	c #526DD2",
"v+	c #475BBE",
"w+	c #3942A3",
"x+	c #343D9B",
"y+	c #293388",
"z+	c #30325F",
"A+	c #2C3375",
"B+	c #788EDF",
"C+	c #8FA0E3",
"D+	c #91A2E2",
"E+	c #6F85D8",
"F+	c #4354B7",
"G+	c #3941A4",
"H+	c #252F81",
"I+	c #2B3070",
"J+	c #31335A",
"K+	c #313976",
"L+	c #7084D4",
"M+	c #8D9EE3",
"N+	c #98A9E7",
"O+	c #8496DF",
"P+	c #5972D2",
"Q+	c #4E68CD",
"R+	c #506AD0",
"S+	c #526ED3",
"T+	c #4B62C6",
"U+	c #3E49AC",
"V+	c #373FA0",
"W+	c #2B358A",
"X+	c #232E7F",
"Y+	c #252F86",
"Z+	c #2D3168",
"`+	c #333455",
" @	c #2F3673",
".@	c #4A5AA9",
"+@	c #6D7DC5",
"@@	c #94A6E7",
"#@	c #95A7E8",
"$@	c #7F94E1",
"%@	c #5D78D9",
"&@	c #516DD6",
"*@	c #516CD2",
"=@	c #506BD1",
"-@	c #516BD1",
";@	c #526DD3",
">@	c #526CD2",
",@	c #4F67CC",
"'@	c #4250B4",
")@	c #3941A3",
"!@	c #303991",
"~@	c #252F80",
"{@	c #242F85",
"]@	c #273081",
"^@	c #313358",
"/@	c #283079",
"(@	c #3D4B9C",
"_@	c #344191",
":@	c #5665B2",
"<@	c #7889D1",
"[@	c #798CD7",
"}@	c #6078D7",
"|@	c #4F6AD2",
"1@	c #4E69CE",
"2@	c #4D67CC",
"3@	c #485CBF",
"4@	c #3D49AB",
"5@	c #3840A0",
"6@	c #303994",
"7@	c #273183",
"8@	c #252E82",
"9@	c #262F84",
"0@	c #2E3268",
"a@	c #343350",
"b@	c #2B3169",
"c@	c #3F4E9F",
"d@	c #243082",
"e@	c #263082",
"f@	c #323E8F",
"g@	c #344193",
"h@	c #334096",
"i@	c #313E96",
"j@	c #313F97",
"k@	c #34449C",
"l@	c #3747A1",
"m@	c #3748A1",
"n@	c #34449D",
"o@	c #303F96",
"p@	c #303E94",
"q@	c #303E95",
"r@	c #2F3C93",
"s@	c #2E3A91",
"t@	c #2E3990",
"u@	c #2A338A",
"v@	c #283085",
"w@	c #273185",
"x@	c #252F82",
"y@	c #28307E",
"z@	c #2C316D",
"A@	c #30325E",
"B@	c #2D3268",
"C@	c #262F7C",
"D@	c #283384",
"E@	c #263081",
"F@	c #222B7E",
"G@	c #21297C",
"H@	c #222B7B",
"I@	c #232C7C",
"J@	c #242C7D",
"K@	c #242D7F",
"L@	c #252E80",
"M@	c #242E7E",
"N@	c #232B7B",
"O@	c #222C7B",
"P@	c #242D7E",
"Q@	c #253082",
"R@	c #242F80",
"S@	c #232E7D",
"T@	c #232D7D",
"U@	c #242E7F",
"V@	c #262F7F",
"W@	c #2B3170",
"X@	c #2C3168",
"Y@	c #283076",
"Z@	c #273284",
"                                                                ",
"                                                                ",
"        . . . . . . + . @ + . . # . . . + $ % & * = - ; >       ",
"      , , . , , ' . + . + + # ) ) ) . . + ! ~ { ] ^ / ( _ :     ",
"    . , , . . + . . + . < # # < . . . . + + . [ } | 1 / 2 3 4   ",
"    . , . + + + + + . + 5 + 5 @ 5 @ + + . + 6 7 8 9 0 a b c d   ",
"    . , . + + . + + . + 5 + # . + . # + . + + 7 e f g 0 h > i   ",
"    . , . + + + + ) ) + + + + + + . + + + . + j k l m n o p q   ",
"    . , . + + + 5 . . @ @ @ @ 5 5 . 5 + + . + r s t | u v w x   ",
"    . , . + + + 5 . . + # + # . + . # + + . + + y z A g B w C   ",
"    , , . + + + @ . . 5 # + # . @ . 5 D . + . . 6 E F G b w H   ",
"    ! , . + + + ) . . 5 + + + D . . # D . + . . 6 I F G J w K   ",
"    ! . . + + + + ) ) + + + # ) + ) < + . + . . 6 E F u g c L   ",
"    , . + + . + + . . + + + + + + . 5 + . + . . . M N - u O P   ",
"    , . + + . + + D D + + + 5 D + @ 5 + . + . D Q R N - u S T   ",
"    , . . + + + . D + 5 + D 5 D . @ # + . + . 6 U V A W X Y P   ",
"    Z `  ...........+.@.@.@.@.@.@.#.$.+.....@.%.&.*.=.-.;.>.,.  ",
"    '.).!.~.{.~.].^./.(._._.:.<.:.[._.}.~.|.1.2.3.4.5.6.7.8.9.  ",
"    0.a.b.c.d.e.f.g.h.i.j.k.l.m.n.o.p.q.r.s.t.u.v.w.x.y.z.A.B.  ",
"    C.D.E.F.G.H.I.H.H.H.H.H.J.K.J.H.H.H.L.I.M.J.N.O.P.Q.R.S.T.  ",
"    U.V.W.X.Y.Z.`. +.+.+.+.+++++++.+.+ +`. +@+#+$+%+&+*+=+-+;+  ",
"    >+,+'+)+ +!+~+~+{+~+{+{+{+~+~+~+~+{+{+{+]+^+/+(+_+:+<+[+}+  ",
"    E.|+1+2+3+~+{+!+{+~+{+{+{+~+{+{+{+~+{+{+]+4+5+6+7+8+9+0+a+  ",
"    b+c+d+e+3+~+{+{+{+{+~+~+~+~+{+{+{+~+{+~+f+g+h+(+i+j+k+l+m+  ",
"    n+o+p+q+r+~+{+{+~+~+{+{+{+{+~+~+~+{+s+t+u+v+w+x+y+j+k+z+A+  ",
"    B+C+D+E+r+#+~+~+~+~+{+{+{+{+{+~+!+{+~+]+]+F+G+7+H+8+I+J+K+  ",
"    L+M+N+O+P+r+Q+Q+Q+~+~+~+~+~+{+{+{+R+]+S+T+U+V+W+X+Y+Z+`+ @  ",
"    .@+@@@#@$@%@&@*@=@=@=@=@-@*@;@;@>@>@;@,@'@)@!@~@{@]@0+^@/@  ",
"    (@_@:@<@[@}@|@t+]+f+-@1@2@Q+~+4+g+3@F+4@5@6@7@8@9@0@a@b@H+  ",
"    c@d@e@f@g@h@i@j@k@l@m@n@o@p@q@r@s@t@u@v@w@e@x@y@z@A@B@C@    ",
"      D@E@F@G@H@I@J@K@L@~@M@I@N@N@O@P@Q@R@S@T@U@V@W@X@Y@Z@      ",
"                                                                "};
