/* XPM */
static char * generic_amber_light_xpm[] = {
"48 48 554 2",
"  	c None",
". 	c #FFFFFF",
"+ 	c #B46640",
"@ 	c #D3995B",
"# 	c #E0B457",
"$ 	c #E7C15A",
"% 	c #EBCA63",
"& 	c #EACA62",
"* 	c #E8C65E",
"= 	c #E3BB4F",
"- 	c #D9A14A",
"; 	c #BB7631",
"> 	c #D09759",
", 	c #EEC076",
"' 	c #F0E486",
") 	c #F4EFA3",
"! 	c #FBF6D5",
"~ 	c #FDFDF0",
"{ 	c #FDFCEF",
"] 	c #FDFCF1",
"^ 	c #FDFAEA",
"/ 	c #F9F4C2",
"( 	c #F3EA8D",
"_ 	c #ECD172",
": 	c #DAA957",
"< 	c #A9701A",
"[ 	c #9C4A14",
"} 	c #DBA45C",
"| 	c #F0DE86",
"1 	c #F5F1AD",
"2 	c #FCF9DE",
"3 	c #FCFEFD",
"4 	c #FBFCF5",
"5 	c #FCFBF1",
"6 	c #FDFBF1",
"7 	c #FBFCF1",
"8 	c #FCFDF8",
"9 	c #FEFFFF",
"0 	c #FFFEFD",
"a 	c #F9F5C7",
"b 	c #F4EC9E",
"c 	c #E4C057",
"d 	c #AA660C",
"e 	c #D18748",
"f 	c #EFDC6A",
"g 	c #FAF3BF",
"h 	c #FCFCE7",
"i 	c #FDFDF1",
"j 	c #FCFAED",
"k 	c #FCFBE5",
"l 	c #FCFBE7",
"m 	c #FCFAE6",
"n 	c #FDFBE7",
"o 	c #FCFBE6",
"p 	c #FDFBE8",
"q 	c #FCFAE7",
"r 	c #FBFCF0",
"s 	c #FEFDF1",
"t 	c #FAF9E1",
"u 	c #F4EE97",
"v 	c #DDB23B",
"w 	c #A34818",
"x 	c #E9B340",
"y 	c #F4EB86",
"z 	c #FCFAE4",
"A 	c #FBFAE1",
"B 	c #FBF8DC",
"C 	c #FCF9DC",
"D 	c #FCFADC",
"E 	c #FBF9DC",
"F 	c #FAF9DB",
"G 	c #FCF9DB",
"H 	c #FDFBEA",
"I 	c #F9F7CB",
"J 	c #EEDD5B",
"K 	c #C1840D",
"L 	c #BC521D",
"M 	c #E9D233",
"N 	c #F6F1A9",
"O 	c #FAF9DE",
"P 	c #F9F6D0",
"Q 	c #FAF6CD",
"R 	c #F9F5CD",
"S 	c #FAF6CE",
"T 	c #F9F6CC",
"U 	c #F9F6CE",
"V 	c #FAF5D5",
"W 	c #FBF9D8",
"X 	c #F1E778",
"Y 	c #D39F0B",
"Z 	c #C95A1A",
"` 	c #EAD421",
" .	c #F7F1AF",
"..	c #FAF5CA",
"+.	c #FBF4C1",
"@.	c #F8F3C2",
"#.	c #F8F5C1",
"$.	c #F8F3C3",
"%.	c #FBF8D3",
"&.	c #F2E675",
"*.	c #DDAF07",
"=.	c #C85716",
"-.	c #E9D40D",
";.	c #F4EF98",
">.	c #F7F4BE",
",.	c #F7F1B2",
"'.	c #F8F2B2",
").	c #F7F1B3",
"!.	c #F8F4C5",
"~.	c #EFE45A",
"{.	c #DDB705",
"].	c #BB501D",
"^.	c #E5CB02",
"/.	c #F0E76B",
"(.	c #F7F0AD",
"_.	c #F4EEA2",
":.	c #F6EFA3",
"<.	c #F7EFA3",
"[.	c #F5EEA3",
"}.	c #F6EEA4",
"|.	c #F6F1AF",
"1.	c #EADB2D",
"2.	c #D9AE07",
"3.	c #AB5023",
"4.	c #E3BE04",
"5.	c #E9DC2C",
"6.	c #F4EE9F",
"7.	c #F3EC93",
"8.	c #F3EC92",
"9.	c #F4EC92",
"0.	c #F4ED92",
"a.	c #F4EB91",
"b.	c #F5EC9A",
"c.	c #F3E97F",
"d.	c #E6D507",
"e.	c #D2A813",
"f.	c #E18D0D",
"g.	c #E6D500",
"h.	c #EEE263",
"i.	c #F3EB8B",
"j.	c #F4EA83",
"k.	c #F3EA83",
"l.	c #F3E983",
"m.	c #F3EA81",
"n.	c #F3E984",
"o.	c #F3EB8F",
"p.	c #ECDC31",
"q.	c #E6D200",
"r.	c #C8A625",
"s.	c #CA631E",
"t.	c #E6D300",
"u.	c #E9D716",
"v.	c #F3E87D",
"w.	c #F1E879",
"x.	c #F3E879",
"y.	c #F2E779",
"z.	c #F3E979",
"A.	c #F2E878",
"B.	c #F2E877",
"C.	c #F2E87B",
"D.	c #EEE45E",
"E.	c #E5D300",
"F.	c #E2C909",
"G.	c #A75726",
"H.	c #E4BA07",
"I.	c #E8D200",
"J.	c #EADC32",
"K.	c #EFE56E",
"L.	c #F1E76F",
"M.	c #F0E66F",
"N.	c #F0E570",
"O.	c #E6D50C",
"P.	c #E7D300",
"Q.	c #CFAC18",
"R.	c #CE711A",
"S.	c #E6D402",
"T.	c #E5D100",
"U.	c #EEE044",
"V.	c #F1E66A",
"W.	c #F0E465",
"X.	c #F0E565",
"Y.	c #EFE465",
"Z.	c #F0E566",
"`.	c #F0E564",
" +	c #EFE569",
".+	c #EAD920",
"++	c #E6D100",
"@+	c #E3CB08",
"#+	c #E3AE09",
"$+	c #E8D402",
"%+	c #EEE24A",
"&+	c #EFE45E",
"*+	c #EFE25B",
"=+	c #F0E35C",
"-+	c #F0E35B",
";+	c #EEE25C",
">+	c #EFE35B",
",+	c #EFE35C",
"'+	c #EEE460",
")+	c #EAD927",
"!+	c #E6D400",
"~+	c #CFAF1D",
"{+	c #C06520",
"]+	c #E8D301",
"^+	c #E8D401",
"/+	c #EEDF48",
"(+	c #EFE255",
"_+	c #EEE154",
":+	c #EFE254",
"<+	c #EDE155",
"[+	c #EEE254",
"}+	c #EEE354",
"|+	c #EEE255",
"1+	c #EDE254",
"2+	c #EDE259",
"3+	c #EBD927",
"4+	c #E7D301",
"5+	c #E0C709",
"6+	c #DF8414",
"7+	c #E7D401",
"8+	c #E7D201",
"9+	c #E7D400",
"0+	c #ECDD3D",
"a+	c #EEE14B",
"b+	c #EDE04B",
"c+	c #EEE14A",
"d+	c #EDE04A",
"e+	c #EFE04B",
"f+	c #EDDF4D",
"g+	c #EEE14D",
"h+	c #EFE14D",
"i+	c #EFE14E",
"j+	c #EEE04D",
"k+	c #EEE04E",
"l+	c #EEE14C",
"m+	c #ECE04C",
"n+	c #E9D81F",
"o+	c #E4D200",
"p+	c #E5BC06",
"q+	c #E7D200",
"r+	c #EBDB2A",
"s+	c #ECE045",
"t+	c #EDDD41",
"u+	c #ECDF41",
"v+	c #ECDE44",
"w+	c #EEDF46",
"x+	c #EEDF47",
"y+	c #EDDE47",
"z+	c #EEE048",
"A+	c #EEE047",
"B+	c #EDDF47",
"C+	c #EDDF48",
"D+	c #EDDF46",
"E+	c #EDDF45",
"F+	c #EDDF43",
"G+	c #EDDF41",
"H+	c #EDDE44",
"I+	c #E7D712",
"J+	c #E6D301",
"K+	c #E7D302",
"L+	c #D6B71F",
"M+	c #AC5523",
"N+	c #E6D401",
"O+	c #E8D300",
"P+	c #E8D715",
"Q+	c #ECDE3B",
"R+	c #EBDC3B",
"S+	c #ECDE3C",
"T+	c #ECDE3E",
"U+	c #EDDE3F",
"V+	c #EDDF3F",
"W+	c #ECDE3F",
"X+	c #ECDF3F",
"Y+	c #EBDD3F",
"Z+	c #EDDE3E",
"`+	c #ECDD3B",
" @	c #EBDE39",
".@	c #EDDC36",
"+@	c #E4D304",
"@@	c #DCBD12",
"#@	c #C1681E",
"$@	c #E7D403",
"%@	c #E6D407",
"&@	c #EADC38",
"*@	c #ECDD38",
"=@	c #EBDD37",
"-@	c #ECDE38",
";@	c #EBDD38",
">@	c #ECDD39",
",@	c #ECDE36",
"'@	c #EADD34",
")@	c #E9D922",
"!@	c #E5D302",
"~@	c #E2C409",
"{@	c #D17B17",
"]@	c #E6D201",
"^@	c #E8D400",
"/@	c #E5D400",
"(@	c #EAD922",
"_@	c #EADC34",
":@	c #EBDD31",
"<@	c #EADC31",
"[@	c #EBDC31",
"}@	c #EADB31",
"|@	c #ECDC30",
"1@	c #EBDD33",
"2@	c #EBDD32",
"3@	c #E6D50E",
"4@	c #E8D100",
"5@	c #E5D301",
"6@	c #E7D20D",
"7@	c #D68711",
"8@	c #E5D401",
"9@	c #E7D505",
"0@	c #E8D70B",
"a@	c #EBDA29",
"b@	c #ECDB29",
"c@	c #EBDA28",
"d@	c #ECDB28",
"e@	c #EBDB27",
"f@	c #ECDB2C",
"g@	c #EBDA1F",
"h@	c #E6D506",
"i@	c #E7D50A",
"j@	c #DB900E",
"k@	c #E7D402",
"l@	c #E7D605",
"m@	c #E8D503",
"n@	c #E8D612",
"o@	c #EBD91F",
"p@	c #EAD91E",
"q@	c #E9D81E",
"r@	c #E9D91F",
"s@	c #EBD91D",
"t@	c #E7D607",
"u@	c #E6D405",
"v@	c #E6D505",
"w@	c #DA940E",
"x@	c #E7D501",
"y@	c #E9D70F",
"z@	c #E9D717",
"A@	c #E9D815",
"B@	c #E9D814",
"C@	c #E8D714",
"D@	c #E9D816",
"E@	c #EAD817",
"F@	c #EAD816",
"G@	c #E7D606",
"H@	c #D68E10",
"I@	c #E7D509",
"J@	c #E8D50D",
"K@	c #E7D50D",
"L@	c #E8D60D",
"M@	c #E7D50E",
"N@	c #E8D60E",
"O@	c #E8D60B",
"P@	c #E7D406",
"Q@	c #E8D500",
"R@	c #E7D405",
"S@	c #CF8413",
"T@	c #E6D302",
"U@	c #E9D506",
"V@	c #E9D50A",
"W@	c #E9D50B",
"X@	c #E9D60A",
"Y@	c #E9D609",
"Z@	c #E9D509",
"`@	c #E9D508",
" #	c #E8D50B",
".#	c #C47417",
"+#	c #E7D100",
"@#	c #E7D204",
"##	c #E7D303",
"$#	c #E8D403",
"%#	c #E8D404",
"&#	c #E7D202",
"*#	c #E1C907",
"=#	c #AF6421",
"-#	c #E5D202",
";#	c #E7D101",
">#	c #E8D001",
",#	c #E9D001",
"'#	c #E8D000",
")#	c #DEC20B",
"!#	c #E7CA03",
"~#	c #E8D302",
"{#	c #E7CE01",
"]#	c #E6CD00",
"^#	c #E7CE00",
"/#	c #E5D101",
"(#	c #DCC30F",
"_#	c #DE9D0D",
":#	c #E5CB00",
"<#	c #E7CB00",
"[#	c #E6CB00",
"}#	c #E5CA00",
"|#	c #E5D002",
"1#	c #E9D302",
"2#	c #C07F1A",
"3#	c #E7C900",
"4#	c #E6C900",
"5#	c #E6C800",
"6#	c #E5C800",
"7#	c #E6D003",
"8#	c #E6BF06",
"9#	c #E6C902",
"0#	c #E5C400",
"a#	c #E6C600",
"b#	c #E4C500",
"c#	c #DCC30B",
"d#	c #D29110",
"e#	c #E4CF03",
"f#	c #E5C101",
"g#	c #E4C300",
"h#	c #E5C300",
"i#	c #E3C200",
"j#	c #E4C200",
"k#	c #E4C600",
"l#	c #E5CF03",
"m#	c #E2C200",
"n#	c #E1BF00",
"o#	c #E2C100",
"p#	c #E2BF00",
"q#	c #E3C100",
"r#	c #E2C000",
"s#	c #E2BF02",
"t#	c #E1BE00",
"u#	c #E5CC01",
"v#	c #DCC806",
"w#	c #CD9013",
"x#	c #E2C902",
"y#	c #DDBA01",
"z#	c #E0BE01",
"A#	c #DFBE00",
"B#	c #DFBE01",
"C#	c #DEBD01",
"D#	c #DFBC02",
"E#	c #DEBF01",
"F#	c #E6D102",
"G#	c #E0B409",
"H#	c #DFBF00",
"I#	c #DCB801",
"J#	c #DDBB00",
"K#	c #DEBA00",
"L#	c #DEBB00",
"M#	c #DDB900",
"N#	c #DCB900",
"O#	c #DCB700",
"P#	c #E2CA01",
"Q#	c #DFCE08",
"R#	c #BC8917",
"S#	c #E3CC02",
"T#	c #DCB603",
"U#	c #D9B700",
"V#	c #DCB800",
"W#	c #DBB800",
"X#	c #DAB700",
"Y#	c #DBB700",
"Z#	c #DAB500",
"`#	c #DDBE01",
" $	c #E1C706",
".$	c #C79213",
"+$	c #E1C502",
"@$	c #D8B001",
"#$	c #D8B300",
"$$	c #D9B401",
"%$	c #D9B501",
"&$	c #D8B401",
"*$	c #D9B500",
"=$	c #D7B400",
"-$	c #D9B201",
";$	c #DBB600",
">$	c #E4CA04",
",$	c #CF9C10",
"'$	c #DCBD02",
")$	c #D5AE00",
"!$	c #D6B101",
"~$	c #D7B201",
"{$	c #D5B001",
"]$	c #D8B101",
"^$	c #E1C902",
"/$	c #D0A00E",
"($	c #DABA03",
"_$	c #D4AB02",
":$	c #D3AE01",
"<$	c #D4AF00",
"[$	c #D2AD00",
"}$	c #D3AE00",
"|$	c #D4AE01",
"1$	c #D3AC00",
"2$	c #D3AD01",
"3$	c #E0C302",
"4$	c #C89B11",
"5$	c #D9B704",
"6$	c #D0AA00",
"7$	c #D1AB00",
"8$	c #D1AB01",
"9$	c #D2AC01",
"0$	c #D1AC00",
"a$	c #D2A900",
"b$	c #DBBB03",
"c$	c #D4AA05",
"d$	c #CEA801",
"e$	c #D0A902",
"f$	c #CFA901",
"g$	c #D0A901",
"h$	c #CEA802",
"i$	c #D0AA01",
"j$	c #CFA802",
"k$	c #CEA701",
"l$	c #D4AF03",
"m$	c #D7BB05",
"n$	c #C6980D",
"o$	c #CEA601",
"p$	c #CEA402",
"q$	c #CDA500",
"r$	c #CCA600",
"s$	c #CDA700",
"t$	c #CCA500",
"u$	c #CBA500",
"v$	c #CCA501",
"w$	c #CEA501",
"x$	c #CFA702",
"y$	c #D5B004",
"z$	c #C09208",
"A$	c #CBA301",
"B$	c #CAA200",
"C$	c #CAA300",
"D$	c #CBA400",
"E$	c #C9A100",
"F$	c #C9A101",
"G$	c #CDA505",
"H$	c #DCC303",
"I$	c #BA9309",
"J$	c #C8A002",
"K$	c #CAA201",
"L$	c #C9A200",
"M$	c #C9A000",
"N$	c #C89F00",
"O$	c #C99F01",
"P$	c #C99F00",
"Q$	c #CAA100",
"R$	c #CDA902",
"S$	c #CBA604",
"T$	c #C79C09",
"U$	c #BF9408",
"V$	c #C09207",
"W$	c #C39606",
"X$	c #C59B03",
"Y$	c #C79C04",
"Z$	c #C49B05",
"`$	c #C29804",
" %	c #C69C08",
".%	c #CDA806",
".                                                                                               ",
"                                      + @ # $ % & * = - ;                                       ",
"                                > , ' ) ! ~ { { { { ] ^ / ( _ : <                               ",
"                          [ } | 1 2 . 3 4 5 6 5 5 5 6 7 8 9 0 a b c d                           ",
"                        e f g h i j k l m n o o o o o o p l q r s t u v                         ",
"                    w x y z A B C D C C C E C C C B C B E B E C F G H I J K                     ",
"                  L M N O P Q Q Q Q Q Q Q Q Q Q Q R Q R Q R Q Q S T U V W X Y                   ",
"                Z `  ...+.@./ / / / / / / / / / / @./ @./ @./ / / / @.#.$.%.&.*.                ",
"              =.-.;.>.,.,.,.,.,.,.,.,.'.'.'.,.,.,.,.,.,.'.,.,.'.'.,.,.,.,.).!.~.{.              ",
"            ].^./.(._.:.<.[.:.:.:.:.:.:.:.:.:.:.:.[.:.[.:.[.:.:.:.:.[.:.:.:.}.|.1.2.            ",
"          3.4.5.6.7.8.9.8.8.8.8.8.8.8.8.8.8.8.8.8.8.8.8.8.8.8.8.0.8.8.8.8.8.a.b.c.d.e.          ",
"          f.g.h.i.j.j.k.j.l.j.j.j.j.j.j.j.j.j.j.j.j.j.j.j.j.j.j.j.j.j.j.j.j.m.n.o.p.q.r.        ",
"        s.t.u.v.w.x.y.x.x.y.x.x.x.x.x.x.x.x.x.x.x.y.x.y.x.y.x.x.x.x.y.x.x.z.A.B.C.D.E.F.        ",
"      G.H.I.J.x.K.L.M.L.M.M.M.M.M.M.M.L.L.L.M.M.M.M.M.M.L.M.M.L.L.M.M.M.M.M.L.L.L.N.O.P.Q.      ",
"      R.S.T.U.V.W.X.X.X.X.Y.X.Z.X.X.X.X.X.X.X.X.X.X.X.X.X.X.X.X.X.Z.Z.Z.Z.X.X.Z.`. +.+++@+      ",
"      #+$+T.%+&+*+=+=+-+=+;+>+>+>+,+,+,+,+,+,+,+,+,+,+,+,+,+,+,+>+>+>+>+-+-+=+=+=+'+)+T.!+~+    ",
"    {+]+^+t./+(+_+:+_+:+:+<+[+}+[+|+|+|+|+|+|+|+|+<+|+<+|+<+|+|+|+[+1+[+:+:+:+:+:+2+3+t.4+5+    ",
"    6+7+8+9+0+a+b+c+d+c+e+f+g+h+h+i+i+i+i+i+h+h+h+j+h+j+i+k+i+i+i+h+j+l+c+c+c+c+e+m+n+o+t.$+    ",
"    p+9+^+q+r+s+t+u+v+w+x+y+z+z+z+z+z+z+z+z+A+A+A+B+A+B+z+C+z+z+z+z+/+D+E+E+F+G+G+H+I+q.J+K+L+  ",
"  M+N+8+7+O+P+Q+R+S+T+U+V+W+X+W+W+W+W+W+W+W+W+W+W+Y+W+Y+W+Y+W+W+W+W+Y+V+V+V+Z+`+ @.@+@J+O+P.@@  ",
"  #@$@q+9+P.%@p.&@*@=@-@-@;@-@-@-@-@-@-@-@-@-@-@-@;@-@;@-@;@-@-@-@-@;@-@*@*@>@,@'@)@q.!@P.O+~@  ",
"  {@S.]@^@P./@(@_@:@<@[@[@}@[@[@[@[@[@[@[@[@[@[@[@}@[@}@[@}@[@[@[@[@}@[@[@[@|@1@2@3@4@5@9+P.6@  ",
"  7@8@8+O+7+9@0@a@b@c@d@d@c@d@d@d@d@d@d@d@d@d@d@d@c@d@c@d@c@d@d@d@d@c@d@d@d@e@f@g@h@q.q.^@O+i@  ",
"  j@N+8+O+k@l@m@n@o@n+p@p@q@p@p@p@p@p@p@p@p@p@p@p@q@p@q@p@q@p@p@p@p@q@p@p@p@r@s@t@u@v@J+O+4+$@  ",
"  w@k@8+9+^+x@x@8@y@z@A@B@C@B@B@B@B@B@B@B@B@B@B@B@C@B@C@B@C@B@B@B@B@C@A@D@E@F@G@9+7+N+4+P.]+N+  ",
"  H@N+q+4+t.P.P.P.t.I@J@K@K@K@K@K@K@K@K@K@K@K@K@K@K@K@K@K@K@K@K@L@K@K@M@N@O@P@t.Q@P.P.t.4+9+R@  ",
"  S@T@t.^+^@]+]+^+O+^+U@V@W@X@Y@Y@Y@Y@Y@Y@Y@Y@Y@Y@Y@Y@Y@Y@Y@Y@Y@Z@Z@Z@Z@`@$@9+9+9+^+]+^+P.P. #  ",
"  .#7+E.+++#+#I.I.I.I.P.8+@###########$#$#$#######$###$#$#$###$#$###%#&#q.q.I.I.I.I.I.I.q.P.*#  ",
"  =#O+-#;#>#,#,#,#,#,#'#4@'#;#;#;#;#;#;#;#;#;#;#;#;#;#;#;#;#;#;#;#;#;#4@4@4@'#,#,#,#,#4@P.P.)#  ",
"    !#~#{#]#]#^#]#^#]#^#]#]#]#]#]#]#]#^#^#^#]#]#]#]#]#]#^#]#]#^#^#]#]#]#]#]#^#^#^#]#]#]#/#O+(#  ",
"    _#J+:#<#[#[#[#[#[#[#[#}#[#[#[#[#[#[#[#[#[#[#[#[#[#[#[#[#[#[#[#[#[#[#[#[#[#[#[#[#[#[#|#1#    ",
"    2#J+3#4#3#3#5#3#5#3#3#5#3#3#3#3#3#3#3#3#3#3#3#5#3#5#3#5#3#3#3#3#5#3#3#3#3#3#3#5#6#3#7#+@    ",
"      8#9#0#a#a#a#a#a#a#a#a#a#a#a#a#a#a#a#a#a#a#a#a#a#a#a#a#a#a#a#a#a#a#a#a#a#a#a#a#a#b#4@c#    ",
"      d#e#f#g#h#i#g#i#g#g#i#g#g#g#g#g#g#g#g#g#g#g#i#g#i#g#i#g#g#g#g#i#g#g#g#g#g#g#i#j#k#$#      ",
"        l#m#n#o#p#q#r#q#r#r#r#r#r#r#r#q#q#q#r#r#r#r#r#r#q#r#r#q#q#r#r#r#r#r#q#q#q#s#t#u#v#      ",
"        w#x#y#z#A#z#B#B#B#C#B#B#B#B#B#B#B#B#B#B#B#B#B#B#B#B#B#B#B#B#B#B#B#B#B#B#A#D#E#F#        ",
"          G#H#I#J#K#L#K#K#M#K#K#K#K#K#K#K#K#K#K#K#K#K#K#K#K#K#K#K#K#K#K#K#K#L#L#N#O#P#Q#        ",
"          R#S#T#U#V#W#W#W#X#W#W#W#W#W#W#W#W#W#W#W#W#W#W#W#W#W#W#W#W#W#W#W#V#Y#W#Z#`# $          ",
"            .$+$@$#$$$%$%$&$%$%$%$%$%$%$%$%$%$%$%$%$%$%$%$%$%$%$%$%$%$%$%$*$=$-$;$>$            ",
"              ,$'$)$!$~$~$!$~$~$~$~$~$~$~$~$~$~$~$!$~$!$~$!$~$~$~$~$!$~$~$~${$]$^$              ",
"                /$($_$:$<$[$<$<$<$<$<$<$<$<$<$<$<$}$<$}$<$}$<$<$<$<$}$|$[$1$2$3$                ",
"                  4$5$6$6$6$7$8$8$8$8$9$9$9$8$8$8$8$8$8$9$8$8$9$9$8$8$0$a$2$b$                  ",
"                      c$6$d$e$f$g$d$d$f$f$f$d$d$d$d$d$d$f$d$h$i$d$g$j$k$l$m$                    ",
"                        n$9$o$p$q$r$r$s$s$s$r$r$r$r$r$r$s$t$u$s$v$w$x$y$                        ",
"                            z$g$A$B$C$C$C$D$C$D$D$D$D$D$C$C$E$F$k$G$H$                          ",
"                                I$J$K$F$L$M$N$N$M$O$P$Q$K$F$R$S$                                ",
"                                      T$U$V$W$X$Y$Z$`$ %.%                                      ",
"                                                                                                "};
