/* XPM */
static char * generic_checked_xpm[] = {
"24 24 352 2",
"  	c None",
". 	c #F1F3F2",
"+ 	c #F2F4F3",
"@ 	c #F3F4F4",
"# 	c #F4F5F4",
"$ 	c #F5F5F5",
"% 	c #F6F6F6",
"& 	c #F8F8F8",
"* 	c #F9F9F9",
"= 	c #F9FAF9",
"- 	c #FCFCFC",
"; 	c #FCFDFC",
"> 	c #FDFEFD",
", 	c #FDFDFD",
"' 	c #FEFDFE",
") 	c #FEFEFE",
"! 	c #FFFFFF",
"~ 	c #F3F5F4",
"{ 	c #F4F5F5",
"] 	c #F5F6F5",
"^ 	c #F8F7F8",
"/ 	c #FAFAFA",
"( 	c #FBFBFB",
"_ 	c #FCFEFC",
": 	c #FDFEFC",
"< 	c #FEFEFD",
"[ 	c #FEFFFE",
"} 	c #F3F6F6",
"| 	c #F6F6F7",
"1 	c #F8F7F5",
"2 	c #F8F9F2",
"3 	c #F9FAF2",
"4 	c #FBFAF6",
"5 	c #FCFBF9",
"6 	c #FBFBFD",
"7 	c #F9FDFE",
"8 	c #FAFEFC",
"9 	c #FDFEFF",
"0 	c #FBFDFE",
"a 	c #FCFBF8",
"b 	c #FFFEFF",
"c 	c #FDFCF9",
"d 	c #FCFDFE",
"e 	c #F2F5F3",
"f 	c #F4F4F4",
"g 	c #F2F6F9",
"h 	c #F4F6F8",
"i 	c #F6F7F7",
"j 	c #F6F7FC",
"k 	c #F7F9FE",
"l 	c #F9F9FD",
"m 	c #FAF9FC",
"n 	c #FAFAFD",
"o 	c #F9FCFC",
"p 	c #FBFEF8",
"q 	c #FDFDF8",
"r 	c #FEFDFD",
"s 	c #FDFCFF",
"t 	c #D5E2C0",
"u 	c #DFEACD",
"v 	c #FEFFFF",
"w 	c #FCFBFE",
"x 	c #FEFEFF",
"y 	c #F0F1F1",
"z 	c #F2F3F2",
"A 	c #F4F4F5",
"B 	c #F4F5F3",
"C 	c #F4F6F1",
"D 	c #F4F8F4",
"E 	c #F5F7F9",
"F 	c #F7F7FB",
"G 	c #F9FAF8",
"H 	c #F7F9FB",
"I 	c #F9FBF9",
"J 	c #FAFBF6",
"K 	c #FEFBFB",
"L 	c #FEFAFB",
"M 	c #FFFFFE",
"N 	c #BCCFA4",
"O 	c #8AB45C",
"P 	c #87B15C",
"Q 	c #C9D9B4",
"R 	c #F1F1F0",
"S 	c #F1F2F1",
"T 	c #F2F5F4",
"U 	c #F9F4EF",
"V 	c #F6F4F7",
"W 	c #F3F6FC",
"X 	c #F8F6F0",
"Y 	c #FCF8EB",
"Z 	c #F9F7F4",
"` 	c #F8FAF9",
" .	c #FCFAF7",
"..	c #FBF9FC",
"+.	c #FCFAFE",
"@.	c #B6CF99",
"#.	c #88BC5B",
"$.	c #87C45D",
"%.	c #8FBF5B",
"&.	c #8EB15A",
"*.	c #C7DCB1",
"=.	c #F0F1F0",
"-.	c #F5F0F6",
";.	c #F4F8FB",
">.	c #F6FEFD",
",.	c #F6F6F2",
"'.	c #FAF4F4",
").	c #FAF7FE",
"!.	c #F8F9FA",
"~.	c #FAFAF5",
"{.	c #FCFAF9",
"].	c #FAFBFF",
"^.	c #FDFFFC",
"/.	c #BFCFA9",
"(.	c #85BD57",
"_.	c #7FC75D",
":.	c #7FC75C",
"<.	c #85C45C",
"[.	c #96BD65",
"}.	c #88B253",
"|.	c #E8EAE4",
"1.	c #EFF0F0",
"2.	c #F9F9FB",
"3.	c #D1E2BC",
"4.	c #A0BD78",
"5.	c #F1F7E6",
"6.	c #F9F4FF",
"7.	c #F5F9F6",
"8.	c #F8F9FB",
"9.	c #FAF8F8",
"0.	c #FBF9F9",
"a.	c #BDD1A9",
"b.	c #8ABA54",
"c.	c #80C65C",
"d.	c #7EC85D",
"e.	c #80C65D",
"f.	c #91BC5D",
"g.	c #8CB05B",
"h.	c #FCFEF9",
"i.	c #EFF0F1",
"j.	c #F1F0E8",
"k.	c #F4F2F4",
"l.	c #F8F9FF",
"m.	c #C1D8AA",
"n.	c #8FB354",
"o.	c #95BC54",
"p.	c #8CB263",
"q.	c #E9F8E5",
"r.	c #FCF5F3",
"s.	c #F9F5FB",
"t.	c #FCFFFF",
"u.	c #BDD5A3",
"v.	c #88B956",
"w.	c #80C75D",
"x.	c #81C65D",
"y.	c #90AF56",
"z.	c #EFF6E8",
"A.	c #FDFCFC",
"B.	c #EDF0F4",
"C.	c #F0F1F3",
"D.	c #F1F5F3",
"E.	c #CCDCB4",
"F.	c #8CB75C",
"G.	c #87C262",
"H.	c #81C55E",
"I.	c #89BC62",
"J.	c #F0F5E3",
"K.	c #FDFFFB",
"L.	c #BACE9F",
"M.	c #8CB759",
"N.	c #82C65C",
"O.	c #89B755",
"P.	c #EBF6E5",
"Q.	c #FBFEFA",
"R.	c #FCFCFB",
"S.	c #EDF0F0",
"T.	c #F0F0F8",
"U.	c #EFF7F4",
"V.	c #90B05E",
"W.	c #8DC157",
"X.	c #81C65C",
"Y.	c #7EC75D",
"Z.	c #87BB5F",
"`.	c #EFFAEB",
" +	c #C0D3A6",
".+	c #8BB858",
"++	c #83C65C",
"@+	c #8CB554",
"#+	c #ECF5E4",
"$+	c #FAFDFF",
"%+	c #FAFAFB",
"&+	c #EFEFE7",
"*+	c #F0EEEE",
"=+	c #F2F4FA",
"-+	c #BED6A8",
";+	c #8CB652",
">+	c #87C35E",
",+	c #87BD63",
"'+	c #85C25C",
")+	c #7EC75C",
"!+	c #89B651",
"~+	c #EDF5E7",
"{+	c #FBFAFB",
"]+	c #EDEEE7",
"^+	c #F0EEE7",
"/+	c #F0EEF7",
"(+	c #F3F8F5",
"_+	c #C1D4A3",
":+	c #8EB264",
"<+	c #82C55F",
"[+	c #89B858",
"}+	c #EBF6E7",
"|+	c #F9FBFF",
"1+	c #FAF8F6",
"2+	c #FBFAEE",
"3+	c #F9FAFD",
"4+	c #F8FAF8",
"5+	c #E8EEF1",
"6+	c #ECF1E8",
"7+	c #EEEEF1",
"8+	c #F0EFF1",
"9+	c #F6F9F8",
"0+	c #BCD0A5",
"a+	c #8CBD5A",
"b+	c #88BE58",
"c+	c #85C35C",
"d+	c #8AB15B",
"e+	c #EAF0DE",
"f+	c #F7FAF7",
"g+	c #F7F5F9",
"h+	c #F8F8F7",
"i+	c #F8F8FA",
"j+	c #F9F8F9",
"k+	c #ECEEEF",
"l+	c #ECEEEE",
"m+	c #EDEEEF",
"n+	c #EEEEEF",
"o+	c #F0EEF4",
"p+	c #F5F8F9",
"q+	c #BACF9C",
"r+	c #9ABD68",
"s+	c #86C157",
"t+	c #84C55D",
"u+	c #87C45E",
"v+	c #88C25A",
"w+	c #8DB255",
"x+	c #E9F0E3",
"y+	c #F7F9FA",
"z+	c #F5F8F6",
"A+	c #F6F8F7",
"B+	c #F6F9F7",
"C+	c #ECEDEE",
"D+	c #ECEEF0",
"E+	c #EFEEEA",
"F+	c #F0F2EF",
"G+	c #F3FAFF",
"H+	c #B6CC9A",
"I+	c #8DBB50",
"J+	c #82C55D",
"K+	c #85C35E",
"L+	c #8EC15B",
"M+	c #95C057",
"N+	c #8EB058",
"O+	c #E7F3EC",
"P+	c #F4F9EE",
"Q+	c #F5F6F3",
"R+	c #F6F6F5",
"S+	c #F6F7F6",
"T+	c #F5F8F7",
"U+	c #F5F7F7",
"V+	c #EAEBEC",
"W+	c #EBECED",
"X+	c #ECEDF0",
"Y+	c #EEEFED",
"Z+	c #EDEEED",
"`+	c #F0F0F1",
" @	c #F5F9FF",
".@	c #BACF9E",
"+@	c #90B754",
"@@	c #92BE62",
"#@	c #93BA60",
"$@	c #90AE57",
"%@	c #E8F3E3",
"&@	c #F4F7FC",
"*@	c #F4F6F4",
"=@	c #F5F6F4",
"-@	c #F6F7F5",
";@	c #E9EAEC",
">@	c #EBEDF5",
",@	c #EFEEE8",
"'@	c #F2EFE6",
")@	c #F0F0F0",
"!@	c #F2F9FF",
"~@	c #B9CE9D",
"{@	c #8DB359",
"]@	c #90B059",
"^@	c #E4EEE0",
"/@	c #F3F6FA",
"(@	c #F4F4F1",
"_@	c #F5F4F1",
":@	c #F3F4F3",
"<@	c #F3F4F5",
"[@	c #F5F5F4",
"}@	c #E9E9EB",
"|@	c #EBEDEB",
"1@	c #ECEDF5",
"2@	c #EFEEE7",
"3@	c #EEEEEB",
"4@	c #EEEFF2",
"5@	c #F4F9F6",
"6@	c #D6E4B7",
"7@	c #E9F3E3",
"8@	c #EFF5F2",
"9@	c #F1F2F7",
"0@	c #F2F3EE",
"a@	c #F3F3EF",
"b@	c #F1F4F3",
"c@	c #F3F5F3",
"d@	c #E8E8EA",
"e@	c #E8E9EB",
"f@	c #E9EAEB",
"g@	c #E9ECF1",
"h@	c #EAEDEC",
"i@	c #EBEDF3",
"j@	c #EDEEEE",
"k@	c #EEEEE6",
"l@	c #EFEEF3",
"m@	c #F2EEF9",
"n@	c #F0EFF5",
"o@	c #F2F3F4",
"p@	c #EFF3EA",
"q@	c #EFF2F4",
"r@	c #F1F1F5",
"s@	c #F1F2F2",
"t@	c #F2F2F1",
"u@	c #F1F4F2",
"v@	c #E6E7E8",
"w@	c #E8E9EA",
"x@	c #ECEDEF",
"y@	c #EDEEF0",
"z@	c #EEEFF1",
"A@	c #EFEFF0",
"B@	c #EFF0F2",
"C@	c #F0F1F2",
"D@	c #F1F2F3",
"E@	c #F0F1F4",
"F@	c #E6E8E8",
"G@	c #E7E8E9",
"H@	c #EEEFF0",
"I@	c #E4E5E7",
"J@	c #E5E6E7",
"K@	c #EEEFEF",
". + @ # $ % & * = = - - - ; > , ' , ) ! ) ) ) ) ",
". + ~ { ] % ^ * * / - ( - , _ , ' ) , ! ) ) ) ) ",
". + @ { $ % & * * / - ( - , : , < ) , ! ! ! [ ) ",
". + ~ # } | 1 2 3 4 5 6 7 8 _ 9 0 a b b c d b ! ",
". . e f g h i j k l m n o p q r s ! t u v w x ) ",
"y z ~ A B C D E F G H I J a K L M N O P Q ! > r ",
"R S . T U V W X Y Z ` J  ...+.! @.#.$.%.&.*.M : ",
"=.S . e -.;.>.,.'.).!.~.{.].^./.(._.:.<.[.}.|.: ",
"1.y . . 2.3.4.5.6.7.8.9.0.v a.b.c.d.d.e.f.g.2 h.",
"i.j.k.l.m.n.o.p.q.9.r.s.t.u.v.w.d.d.d.x.y.z.> A.",
"B.C.D.E.F.G.H.e.I.J.^ K.L.M.N.d.d.d.w.O.P.Q.R.- ",
"S.T.U.V.W.X.d.d.Y.Z.`. +.+++d.d.d.e.@+#+$+%+( ( ",
"&+*+=+-+;+>+Y.d.d.Y.,+'+)+d.d.d.Y.!+~+R.0.{+* * ",
"]+^+/+(+_+:+<+_.d.d.)+d.d.d.Y.e.[+}+|+1+2+3+` 4+",
"5+6+7+8+9+0+a+b+w.d.d._.d.d.c+d+e+f+g+h+i+h+& j+",
"k+l+m+n+o+p+q+r+s+w.x.t+u+v+w+x+y+z+A+i i A+9+B+",
"C+C+m+D+E+F+G+H+I+J+K+L+M+N+O+P+Q+] R+S+S+S+T+U+",
"V+W+C+X+Y+Z+`+ @.@+@@@#@$@%@&@*@@ { =@# # # S+-@",
";@W+W+C+>@,@'@)@!@~@{@]@^@/@(@_@:@~ <@] ] ] [@[@",
"}@V+V+W+|@1@2@3@4@5@6@7@8@9@0@a@b@+ c@@ @ @ @ @ ",
"d@e@f@V+g@h@i@j@k@l@m@n@o@p@q@r@s@t@u@+ + + + + ",
"v@w@e@V+W+W+x@m+m+y@z@A@i.B@C@C@D@C.E@E@E@E@z z ",
"v@F@G@f@;@V+W+C+C+m+y@m+y@H@H@i.i.C@C@C@C@C@S S ",
"I@J@F@d@e@f@V+V+W+W+j@x@X+x@K@m+H@H@i.i.i.B@1.1."};
