/* XPM */
static char * generic_save_xpm[] = {
"32 32 467 2",
"  	c None",
". 	c #59A215",
"+ 	c #81BD47",
"@ 	c #83BD4B",
"# 	c #87BE51",
"$ 	c #78B83B",
"% 	c #79B83D",
"& 	c #7AB93D",
"* 	c #58A112",
"= 	c #C4EF9A",
"- 	c #BAEB8B",
"; 	c #CCF1AA",
"> 	c #8FDD43",
", 	c #93DF4A",
"' 	c #AEE974",
") 	c #75B637",
"! 	c #78B73D",
"~ 	c #AFE879",
"{ 	c #A5E369",
"] 	c #BBEA8D",
"^ 	c #71D311",
"/ 	c #76D51A",
"( 	c #95E04B",
"_ 	c #76B538",
": 	c #79B73D",
"< 	c #B2E97C",
"[ 	c #A8E46C",
"} 	c #BDEB90",
"| 	c #75D517",
"1 	c #7AD71F",
"2 	c #98E250",
"3 	c #76B638",
"4 	c #79B83E",
"5 	c #B3EA7E",
"6 	c #A9E66E",
"7 	c #BEEB92",
"8 	c #78D71A",
"9 	c #7DD922",
"0 	c #9AE352",
"a 	c #76B639",
"b 	c #7AB83E",
"c 	c #B5EB7F",
"d 	c #AAE671",
"e 	c #C0ED93",
"f 	c #7AD91D",
"g 	c #7FDB25",
"h 	c #9CE554",
"i 	c #77B639",
"j 	c #7AB83F",
"k 	c #B6EC82",
"l 	c #ADE773",
"m 	c #C1ED95",
"n 	c #7DDB21",
"o 	c #81DC29",
"p 	c #9EE658",
"q 	c #77B73A",
"r 	c #B8ED84",
"s 	c #AEE975",
"t 	c #C2EE97",
"u 	c #7FDD24",
"v 	c #84DE2C",
"w 	c #A0E75B",
"x 	c #75B638",
"y 	c #4B9802",
"z 	c #75B737",
"A 	c #77B73B",
"B 	c #A6D47A",
"C 	c #B3EC7C",
"D 	c #B0EA77",
"E 	c #C3EF98",
"F 	c #82DE28",
"G 	c #86E02F",
"H 	c #9BE652",
"I 	c #A2D374",
"J 	c #7AB93E",
"K 	c #77B838",
"L 	c #4B9702",
"M 	c #69AE27",
"N 	c #D5FAB0",
"O 	c #A0E85B",
"P 	c #ABEA6E",
"Q 	c #A3E761",
"R 	c #B2EB7B",
"S 	c #C4F09A",
"T 	c #84E02B",
"U 	c #89E134",
"V 	c #87E12F",
"W 	c #9EE856",
"X 	c #9FE956",
"Y 	c #D7FBB4",
"Z 	c #6AAF27",
"` 	c #8B8C86",
" .	c #A4A6A1",
"..	c #A5A6A3",
"+.	c #9CA98E",
"@.	c #6DB32B",
"#.	c #C1F38F",
"$.	c #95E448",
"%.	c #A8E968",
"&.	c #B4EC7B",
"*.	c #85E02B",
"=.	c #8AE234",
"-.	c #83E028",
";.	c #BEF389",
">.	c #6DB22B",
",.	c #A5A6A4",
"'.	c #A4A6A2",
").	c #8A8B86",
"!.	c #C6C6C3",
"~.	c #DADBD5",
"{.	c #D6D7D2",
"].	c #DBD9D9",
"^.	c #A0B68A",
"/.	c #83C347",
"(.	c #BFF28C",
"_.	c #A4E862",
":.	c #B4EC7C",
"<.	c #86E02D",
"[.	c #B1EF75",
"}.	c #81C145",
"|.	c #ABC194",
"1.	c #DBD9DA",
"2.	c #D7D8D4",
"3.	c #D8D9D5",
"4.	c #CACBC8",
"5.	c #7F827C",
"6.	c #E2E3DF",
"7.	c #9EA19E",
"8.	c #D0D1CF",
"9.	c #C1C2BC",
"0.	c #C8C6C9",
"a.	c #8DB06B",
"b.	c #9FD36C",
"c.	c #BCF08A",
"d.	c #B2EC78",
"e.	c #A4EA5F",
"f.	c #9AD165",
"g.	c #8CAF6B",
"h.	c #D0CED0",
"i.	c #D5D5D1",
"j.	c #9C9E9A",
"k.	c #A3A4A4",
"l.	c #E6E7E3",
"m.	c #828480",
"n.	c #A2A4A0",
"o.	c #D9DAD6",
"p.	c #CDCFC8",
"q.	c #CFD0CB",
"r.	c #AAAAA6",
"s.	c #CED0CA",
"t.	c #D0CDD2",
"u.	c #75A447",
"v.	c #B8E291",
"w.	c #BFF08E",
"x.	c #C3F099",
"y.	c #9AE74E",
"z.	c #AFDE82",
"A.	c #CECACF",
"B.	c #C8CAC5",
"C.	c #DEDFDB",
"D.	c #A7A8A4",
"E.	c #BEC0BC",
"F.	c #CECFCA",
"G.	c #CFD1CA",
"H.	c #B0B2AC",
"I.	c #9C9D98",
"J.	c #C9CBC6",
"K.	c #C1C2BD",
"L.	c #C6C2CA",
"M.	c #619C28",
"N.	c #CEEEB0",
"O.	c #C9F2A2",
"P.	c #8DE338",
"Q.	c #C0E997",
"R.	c #619C29",
"S.	c #C4BFC7",
"T.	c #BEC0BB",
"U.	c #C2C4BF",
"V.	c #CDCFCB",
"W.	c #D6D6D3",
"X.	c #D6D7D3",
"Y.	c #C7C9C5",
"Z.	c #797B76",
"`.	c #E0E2DE",
" +	c #CACCC6",
".+	c #A4A5A2",
"++	c #BEBFBA",
"@+	c #D1D3CE",
"#+	c #C7C8C4",
"$+	c #C1C2BE",
"%+	c #BCBDB9",
"&+	c #BDB9C0",
"*+	c #579A17",
"=+	c #E0F6CA",
"-+	c #569916",
";+	c #BBB7BE",
">+	c #B9BAB6",
",+	c #BEBFBB",
"'+	c #C3C5C0",
")+	c #C8C9C4",
"!+	c #D1D2CE",
"~+	c #EAEBE9",
"{+	c #777974",
"]+	c #959792",
"^+	c #E4E5E1",
"/+	c #BDBEBA",
"(+	c #D3D4D0",
"_+	c #D3D5D1",
":+	c #CECFCB",
"<+	c #C9CBC7",
"[+	c #C5C6C2",
"}+	c #C6C7C4",
"|+	c #DAD7DD",
"1+	c #64A725",
"2+	c #5EA41C",
"3+	c #D9D6DC",
"4+	c #C4C4C1",
"5+	c #C6C7C3",
"6+	c #CACCC8",
"7+	c #D3D5D0",
"8+	c #D2D3CF",
"9+	c #CECECC",
"0+	c #EDEFEC",
"a+	c #B3B5B1",
"b+	c #D7D9D4",
"c+	c #D9D9D7",
"d+	c #DADBD7",
"e+	c #DADAD6",
"f+	c #D9DAD7",
"g+	c #D4D5D1",
"h+	c #E1E2E0",
"i+	c #CBCBC9",
"j+	c #BBC0B6",
"k+	c #BCC0B8",
"l+	c #CCCDCA",
"m+	c #E7E8E7",
"n+	c #D5D6D2",
"o+	c #D7D7D4",
"p+	c #D7D8D5",
"q+	c #C1C4BF",
"r+	c #B6B8B4",
"s+	c #DEE0DD",
"t+	c #F0F1EF",
"u+	c #DBDCD9",
"v+	c #DCDEDA",
"w+	c #DDDED9",
"x+	c #DCDDDA",
"y+	c #DCDDD9",
"z+	c #DBDCD8",
"A+	c #DDDDDB",
"B+	c #DEDFDD",
"C+	c #DEDFDC",
"D+	c #DADBD8",
"E+	c #DDDEDA",
"F+	c #AFB1AC",
"G+	c #C8CBC5",
"H+	c #DBDCDA",
"I+	c #82847F",
"J+	c #EAEAE8",
"K+	c #E6E6E3",
"L+	c #DFE0DD",
"M+	c #DFE1DD",
"N+	c #E0E0DD",
"O+	c #DFE0DC",
"P+	c #DFDFDD",
"Q+	c #DFDFDC",
"R+	c #DEDEDC",
"S+	c #DDDFDB",
"T+	c #E0E1DE",
"U+	c #CACBC6",
"V+	c #A7A8A3",
"W+	c #CBCCC7",
"X+	c #EDEEEC",
"Y+	c #82837F",
"Z+	c #ADAEAA",
"`+	c #DDDEDB",
" @	c #D0D1CD",
".@	c #D4D6D1",
"+@	c #F0F0EF",
"@@	c #EFF0EE",
"#@	c #E1E1DE",
"$@	c #E2E3E0",
"%@	c #E3E3E0",
"&@	c #E2E2DF",
"*@	c #E2E2E0",
"=@	c #E1E3E0",
"-@	c #E1E2DE",
";@	c #E1E2DF",
">@	c #E5E6E2",
",@	c #BEC0BD",
"'@	c #CFD1CD",
")@	c #E3E4E0",
"!@	c #D2D2D0",
"~@	c #C5C7C2",
"{@	c #D5D7D3",
"]@	c #DADCD7",
"^@	c #D8DAD6",
"/@	c #E3E4E1",
"(@	c #F7F7F6",
"_@	c #F6F6F5",
":@	c #E7E8E6",
"<@	c #E3E4E2",
"[@	c #E5E5E2",
"}@	c #E4E5E2",
"|@	c #E4E4E1",
"1@	c #D4D5D3",
"2@	c #BDBEBB",
"3@	c #CCCDC9",
"4@	c #D5D7D2",
"5@	c #CED0CC",
"6@	c #CDCECB",
"7@	c #737670",
"8@	c #D6D8D4",
"9@	c #D0D0CD",
"0@	c #D2D4CF",
"a@	c #CDCFC9",
"b@	c #DBDDD9",
"c@	c #EBECEA",
"d@	c #EEEFED",
"e@	c #EFEFED",
"f@	c #F1F1F0",
"g@	c #E9EAE8",
"h@	c #D6D8D3",
"i@	c #D2D4D0",
"j@	c #CED0CB",
"k@	c #BCBDB8",
"l@	c #B8BAB3",
"m@	c #EDEEEB",
"n@	c #A3A6A1",
"o@	c #C3C6C4",
"p@	c #C8C9C9",
"q@	c #B8BAB4",
"r@	c #E1E1DF",
"s@	c #E0E2DF",
"t@	c #E3E5E2",
"u@	c #E4E6E2",
"v@	c #E5E6E3",
"w@	c #E5E7E4",
"x@	c #E8E9E6",
"y@	c #E9E9E7",
"z@	c #E9EAE7",
"A@	c #ADAFA9",
"B@	c #999C97",
"C@	c #AAACA9",
"D@	c #9A9C97",
"E@	c #A1A39E",
"F@	c #FBFBF9",
"G@	c #E2E4DF",
"H@	c #D5D6D1",
"I@	c #C5C7C3",
"J@	c #C8C9C5",
"K@	c #C9CAC6",
"L@	c #CBCBC8",
"M@	c #CDCECA",
"N@	c #CFD0CC",
"O@	c #CFD0CD",
"P@	c #CBCCC9",
"Q@	c #C2C3BF",
"R@	c #C0C1BD",
"S@	c #BFC1BC",
"T@	c #BDBFBA",
"U@	c #D2D3CE",
"V@	c #CFD1CC",
"W@	c #CDCEC9",
"X@	c #F6F7F5",
"Y@	c #9FA19D",
"Z@	c #3E4343",
"`@	c #8F918C",
" #	c #BFC0BB",
".#	c #C0C1BC",
"+#	c #BFC0BC",
"@#	c #B9BAB5",
"##	c #B7B8B4",
"$#	c #B8B9B5",
"%#	c #B7B9B5",
"&#	c #B8BAB6",
"*#	c #B6B7B3",
"=#	c #BBBCB8",
"-#	c #424747",
";#	c #2E3436",
">#	c #2B3132",
",#	c #292F31",
"'#	c #2A3031",
")#	c #2D3233",
"!#	c #2E3334",
"~#	c #2F3435",
"{#	c #343A3A",
"]#	c #3B4040",
"^#	c #3A3F40",
"/#	c #363B3B",
"(#	c #343939",
"_#	c #353A39",
":#	c #3F4343",
"<#	c #606362",
"[#	c #7B7E7D",
"}#	c #676967",
"|#	c #727574",
"1#	c #6F7271",
"2#	c #616462",
"3#	c #7F817F",
"4#	c #5E615F",
"5#	c #727474",
"6#	c #5D5F5E",
"7#	c #414541",
"8#	c #484A48",
"9#	c #363B3C",
"0#	c #2F3637",
"a#	c #33383A",
"b#	c #333839",
"c#	c #34393A",
"d#	c #353A3B",
"e#	c #404545",
"f#	c #444949",
"g#	c #414545",
"h#	c #3C4040",
"i#	c #3D4141",
"j#	c #3D4241",
"k#	c #484C4B",
"l#	c #6A6C6B",
"m#	c #848785",
"n#	c #6E6F6E",
"o#	c #787A79",
"p#	c #767978",
"q#	c #898B89",
"r#	c #616362",
"s#	c #7A7C7B",
"t#	c #646765",
"u#	c #494C4A",
"v#	c #4F514E",
"w#	c #33393B",
"x#	c #353B3C",
"y#	c #383D3E",
"z#	c #3A3F3F",
"A#	c #3C4141",
"B#	c #424646",
"C#	c #484C4C",
"D#	c #424645",
"E#	c #414544",
"F#	c #424545",
"G#	c #434646",
"H#	c #444847",
"I#	c #474B49",
"J#	c #4B4F4E",
"K#	c #4A4E4C",
"L#	c #444745",
"M#	c #444746",
"N#	c #4C4F4E",
"O#	c #4B4E4C",
"P#	c #484C49",
"Q#	c #494C49",
"R#	c #4B4D4C",
"S#	c #434747",
"T#	c #252A2C",
"U#	c #23282A",
"V#	c #2E3536",
"W#	c #2F3537",
"X#	c #303537",
"Y#	c #303638",
"Z#	c #313738",
"`#	c #323839",
" $	c #313739",
".$	c #313638",
"+$	c #34383A",
"@$	c #34393B",
"#$	c #343A3B",
"$$	c #303738",
"%$	c #222728",
"                        . + @ # $ % & *                         ",
"                        % = - ; > , ' )                         ",
"                        ! ~ { ] ^ / ( _                         ",
"                        : < [ } | 1 2 3                         ",
"                        4 5 6 7 8 9 0 a                         ",
"                        b c d e f g h i                         ",
"                        j k l m n o p q                         ",
"                        : r s t u v w x                         ",
"                y z % A B C D E F G H I q J K L                 ",
"                  M N O P Q R S T U V W X Y Z                   ",
"            `  ...+.@.#.$.%.&.S *.=.=.-.;.>.+.,.'.).            ",
"            !.~.{.].^./.(._.:.S *.=.<.[.}.|.1.2.3.4.            ",
"          5.6.7.8.9.0.a.b.c.d.S *.V e.f.g.h.i.j.k.l.m.          ",
"          n.o.p.q.r.s.t.u.v.w.x.-.y.z.u.A.B.i.2.{.C.D.          ",
"          E.F.G.H.I.J.K.L.M.N.O.P.Q.R.S.T.U.V.W.X.3.Y.          ",
"        Z.`. +.+++@+#+$+%+&+*+=+t -+;+>+,+'+)+q.!+3.~+{+        ",
"        ]+^+/+(+3._+:+<+[+}+|+1+2+3+4+U.5+6+!+7+8+9+0+j.        ",
"        a+b+c+d+e+f+f+2.g+h+i+j+k+l+m+8+n+b+2.o+p+q+6.r+        ",
"        s+)+t+u+v+w+x+x+y+z+v+A+B+C+d+z+D+D+d+f+E+F+G+H+        ",
"      I+t+J.J+K+L+M+N+O+L+P+C+Q+C.C.R+S+C.E+E+T+U+V+W+X+Y+      ",
"      Z+`+ @.@+@@@#@$@$@%@&@*@=@&@&@-@;@;@;@>@,@D..@'@)@Z+      ",
"      !@~@{@]@^@/@(@_@:@<@[@[@[@}@}@|@%@L+1@2@3@3.{@4@5@6@      ",
"    7@(@8@#+9@x+0@a@a@b@c@d@e@t+f@@@t+g@u+h@X.i@'@j@k@l@m@{+    ",
"    n@@@o@p@q@$@r@s@%@/@|@t@u@v@w@x@y@z@x@v@$@L+t@A@B@C@)@D@    ",
"    E@F@z+G@H@I@J@K@L@l+M@N@O@O@:+P@J@[+Q@R@S@S@T@U@V@W@X@Y@    ",
"    Z@`@,+,+ #R@.#R@.#+#.#+# #,+/+@###$#%#$#&###@#*#>+=#`@-#    ",
"    ;#>#,#'#>#)#!#~#{#]#^#/#(#_#:#<#[#}#|#1#2#3#4#5#6#7#8#9#    ",
"    0#a#b#c#d#/#9#^#e#f#g#h#i#j#k#l#m#n#o#p#l#q#r#s#t#u#v#9#    ",
"    '#w#x#y#z#]#A#B#C#C#D#E#F#G#H#I#J#K#L#M#N#O#P#Q#R#S#D#T#    ",
"        U#V#W#X#Y#Z#`# $.$Z# $`#+$@$#$+$b#c#c#+$c#{#$$%$        ",
"                                                                ",
"                                                                "};
