/* XPM */
static char * generic_red_light_xpm[] = {
"48 48 557 2",
"  	c None",
". 	c #B66841",
"+ 	c #D28C79",
"@ 	c #DEA195",
"# 	c #E6AAA2",
"$ 	c #EAAFA8",
"% 	c #EAAFA7",
"& 	c #E5A8A0",
"* 	c #D18A76",
"= 	c #B4633E",
"- 	c #CC8971",
"; 	c #EC9E9B",
"> 	c #F5D7D8",
", 	c #FCF2F2",
"' 	c #FBF0EE",
") 	c #FCF6F6",
"! 	c #FDFBFB",
"~ 	c #FDFEFD",
"{ 	c #FCF5F6",
"] 	c #FBEFEE",
"^ 	c #FDF2F2",
"/ 	c #F6D1D1",
"( 	c #E99A98",
"_ 	c #CB856D",
": 	c #9C4A14",
"< 	c #DA9188",
"[ 	c #F3C0BF",
"} 	c #FCF0EF",
"| 	c #FDFFFF",
"1 	c #FCF5F2",
"2 	c #FBF0EF",
"3 	c #FAF0F0",
"4 	c #FCF1F1",
"5 	c #FCF1F2",
"6 	c #FBF0F2",
"7 	c #FCF0F1",
"8 	c #FBF1F1",
"9 	c #FBF5F4",
"0 	c #FFFFFF",
"a 	c #FBECEC",
"b 	c #F1BDBC",
"c 	c #D88D80",
"d 	c #984711",
"e 	c #CD715F",
"f 	c #F3C0C1",
"g 	c #FBE9E9",
"h 	c #FDF2F3",
"i 	c #FAE9E9",
"j 	c #FBE7E7",
"k 	c #FBE7E8",
"l 	c #FAEAEA",
"m 	c #FDF3F3",
"n 	c #F9E9E8",
"o 	c #F2BBBC",
"p 	c #CC6957",
"q 	c #A44919",
"r 	c #E88483",
"s 	c #FADEDF",
"t 	c #F7E6E4",
"u 	c #F7DDDC",
"v 	c #F8DDDD",
"w 	c #F9DDDD",
"x 	c #F9DCDE",
"y 	c #F9E6E4",
"z 	c #F8DCDC",
"A 	c #E57B7B",
"B 	c #A54A19",
"C 	c #B74321",
"D 	c #EA9595",
"E 	c #F9DFE0",
"F 	c #F7D3D5",
"G 	c #F6D2D2",
"H 	c #F7D2D2",
"I 	c #F6D2D1",
"J 	c #F7D2D3",
"K 	c #F7D1D0",
"L 	c #F6D5D4",
"M 	c #FADFDF",
"N 	c #E88D8D",
"O 	c #B44020",
"P 	c #C23622",
"Q 	c #EA8E8E",
"R 	c #F7D5D5",
"S 	c #F4C7C5",
"T 	c #F5C6C8",
"U 	c #F4C7C6",
"V 	c #F5C6C7",
"W 	c #F4C6C6",
"X 	c #E78483",
"Y 	c #BF3822",
"Z 	c #BE321D",
"` 	c #E57071",
" .	c #F2C8C7",
"..	c #F2B9B8",
"+.	c #F2B8B9",
"@.	c #F2B8B8",
"#.	c #F2B9B7",
"$.	c #F3B9B8",
"%.	c #F2B8B7",
"&.	c #EFB9B9",
"*.	c #F1BAB9",
"=.	c #F3C9C8",
"-.	c #E56669",
";.	c #BC341D",
">.	c #B43D1D",
",.	c #DE4343",
"'.	c #F0B5B5",
").	c #F0ACAC",
"!.	c #EFACAC",
"~.	c #F1ABAC",
"{.	c #F0ACAD",
"].	c #F1ACAD",
"^.	c #EEAEAC",
"/.	c #F1B2B1",
"(.	c #DC3C3F",
"_.	c #B64121",
":.	c #AB4D22",
"<.	c #D82727",
"[.	c #E68687",
"}.	c #EEA6A4",
"|.	c #EC9E9F",
"1.	c #ED9E9D",
"2.	c #EC9E9E",
"3.	c #EC9E9D",
"4.	c #ED9E9E",
"5.	c #EDA8A7",
"6.	c #E88180",
"7.	c #D82524",
"8.	c #AD562C",
"9.	c #D82121",
"0.	c #DC4241",
"a.	c #EE999B",
"b.	c #EA9392",
"c.	c #ED9191",
"d.	c #EB9291",
"e.	c #EA9290",
"f.	c #EB9292",
"g.	c #EC9290",
"h.	c #EA9394",
"i.	c #EB9997",
"j.	c #DB3C3D",
"k.	c #D92222",
"l.	c #C23C27",
"m.	c #D62121",
"n.	c #E16566",
"o.	c #EA8E8F",
"p.	c #E78989",
"q.	c #E98A8A",
"r.	c #EA8A8B",
"s.	c #E98A8B",
"t.	c #EC8F90",
"u.	c #E05C5E",
"v.	c #D52220",
"w.	c #C3402D",
"x.	c #A75726",
"y.	c #D92727",
"z.	c #D62123",
"A.	c #E57B79",
"B.	c #E98384",
"C.	c #E88281",
"D.	c #E88282",
"E.	c #E78281",
"F.	c #EA8283",
"G.	c #E77776",
"H.	c #D52021",
"I.	c #D92729",
"J.	c #A96135",
"K.	c #C13C26",
"L.	c #D92625",
"M.	c #D82E2E",
"N.	c #E87979",
"O.	c #E77B7B",
"P.	c #E77A7A",
"Q.	c #E67A79",
"R.	c #E87A7B",
"S.	c #E77A7B",
"T.	c #E67977",
"U.	c #D82829",
"V.	c #D72725",
"W.	c #C33F2C",
"X.	c #D72726",
"Y.	c #D82425",
"Z.	c #D93434",
"`.	c #E57373",
" +	c #E67373",
".+	c #E67272",
"++	c #E57272",
"@+	c #E47271",
"#+	c #E67273",
"$+	c #E67372",
"%+	c #E67271",
"&+	c #D8302E",
"*+	c #D92526",
"=+	c #D72827",
"-+	c #B64728",
";+	c #D92726",
">+	c #D62525",
",+	c #DA3332",
"'+	c #E46C6C",
")+	c #E36C6C",
"!+	c #E36B6A",
"~+	c #E36B6B",
"{+	c #E36C6A",
"]+	c #E56C6D",
"^+	c #E56C6E",
"/+	c #E56D6E",
"(+	c #E46C6D",
"_+	c #E46D6D",
":+	c #E46B6B",
"<+	c #D82F2E",
"[+	c #D72626",
"}+	c #D72525",
"|+	c #B95030",
"1+	c #D62725",
"2+	c #D82628",
"3+	c #D72C2C",
"4+	c #E36262",
"5+	c #E36364",
"6+	c #E16362",
"7+	c #E26363",
"8+	c #E26564",
"9+	c #E36667",
"0+	c #E36766",
"a+	c #E46768",
"b+	c #E36767",
"c+	c #E26766",
"d+	c #E36768",
"e+	c #E26464",
"f+	c #E36263",
"g+	c #E26362",
"h+	c #E36363",
"i+	c #E26161",
"j+	c #D62829",
"k+	c #D52928",
"l+	c #DA2626",
"m+	c #D82828",
"n+	c #D62625",
"o+	c #E35857",
"p+	c #E15C5C",
"q+	c #E05B5B",
"r+	c #E15C5D",
"s+	c #E2605E",
"t+	c #E26160",
"u+	c #E16160",
"v+	c #E35F5F",
"w+	c #E25B5C",
"x+	c #E15D5D",
"y+	c #DF5654",
"z+	c #D62424",
"A+	c #D62724",
"B+	c #D72727",
"C+	c #D72728",
"D+	c #AB5125",
"E+	c #D72628",
"F+	c #D72524",
"G+	c #DD4444",
"H+	c #E05655",
"I+	c #E05856",
"J+	c #E1595A",
"K+	c #E05A59",
"L+	c #E15A5A",
"M+	c #E05A5A",
"N+	c #E05656",
"O+	c #E25655",
"P+	c #DB4140",
"Q+	c #D62425",
"R+	c #D62826",
"S+	c #B35C36",
"T+	c #B74529",
"U+	c #D82726",
"V+	c #D72627",
"W+	c #D93232",
"X+	c #E15555",
"Y+	c #DE5555",
"Z+	c #DF5554",
"`+	c #DE5453",
" @	c #DF5454",
".@	c #DF5555",
"+@	c #E25253",
"@@	c #D82625",
"#@	c #B74B2A",
"$@	c #C23D2A",
"%@	c #D62726",
"&@	c #D82627",
"*@	c #D62626",
"=@	c #D92B2B",
"-@	c #DC4746",
";@	c #DE504E",
">@	c #E04D4D",
",@	c #DE4D4C",
"'@	c #DF4D4D",
")@	c #DF504F",
"!@	c #DC4645",
"~@	c #D72625",
"{@	c #D82426",
"]@	c #C64731",
"^@	c #C53626",
"/@	c #D82626",
"(@	c #D82928",
"_@	c #D82C2B",
":@	c #DB3334",
"<@	c #DC4947",
"[@	c #DE4747",
"}@	c #DD4745",
"|@	c #DE4746",
"1@	c #DD4846",
"2@	c #DB3333",
"3@	c #D92B2A",
"4@	c #DA2627",
"5@	c #C73D2A",
"6@	c #C93325",
"7@	c #D92627",
"8@	c #D82A29",
"9@	c #D93534",
"0@	c #DD3E3D",
"a@	c #D93D3C",
"b@	c #DC3D3E",
"c@	c #DB3E3E",
"d@	c #DA3E3D",
"e@	c #DB3F3D",
"f@	c #DA3333",
"g@	c #D72928",
"h@	c #D62727",
"i@	c #CA3329",
"j@	c #C93426",
"k@	c #D52625",
"l@	c #DB3132",
"m@	c #D93736",
"n@	c #DA3637",
"o@	c #DA3636",
"p@	c #DA3635",
"q@	c #DB3636",
"r@	c #DA3131",
"s@	c #D62627",
"t@	c #D52726",
"u@	c #C93428",
"v@	c #C33925",
"w@	c #D52525",
"x@	c #D42525",
"y@	c #D42526",
"z@	c #D32626",
"A@	c #D32625",
"B@	c #D22525",
"C@	c #D62E2C",
"D@	c #D6302F",
"E@	c #D73030",
"F@	c #D52D2B",
"G@	c #D32525",
"H@	c #D42624",
"I@	c #D52526",
"J@	c #D52624",
"K@	c #C4402C",
"L@	c #BC3F26",
"M@	c #D32627",
"N@	c #D22627",
"O@	c #D42A2A",
"P@	c #D42C2C",
"Q@	c #D32C2B",
"R@	c #D52D2D",
"S@	c #D32A2A",
"T@	c #D22626",
"U@	c #D72624",
"V@	c #C2472F",
"W@	c #B54824",
"X@	c #D82728",
"Y@	c #D32524",
"Z@	c #CF2525",
"`@	c #D02526",
" #	c #D02525",
".#	c #CE2424",
"+#	c #CF2425",
"@#	c #CE2625",
"##	c #CF2726",
"$#	c #CF2727",
"%#	c #D02728",
"&#	c #CE2626",
"*#	c #CD2524",
"=#	c #CF2524",
"-#	c #D12526",
";#	c #D12625",
">#	c #D42628",
",#	c #B2492A",
"'#	c #A75528",
")#	c #DA2728",
"!#	c #D22523",
"~#	c #CD2425",
"{#	c #CD2525",
"]#	c #CE2525",
"^#	c #CD2424",
"/#	c #D72926",
"(#	c #AD5E34",
"_#	c #D92725",
":#	c #C82423",
"<#	c #C92423",
"[#	c #CA2424",
"}#	c #D12E27",
"|#	c #CF2526",
"1#	c #C42323",
"2#	c #C72324",
"3#	c #C62323",
"4#	c #C62324",
"5#	c #C72323",
"6#	c #C62422",
"7#	c #CF3129",
"8#	c #AC5027",
"9#	c #C22424",
"0#	c #C42324",
"a#	c #C42322",
"b#	c #C42224",
"c#	c #C32322",
"d#	c #C32321",
"e#	c #C52322",
"f#	c #AB5225",
"g#	c #C22122",
"h#	c #C02222",
"i#	c #C02323",
"j#	c #C02322",
"k#	c #BF2121",
"l#	c #C72322",
"m#	c #B74525",
"n#	c #C82425",
"o#	c #BB2121",
"p#	c #BD2223",
"q#	c #BC2222",
"r#	c #BB2222",
"s#	c #BD2122",
"t#	c #CD2526",
"u#	c #B94626",
"v#	c #D02627",
"w#	c #B8211F",
"x#	c #B72120",
"y#	c #B92120",
"z#	c #BB2120",
"A#	c #B34B27",
"B#	c #B1211E",
"C#	c #B62121",
"D#	c #B52120",
"E#	c #B2211E",
"F#	c #C72425",
"G#	c #B44C24",
"H#	c #C83025",
"I#	c #B51F22",
"J#	c #B2201F",
"K#	c #B1211F",
"L#	c #B22020",
"M#	c #B22120",
"N#	c #B32020",
"O#	c #B0201F",
"P#	c #B72021",
"Q#	c #CC3125",
"R#	c #C92523",
"S#	c #AC1F1D",
"T#	c #AB201F",
"U#	c #AF1F1E",
"V#	c #AF201F",
"W#	c #AE201E",
"X#	c #AF201E",
"Y#	c #AE2020",
"Z#	c #AB1F1D",
"`#	c #AB1F20",
" $	c #CE2423",
".$	c #AB5525",
"+$	c #C02223",
"@$	c #A71D1E",
"#$	c #AA1F1D",
"$$	c #AB1F1E",
"%$	c #A81C1E",
"&$	c #C32222",
"*$	c #AA5725",
"=$	c #AC4E25",
"-$	c #B82020",
";$	c #A21E1F",
">$	c #A71E1C",
",$	c #A71E1D",
"'$	c #A71D1D",
")$	c #A61E1C",
"!$	c #A61E1D",
"~$	c #A31C1C",
"{$	c #B72122",
"]$	c #B24C23",
"^$	c #AB5024",
"/$	c #B3201F",
"($	c #A11C1D",
"_$	c #A21D1B",
":$	c #A41D1D",
"<$	c #A31D1C",
"[$	c #A41D1E",
"}$	c #A11D1B",
"|$	c #A01D1D",
"1$	c #B51F20",
"2$	c #AC5024",
"3$	c #A25625",
"4$	c #9F1C1D",
"5$	c #9E1C1C",
"6$	c #A01C1C",
"7$	c #A01C1D",
"8$	c #9F1B1C",
"9$	c #B62020",
"0$	c #A65823",
"a$	c #A2321F",
"b$	c #9F1C1B",
"c$	c #9A1C1C",
"d$	c #9C1C1D",
"e$	c #9B1C1D",
"f$	c #9D1C1D",
"g$	c #9C1B1A",
"h$	c #9D1B1B",
"i$	c #9B1B1A",
"j$	c #9C1D1C",
"k$	c #9B1B1C",
"l$	c #9D1C1C",
"m$	c #981B1C",
"n$	c #A21E1B",
"o$	c #A8341F",
"p$	c #954B22",
"q$	c #A2201D",
"r$	c #9B1B1B",
"s$	c #981B1A",
"t$	c #991C1C",
"u$	c #9A1B1C",
"v$	c #991C1B",
"w$	c #991B1B",
"x$	c #971B1C",
"y$	c #9C1B1C",
"z$	c #AA221B",
"A$	c #99501E",
"B$	c #8E431E",
"C$	c #96271A",
"D$	c #941B1B",
"E$	c #951B1B",
"F$	c #941C1A",
"G$	c #951C1A",
"H$	c #961B1A",
"I$	c #961C1B",
"J$	c #951C1B",
"K$	c #941C1B",
"L$	c #95191A",
"M$	c #99271B",
"N$	c #95471F",
"O$	c #89381B",
"P$	c #98221B",
"Q$	c #951A1A",
"R$	c #941B1A",
"S$	c #951A1B",
"T$	c #961B1C",
"U$	c #961A1B",
"V$	c #981C1B",
"W$	c #9D241D",
"X$	c #903A1C",
"Y$	c #854921",
"Z$	c #863F1C",
"`$	c #8C3B1E",
" %	c #8F371F",
".%	c #8F3820",
"+%	c #8F3A1D",
"@%	c #8E411B",
"#%	c #914F1F",
"                                                                                                ",
"                                      . + @ # $ % & @ * =                                       ",
"                                - ; > , ' ) ! ~ ~ ! { ] ^ / ( _                                 ",
"                          : < [ } | 1 2 3 4 4 5 6 7 4 8 2 9 0 a b c d                           ",
"                        e f g h i j j k k k k k k k k k k k j l m n o p                         ",
"                    q r s t u v w w w w w w w w w v w v w v w w v x y z A B                     ",
"                  C D E F / G H H H H H H H H H H I H I H I H H H J K L M N O                   ",
"                P Q R S T U V V V V V V V V V V V W V W V W V V V V U T U R X Y                 ",
"              Z `  ...+.@...#.#.#.#.#.$.$.$.#.#.#.#.#.#.$.#.#.$.$.#.#.%.&.*.=.-.;.              ",
"            >.,.'.).!.~.{.!.{.{.{.{.{.{.{.{.{.{.{.!.{.!.{.!.{.{.{.{.!.).).].^./.(._.            ",
"          :.<.[.}.|.1.2.3.3.3.3.3.3.3.3.3.3.3.3.3.3.3.3.3.3.3.3.4.3.3.3.3.3.3.5.6.7.8.          ",
"          9.0.a.b.c.d.d.d.e.d.d.d.d.d.d.d.d.d.d.d.d.d.d.d.d.d.d.d.d.d.d.d.f.g.h.i.j.k.          ",
"        l.m.n.o.p.q.q.r.r.q.r.r.r.r.r.r.r.r.r.r.r.q.r.q.r.q.r.r.r.r.q.r.r.r.q.s.t.u.v.w.        ",
"      x.y.z.A.B.C.D.E.D.E.E.E.E.E.E.E.D.D.D.E.E.E.E.E.E.D.E.E.D.D.E.E.E.E.E.D.D.F.G.H.I.J.      ",
"      K.L.M.N.O.P.P.P.P.P.Q.P.P.P.P.P.P.P.P.P.P.P.P.P.P.P.P.P.P.P.P.P.P.P.P.P.R.S.T.U.V.W.      ",
"      X.Y.Z.`. +.+.+.+++++@+.+#+++.+$+$+$+$+$+$+$+$+$+$+$+$+#+++.+++.+++++.+.+.+ +%+&+*+=+      ",
"    -+;+>+,+'+)+!+~+!+~+~+{+]+^+^+/+/+/+^+^+^+^+^+(+^+(+/+_+/+^+^+(+{+~+~+~+~+:+)+!+<+[+}+|+    ",
"    1+2+[+3+4+5+6+7+6+8+9+0+a+b+b+b+b+b+b+b+b+b+b+c+b+c+b+c+b+b+b+d+0+9+e+7+f+g+h+i+j+X.X.k+    ",
"    l+V.m+n+o+p+q+r+s+t+i+u+i+i+i+i+i+i+i+i+i+i+i+u+i+u+i+u+i+i+i+i+u+i+i+v+w+w+x+y+z+A+B+C+    ",
"  D+2+1+E+F+G+H+I+J+K+L+L+K+L+L+L+L+L+L+L+L+L+L+L+K+L+K+L+K+L+L+L+L+K+L+L+K+M+N+O+P+Q+R+X.C+S+  ",
"  T+U+V.V+Y.W+X+Y+Z+`+ @ @`+ @ @ @ @ @ @ @ @ @ @ @`+ @`+ @`+ @ @ @ @`+ @ @ @Z+.@+@<+F+V.@@V+#@  ",
"  $@%@&@B+*@=@-@;@>@,@'@'@,@'@'@'@'@'@'@'@'@'@'@'@,@'@,@'@,@'@'@'@'@,@'@'@'@>@)@!@B+~@@@<.{@]@  ",
"  ^@2+/@[+(@_@:@<@[@}@|@|@}@|@|@|@|@|@|@|@|@|@|@|@}@|@}@|@}@|@|@|@|@}@|@|@|@[@1@2@3@U+U+4@[+5@  ",
"  6@7@;+[+m+8@C+9@0@a@b@c@d@c@c@c@c@c@c@c@c@c@c@c@d@c@d@c@d@c@c@c@c@d@c@b@e@0@f@&@g@%@n+/@h@i@  ",
"  j@U+;+[+X.X.U+k@l@m@n@o@p@q@q@q@q@q@q@q@q@q@q@q@p@q@p@q@p@q@q@q@q@p@q@o@m@r@s@V+t@k@X.<.&@u@  ",
"  v@7@[+w@x@y@z@A@B@C@D@D@D@D@D@D@D@D@D@D@D@D@D@D@D@D@D@D@D@D@D@E@D@D@D@D@F@G@H@I@I@H@J@X.[+K@  ",
"  L@&@s@z@M@M@z@M@z@N@O@P@Q@R@R@R@R@R@R@R@R@R@R@R@R@R@R@R@R@R@R@R@P@R@P@S@T@z@M@M@z@A@z@<.U@V@  ",
"  W@X@Y@Z@Z@Z@`@`@ #.#+#@###$#$#$#$#$#%#%#%#$#$#$#%#$#%#%#%#$#%#%#$#%#&#*#=# #`@`@-# #;#>#@@,#  ",
"  '#)#!#~#~#~#~#~#~#{#*#~#~#~#]#]#]#]#]#]#]#]#]#]#]#]#]#]#]#]#]#]#~#~#~#^#]#~#~#~#{#{#*#[+/#(#  ",
"    _#&#:#<#<#[#<#[#<#[#<#<#<#<#<#<#<#[#[#[#<#<#<#<#<#<#[#<#<#[#[#<#<#<#<#<#[#[#[#:#<#:#*@V.    ",
"    }#|#1#2#2#2#2#2#2#2#2#3#2#2#2#2#2#2#2#2#2#2#2#2#2#2#2#2#2#2#2#2#2#2#2#2#2#2#2#4#5#6#[+7#    ",
"    8#x@9#0#a#b#c#1#c#1#1#c#1#1#1#1#1#1#1#1#1#1#1#c#1#c#1#c#1#1#1#1#c#1#1#1#1#1#b#d#1#e#C+f#    ",
"      V+g#h#h#i#j#j#j#j#j#j#j#j#j#j#j#j#j#j#j#j#j#j#j#j#j#j#j#j#j#j#j#j#j#j#j#j#i#h#k#l#)#      ",
"      m#n#o#p#p#q#p#q#p#p#q#p#p#p#p#p#p#p#p#p#p#p#q#p#q#p#q#p#p#p#p#q#p#p#p#p#p#p#r#s#t#u#      ",
"        v#w#x#y#w#y#w#y#w#w#w#w#w#w#w#y#y#y#w#w#w#w#w#w#y#w#w#y#y#w#w#w#w#w#y#y#y#x#z#s@        ",
"        A#1#B#C#C#C#C#C#C#D#C#C#C#C#C#C#C#C#C#C#C#C#C#C#C#C#C#C#C#C#C#C#C#C#C#C#C#E#F#G#        ",
"          H#I#J#K#L#M#M#M#K#M#M#M#M#M#M#M#M#M#M#M#M#M#M#M#M#M#M#M#M#M#M#M#M#M#N#O#P#Q#          ",
"            R#S#T#U#V#V#V#W#V#V#V#V#V#V#V#V#V#V#V#V#V#V#V#V#V#V#V#V#V#V#V#X#Y#Z#`# $            ",
"            .$+$@$#$$$$$$$#$$$$$$$$$$$$$$$$$$$$$$$$$$$$$$$$$$$$$$$$$$$$$$$$$#$%$&$*$            ",
"              =$-$;$>$,$'$)$,$,$,$,$,$,$,$,$,$,$,$)$,$)$,$)$,$,$,$,$)$,$)$!$~${$]$              ",
"                ^$/$($_$:$<$:$:$:$:$:$:$:$:$:$:$:$<$:$<$:$<$:$:$:$:$<$[$}$|$1$2$                ",
"                  3$/$4$5$6$6$6$6$6$6$($($($6$6$6$6$6$6$($6$6$($7$6$6$8$4$9$0$                  ",
"                      a$b$c$d$e$f$g$g$h$h$h$g$g$g$g$g$g$h$g$i$j$k$l$m$n$o$                      ",
"                        p$q$r$s$m$t$u$c$u$u$v$v$v$v$w$v$c$c$t$x$s$y$z$A$                        ",
"                            B$C$c$D$E$E$F$G$H$I$H$J$K$H$H$D$L$j$M$N$                            ",
"                                  O$P$D$Q$R$Q$S$T$U$R$R$V$W$X$                                  ",
"                                        Y$Z$`$ %.%+%@%#%                                        ",
"                                                                                                "};
