/* XPM */
static char * generic_red_green_xpm[] = {
"48 48 459 2",
"  	c None",
". 	c #6AB03E",
"+ 	c #94C678",
"@ 	c #AAD394",
"# 	c #B4D9A4",
"$ 	c #BADCA8",
"% 	c #BADCA5",
"& 	c #B4D69F",
"* 	c #90C674",
"= 	c #65AC3C",
"- 	c #8CC46F",
"; 	c #B0D59B",
"> 	c #DEEDD4",
", 	c #F5F8F4",
"' 	c #F4F9EF",
") 	c #F7FBF4",
"! 	c #FBFCFB",
"~ 	c #FEFDFD",
"{ 	c #FBFDFA",
"] 	c #F8FBF6",
"^ 	c #F3F8F0",
"/ 	c #F4F9F1",
"( 	c #DBEBD2",
"_ 	c #ACD397",
": 	c #8BC26B",
"< 	c #9DCC86",
"[ 	c #CAE5BE",
"} 	c #F4F8EF",
"| 	c #FFFFFF",
"1 	c #F5FAF2",
"2 	c #F1FBEE",
"3 	c #F3F9F0",
"4 	c #F3F8EF",
"5 	c #F3F9F1",
"6 	c #F2F9F0",
"7 	c #F1F9EE",
"8 	c #F6FBF5",
"9 	c #EFF7EA",
"0 	c #C7E3BA",
"a 	c #97C97C",
"b 	c #80BA5F",
"c 	c #CDE4C0",
"d 	c #EDF5E8",
"e 	c #F5F9F2",
"f 	c #ECF6E9",
"g 	c #EBF5E7",
"h 	c #ECF5E8",
"i 	c #ECF5E7",
"j 	c #ECF6E7",
"k 	c #EBF6E7",
"l 	c #ECF4E7",
"m 	c #EEF6EA",
"n 	c #C8E2B9",
"o 	c #76BA53",
"p 	c #9DCB82",
"q 	c #E5F1DC",
"r 	c #EAF4E4",
"s 	c #E3F1DC",
"t 	c #E4F1DD",
"u 	c #E4F0DD",
"v 	c #E9F5E4",
"w 	c #E4F0DB",
"x 	c #94C778",
"y 	c #4EA121",
"z 	c #A9D292",
"A 	c #E3F2DD",
"B 	c #DCEED5",
"C 	c #D8EDD1",
"D 	c #DBECD0",
"E 	c #DAECD0",
"F 	c #DBECD1",
"G 	c #D9ECD0",
"H 	c #DBEFD3",
"I 	c #E6F1DD",
"J 	c #A3CE8B",
"K 	c #4AA11F",
"L 	c #4CA21D",
"M 	c #A3CF8B",
"N 	c #DEEDD5",
"O 	c #D3E6C7",
"P 	c #D3E6C5",
"Q 	c #D2E7C4",
"R 	c #D1E6C7",
"S 	c #D2E7C6",
"T 	c #D1E7C7",
"U 	c #D1E6C6",
"V 	c #DDEED5",
"W 	c #9CCC80",
"X 	c #4CA11F",
"Y 	c #48A016",
"Z 	c #8BC26E",
"` 	c #D2E8C7",
" .	c #C5E2B7",
"..	c #C5E1B7",
"+.	c #C6E2B8",
"@.	c #C6E2B7",
"#.	c #C7E1B7",
"$.	c #D3E7C7",
"%.	c #83BF62",
"&.	c #48A119",
"*.	c #48A11B",
"=.	c #68AF3F",
"-.	c #C2E0B4",
";.	c #BCDDAB",
">.	c #BCDCAA",
",.	c #BBDDAA",
"'.	c #BBDBA8",
").	c #BCDDAC",
"!.	c #C2DEB1",
"~.	c #62AD3A",
"{.	c #4CA21E",
"].	c #4EA421",
"^.	c #9ECB82",
"/.	c #B7DAA5",
"(.	c #B0D69C",
"_.	c #B0D69B",
":.	c #B8DAA5",
"<.	c #98CA7D",
"[.	c #4DA31F",
"}.	c #66AF3E",
"|.	c #AED498",
"1.	c #A7D18F",
"2.	c #A8D18F",
"3.	c #A8D190",
"4.	c #A8D290",
"5.	c #ABD497",
"6.	c #62AD39",
"7.	c #52A325",
"8.	c #4AA01C",
"9.	c #84BE62",
"0.	c #A4D18B",
"a.	c #A0CD88",
"b.	c #A1CD87",
"c.	c #A0CD87",
"d.	c #A1CD88",
"e.	c #A5D18C",
"f.	c #7DBA59",
"g.	c #4AA21A",
"h.	c #55A628",
"i.	c #50A422",
"j.	c #4DA11D",
"k.	c #93C875",
"l.	c #9CCA82",
"m.	c #9ACA80",
"n.	c #9CCA81",
"o.	c #8FC674",
"p.	c #4BA11B",
"q.	c #4FA423",
"r.	c #4FA321",
"s.	c #93C776",
"t.	c #94C777",
"u.	c #93C777",
"v.	c #93C677",
"w.	c #91C675",
"x.	c #51A424",
"y.	c #4FA41F",
"z.	c #54A528",
"A.	c #4FA421",
"B.	c #4EA321",
"C.	c #5BA92E",
"D.	c #8EC370",
"E.	c #8EC470",
"F.	c #8EC46F",
"G.	c #8EC36F",
"H.	c #56A82B",
"I.	c #50A322",
"J.	c #51A423",
"K.	c #52A526",
"L.	c #4EA31F",
"M.	c #5AA92D",
"N.	c #88C168",
"O.	c #88C169",
"P.	c #87C168",
"Q.	c #87C167",
"R.	c #87C067",
"S.	c #88C268",
"T.	c #89C26A",
"U.	c #55A829",
"V.	c #4FA320",
"W.	c #56A92E",
"X.	c #50A320",
"Y.	c #4FA322",
"Z.	c #4FA31F",
"`.	c #54A627",
" +	c #81BD5F",
".+	c #80BE5F",
"++	c #7FBD5F",
"@+	c #80BE60",
"#+	c #82BE61",
"$+	c #83BE62",
"%+	c #83BE61",
"&+	c #82BD61",
"*+	c #81BD60",
"=+	c #80BE5E",
"-+	c #80BD5E",
";+	c #7FBD5E",
">+	c #51A322",
",+	c #50A421",
"'+	c #52A524",
")+	c #50A522",
"!+	c #4EA221",
"~+	c #78B855",
"{+	c #7ABB58",
"]+	c #79B958",
"^+	c #7CBA5A",
"/+	c #7FBC5D",
"(+	c #7FBC5E",
"_+	c #7EBC5B",
":+	c #7CBA59",
"<+	c #7CB959",
"[+	c #7BBB5A",
"}+	c #76B852",
"|+	c #4EA21E",
"1+	c #51A422",
"2+	c #50A321",
"3+	c #51A623",
"4+	c #51A421",
"5+	c #4FA422",
"6+	c #50A323",
"7+	c #4DA21F",
"8+	c #67B040",
"9+	c #77B853",
"0+	c #77B854",
"a+	c #79BA57",
"b+	c #79B957",
"c+	c #78B956",
"d+	c #76B853",
"e+	c #64AE3C",
"f+	c #4EA21F",
"g+	c #5FAB35",
"h+	c #53A426",
"i+	c #50A41F",
"j+	c #50A423",
"k+	c #59A72E",
"l+	c #75B751",
"m+	c #74B750",
"n+	c #74B751",
"o+	c #73B64F",
"p+	c #57A72A",
"q+	c #52A727",
"r+	c #53A425",
"s+	c #54A527",
"t+	c #6AB243",
"u+	c #71B44C",
"v+	c #6FB44A",
"w+	c #70B449",
"x+	c #69B042",
"y+	c #4EA320",
"z+	c #59A92E",
"A+	c #53A523",
"B+	c #54A626",
"C+	c #5AA92E",
"D+	c #6AB242",
"E+	c #6AB143",
"F+	c #6AB142",
"G+	c #59A92D",
"H+	c #53A526",
"I+	c #51A321",
"J+	c #51A523",
"K+	c #5CAA30",
"L+	c #62AE3A",
"M+	c #61AD39",
"N+	c #62AD38",
"O+	c #53A525",
"P+	c #52A523",
"Q+	c #4EA420",
"R+	c #58A92E",
"S+	c #5CAB32",
"T+	c #5CA932",
"U+	c #58A82E",
"V+	c #50A222",
"W+	c #51A323",
"X+	c #52A422",
"Y+	c #4FA220",
"Z+	c #4FA120",
"`+	c #4FA121",
" @	c #4FA021",
".@	c #55A527",
"+@	c #57A52B",
"@@	c #56A52C",
"#@	c #56A52B",
"$@	c #57A52C",
"%@	c #57A62C",
"&@	c #54A428",
"*@	c #4EA120",
"=@	c #4FA020",
"-@	c #57A627",
";@	c #50A424",
">@	c #4EA021",
",@	c #4EA020",
"'@	c #4E9F20",
")@	c #4F9F20",
"!@	c #51A223",
"~@	c #53A328",
"{@	c #53A327",
"]@	c #53A326",
"^@	c #53A226",
"/@	c #51A124",
"(@	c #4D9F20",
"_@	c #4DA020",
":@	c #56A92A",
"<@	c #4D9D20",
"[@	c #4E9E21",
"}@	c #4E9E23",
"|@	c #4F9F24",
"1@	c #4F9F23",
"2@	c #4C9D1F",
"3@	c #4D9E20",
"4@	c #4C9E20",
"5@	c #55A327",
"6@	c #4B9B1F",
"7@	c #4C9C1F",
"8@	c #4C9C20",
"9@	c #4C9C21",
"0@	c #50A220",
"a@	c #4FA323",
"b@	c #4D9D21",
"c@	c #4A9A20",
"d@	c #4B9A20",
"e@	c #4B9A21",
"f@	c #4B991F",
"g@	c #4E9C20",
"h@	c #49971F",
"i@	c #4A971F",
"j@	c #53A323",
"k@	c #50A725",
"l@	c #4E9F21",
"m@	c #49941F",
"n@	c #48941D",
"o@	c #48951E",
"p@	c #49951E",
"q@	c #49961E",
"r@	c #53A421",
"s@	c #48921E",
"t@	c #47921D",
"u@	c #46911D",
"v@	c #4A971E",
"w@	c #51A51F",
"x@	c #49971E",
"y@	c #448E1E",
"z@	c #468F1C",
"A@	c #468E1E",
"B@	c #458D1C",
"C@	c #4D9C21",
"D@	c #4D9F22",
"E@	c #438C1C",
"F@	c #448C1D",
"G@	c #448D1C",
"H@	c #448C1C",
"I@	c #448B1D",
"J@	c #458E1D",
"K@	c #50A624",
"L@	c #43881B",
"M@	c #438B1D",
"N@	c #438A1C",
"O@	c #428A1C",
"P@	c #41881B",
"Q@	c #4B9720",
"R@	c #50A721",
"S@	c #4EA11F",
"T@	c #42891B",
"U@	c #43871D",
"V@	c #42881C",
"W@	c #43881C",
"X@	c #41871C",
"Y@	c #42861B",
"Z@	c #4B9A1F",
"`@	c #3E831B",
" #	c #40841A",
".#	c #3F851B",
"+#	c #41851A",
"@#	c #40851B",
"##	c #40831B",
"$#	c #40821B",
"%#	c #4B9C21",
"&#	c #48911E",
"*#	c #3E7F19",
"=#	c #3E821B",
"-#	c #3F821A",
";#	c #3F821B",
">#	c #3D7F19",
",#	c #47941F",
"'#	c #51A521",
")#	c #458A1E",
"!#	c #3C7C1A",
"~#	c #3E7F1A",
"{#	c #3D7F1A",
"]#	c #3D7E1B",
"^#	c #3D7E1C",
"/#	c #3C7F1A",
"(#	c #3E7E19",
"_#	c #3B7C1A",
":#	c #52A51F",
"<#	c #50A41E",
"[#	c #42881B",
"}#	c #3C781A",
"|#	c #3C7C1B",
"1#	c #3C7B1A",
"2#	c #3B7B1A",
"3#	c #3C7B18",
"4#	c #39791A",
"5#	c #44881B",
"6#	c #51A420",
"7#	c #40881B",
"8#	c #3B781A",
"9#	c #3B7919",
"0#	c #3B7A19",
"a#	c #3C791A",
"b#	c #3B7A1A",
"c#	c #3B7819",
"d#	c #3B771A",
"e#	c #428A1A",
"f#	c #448A1C",
"g#	c #3C7819",
"h#	c #397519",
"i#	c #3A7617",
"j#	c #3A7619",
"k#	c #3A7618",
"l#	c #3A7718",
"m#	c #3B7618",
"n#	c #387417",
"o#	c #3D7B1A",
"p#	c #458E1C",
"q#	c #3C7E18",
"r#	c #397518",
"s#	c #397316",
"t#	c #387318",
"u#	c #387517",
"v#	c #397417",
"w#	c #377316",
"x#	c #3F841A",
"y#	c #3A7C19",
"z#	c #387717",
"A#	c #366F16",
"B#	c #357018",
"C#	c #377119",
"D#	c #377217",
"E#	c #387119",
"F#	c #377219",
"G#	c #367219",
"H#	c #357218",
"I#	c #367017",
"J#	c #366F19",
"K#	c #3A7717",
"L#	c #3C7F1B",
"M#	c #3F7E19",
"N#	c #367217",
"O#	c #377018",
"P#	c #377017",
"Q#	c #367116",
"R#	c #357116",
"S#	c #367016",
"T#	c #367215",
"U#	c #3A7318",
"V#	c #3D7C1A",
"W#	c #3B8119",
"X#	c #40811B",
"Y#	c #3D841A",
"Z#	c #44871A",
"                                                                                                ",
"                                      . + @ # $ % & @ * =                                       ",
"                                - ; > , ' ) ! ~ ~ { ] ^ / ( _ :                                 ",
"                            < [ } | 1 2 3 / 4 3 3 5 / 6 7 8 | 9 0 a                             ",
"                        b c d e f g h i i g j k k j h i l g g m 1 d n o                         ",
"                      p q r s t t t t t t t t t t t t t t t t t t u v w x                       ",
"                  y z A B C D E D E E E E E E E E E E E E E E E E F G H I J K                   ",
"                L M N O P Q R S S S S S S S S S S S S S S S S S S T P U S V W X                 ",
"              Y Z `  ... .+.@.@.@.@.@.@.@.@.@.@.@.@.@.@.@.@.@.@.@.@. . .#.+.$.%.&.              ",
"            *.=.-.;.>.>.>.>.>.>.>.>.>.>.>.>.>.>.>.>.>.>.>.>.>.>.>.>.>.>.,.'.).!.~.{.            ",
"            ].^./.(.(.(.(.(.(.(.(.(.(.(.(.(.(.(.(.(.(.(.(.(.(.(.(.(.(.(._.(.(.:.<.[.            ",
"          L }.|.1.2.3.3.3.3.3.3.3.3.3.3.3.3.3.3.3.3.3.3.3.3.3.3.3.3.3.3.3.3.3.4.5.6.L           ",
"        7.8.9.0.a.b.c.c.c.c.c.c.c.c.c.c.c.c.c.c.c.c.c.c.c.c.c.c.c.c.c.c.c.c.c.d.e.f.g.h.        ",
"        i.j.k.l.m.m.m.m.m.m.m.m.m.m.m.m.m.m.m.m.m.m.m.m.m.m.m.m.m.m.m.m.m.m.m.m.n.o.p.q.        ",
"      i.r.h.s.t.s.s.s.s.s.s.s.s.s.s.s.s.s.s.s.s.s.s.s.s.s.s.s.s.s.s.u.s.s.s.s.v.v.w.x.y.z.      ",
"      A.B.C.D.E.F.F.F.F.F.F.F.E.D.E.E.E.E.E.E.E.E.E.E.E.E.E.E.E.E.F.F.F.F.F.F.E.E.G.H.I.J.      ",
"    K.i.L.M.N.O.P.P.Q.Q.R.N.S.T.T.T.T.T.T.T.T.T.T.T.T.T.T.T.T.T.T.T.N.Q.P.P.P.P.O.P.U.r.V.W.    ",
"    X.Y.Z.`. +.+.+++@+@+#+%.$+$+$+$+$+$+$+$+$+$+$+$+$+$+$+$+$+$+$+$+%+&+*+=+-+.+.+;+>+,+r.'+    ",
"    )+i.i.!+~+{+]+^+/+(+/+/+/+/+/+/+/+/+/+/+/+/+/+/+/+/+/+/+/+/+/+/+/+/+/+_+:+<+[+}+|+1+2+,+    ",
"  3+4+5+6+7+8+9+0+a+a+a+a+a+a+a+a+a+a+a+a+a+a+a+a+a+a+a+a+a+a+a+a+a+a+a+a+b+c+d+0+e+f+1+6+4+g+  ",
"  h+i+i.j+L.k+l+l+m+m+m+m+m+m+m+m+m+m+m+m+m+m+m+m+m+m+m+m+m+m+m+m+m+m+m+n+m+n+m+o+p+V.>+,+X.q+  ",
"  r+2+>+5+2+s+t+u+v+w+w+w+w+w+w+w+w+w+w+w+w+w+w+w+w+w+w+w+w+w+w+w+w+w+w+w+w+w+u+x+J.2+2+1+y+z+  ",
"  2+4+2+5+A+B+C+D+E+F+F+F+F+F+F+F+F+F+F+F+F+F+F+F+F+F+F+F+F+F+F+F+F+F+F+F+F+E+E+G+H+1+1+I.r.h.  ",
"  A.>+I+Y.J+J+j+K+L+M+N+6.6.6.6.6.6.6.6.6.6.6.6.6.6.6.6.6.6.6.6.6.6.6.6.6.6.L+C+I.O+P+2+i.Y.4+  ",
"  ,+>+4+,+i.i.Q+I.R+S+T+T+T+T+T+T+T+T+T+T+T+T+T+T+T+T+T+T+T+T+T+T+T+T+T+T+S+U+V+V+W+1+4+i.j+X+  ",
"  I.,+1+Y+Y+Z+`+Z+ @.@+@@@#@#@$@$@$@$@$@$@$@$@$@$@$@$@$@$@$@$@$@$@$@#@+@%@&@*@*@=@`+Y+2+i.Y.-@  ",
"  ;@,+V+>@,@,@>@'@'@)@!@~@~@~@{@~@{@{@{@{@{@{@{@{@{@{@{@{@{@{@{@~@{@]@^@/@(@,@>@>@_@,@>@r.Y.:@  ",
"  q.4+`+<@<@<@<@<@[@<@<@}@}@}@|@|@|@|@|@|@|@|@|@|@|@|@|@|@|@|@|@|@1@[@[@2@3@[@<@<@<@3@4@I.2+5@  ",
"    4+(@6@7@7@7@7@7@7@7@8@9@9@9@9@9@9@9@9@9@9@9@9@9@9@9@9@9@9@9@9@8@7@7@6@8@8@7@7@7@8@8@0@a@    ",
"    4+b@c@d@d@d@d@d@d@d@d@d@d@d@d@d@d@d@d@d@d@d@d@d@d@d@d@d@d@d@d@d@d@d@d@d@d@d@d@d@e@f@Y+2+    ",
"    5+g@h@h@h@h@h@h@h@h@h@h@h@h@h@h@h@h@h@h@h@h@h@h@h@h@h@h@h@h@h@h@h@h@h@h@h@h@h@h@i@h@Y.j@    ",
"    k@l@m@n@o@p@o@o@o@o@o@o@o@o@o@o@o@o@o@o@o@o@o@o@o@o@o@o@o@o@o@o@o@o@o@o@o@o@p@o@o@q@6+r@    ",
"      V.s@s@s@t@t@t@t@t@t@t@t@t@t@t@t@t@t@t@t@t@t@t@t@t@t@t@t@t@t@t@t@t@t@t@t@t@t@t@u@v@,+      ",
"      w@x@y@z@A@A@A@A@A@A@A@A@A@A@A@A@A@A@A@A@A@A@A@A@A@A@A@A@A@A@A@A@A@A@A@A@A@A@A@B@C@3+      ",
"        D@E@F@B@G@G@G@G@G@G@G@G@G@G@G@G@G@G@G@G@G@G@G@G@G@G@G@G@G@G@G@G@G@G@G@H@H@I@J@Z+        ",
"        K@p@L@M@M@M@M@M@M@M@M@M@M@M@M@M@M@M@M@M@M@M@M@M@M@M@M@M@M@M@M@M@M@M@M@N@O@P@Q@R@        ",
"          S@T@U@V@W@W@W@W@W@W@W@W@W@W@W@W@W@W@W@W@W@W@W@W@W@W@W@W@W@W@W@W@W@W@X@Y@I@A.          ",
"            Z@`@ #.#+#@#@#@#@#@#@#@#@#@#@#@#@#@#@#@#@#@#@#@#@#@#@#@#@#@#@#@#@###$#%#            ",
"              &#*#=#-#;#-#-#-#-#-#-#-#-#-#-#-#-#-#-#-#-#-#-#-#-#-#-#-#-#-#;#;#>#,#              ",
"              '#)#!#~#{#]#]#]#]#]#]#]#]#]#]#]#]#]#]#]#]#]#]#]#]#]#]#]#^#/#(#_#E@:#              ",
"                <#[#}#|#1#2#2#2#2#2#2#2#2#2#2#2#2#2#2#2#2#2#2#2#2#2#2#2#3#4#5#6#                ",
"                    7#8#9#0#a#b#b#0#b#b#b#b#b#b#b#b#b#b#b#b#b#b#b#b#b#c#d#e#                    ",
"                      f#g#h#i#j#k#k#l#l#l#l#l#l#l#l#l#l#l#l#l#k#m#j#n#o#p#                      ",
"                          q#r#s#t#u#v#v#v#v#v#v#v#v#v#v#v#v#v#w#t#r#x#                          ",
"                              y#z#A#B#C#D#D#D#C#E#C#F#G#H#I#J#K#L#                              ",
"                                  M#9#N#O#P#Q#R#S#Q#T#S#U#V# #                                  ",
"                                          W#X#Y#`@##Z#                                          ",
"                                                                                                "};
