/* XPM */
static char * generic_add_xpm[] = {
"32 32 475 2",
"  	c None",
". 	c #11460F",
"+ 	c #023900",
"@ 	c #003600",
"# 	c #003500",
"$ 	c #003300",
"% 	c #003200",
"& 	c #033402",
"* 	c #184618",
"= 	c #0A4209",
"- 	c #71996B",
"; 	c #618F5C",
"> 	c #4F804A",
", 	c #4F7E4A",
"' 	c #4F7B4A",
") 	c #50794C",
"! 	c #6B8D67",
"~ 	c #8F9F8D",
"{ 	c #114210",
"] 	c #003B00",
"^ 	c #528F4C",
"/ 	c #9DD49C",
"( 	c #89BC83",
"_ 	c #8DBC87",
": 	c #8FBF8A",
"< 	c #91C08B",
"[ 	c #AFE2AE",
"} 	c #5D815A",
"| 	c #003C00",
"1 	c #45913E",
"2 	c #92D88F",
"3 	c #7BBE74",
"4 	c #7EB678",
"5 	c #81B27B",
"6 	c #83B37D",
"7 	c #A2D6A1",
"8 	c #4C7849",
"9 	c #003E00",
"0 	c #489A41",
"a 	c #94E090",
"b 	c #79CB71",
"c 	c #79C072",
"d 	c #7CB576",
"e 	c #7EB078",
"f 	c #9FD49D",
"g 	c #4D7D4A",
"h 	c #003400",
"i 	c #003F00",
"j 	c #4AA342",
"k 	c #99E695",
"l 	c #7CD274",
"m 	c #78CA6F",
"n 	c #78BD70",
"o 	c #79AF72",
"p 	c #9AD199",
"q 	c #4C8049",
"r 	c #004100",
"s 	c #4CAC44",
"t 	c #9EED9A",
"u 	c #81D978",
"v 	c #7AD071",
"w 	c #74C66C",
"x 	c #74B46C",
"y 	c #95CE94",
"z 	c #4B8347",
"A 	c #004300",
"B 	c #4FB546",
"C 	c #A3F39E",
"D 	c #84DF7B",
"E 	c #7CD572",
"F 	c #73CA6A",
"G 	c #6FBA67",
"H 	c #91CE8F",
"I 	c #4A8546",
"J 	c #003700",
"K 	c #004500",
"L 	c #51BD47",
"M 	c #A7F8A1",
"N 	c #86E57C",
"O 	c #7CD873",
"P 	c #73CD69",
"Q 	c #6BBD62",
"R 	c #8DCF8B",
"S 	c #498644",
"T 	c #004600",
"U 	c #52C447",
"V 	c #A8FBA2",
"W 	c #86E77C",
"X 	c #7BDA71",
"Y 	c #70CE67",
"Z 	c #67BE5D",
"` 	c #88CF86",
" .	c #478643",
"..	c #003800",
"+.	c #014700",
"@.	c #59CA4E",
"#.	c #A6FCA0",
"$.	c #84E779",
"%.	c #78DA6E",
"&.	c #6CCD62",
"*.	c #62BD58",
"=.	c #83CD80",
"-.	c #52934C",
";.	c #023C01",
">.	c #446B41",
",.	c #0A4307",
"'.	c #034200",
").	c #034500",
"!.	c #034800",
"~.	c #034B00",
"{.	c #034E00",
"].	c #035100",
"^.	c #035400",
"/.	c #055600",
"(.	c #13640D",
"_.	c #6BC962",
":.	c #9EF998",
"<.	c #7EE573",
"[.	c #72D768",
"}.	c #67CA5C",
"|.	c #5DBA52",
"1.	c #7AC777",
"2.	c #76B072",
"3.	c #1F581C",
"4.	c #064203",
"5.	c #013D00",
"6.	c #013B00",
"7.	c #013800",
"8.	c #003000",
"9.	c #002E00",
"0.	c #002D00",
"a.	c #073106",
"b.	c #626D61",
"c.	c #103A0E",
"d.	c #2A5F27",
"e.	c #49AB40",
"f.	c #51B648",
"g.	c #60C257",
"h.	c #6CCE62",
"i.	c #75D96C",
"j.	c #7FE374",
"k.	c #8BE781",
"l.	c #94EA8C",
"m.	c #95EC8C",
"n.	c #92EC89",
"o.	c #9CF096",
"p.	c #91F18B",
"q.	c #75DF6A",
"r.	c #6AD25F",
"s.	c #5FC654",
"t.	c #56B34C",
"u.	c #74BE71",
"v.	c #95CF93",
"w.	c #87C282",
"x.	c #7EBB79",
"y.	c #7CB778",
"z.	c #7EB67A",
"A.	c #7FB37B",
"B.	c #81B17D",
"C.	c #81AF7E",
"D.	c #82AD80",
"E.	c #84AD81",
"F.	c #95BA91",
"G.	c #3D603C",
"H.	c #123011",
"I.	c #1C5714",
"J.	c #28A71C",
"K.	c #2EBB21",
"L.	c #48CC3C",
"M.	c #63DD57",
"N.	c #78EC6D",
"O.	c #87F77D",
"P.	c #91FE87",
"Q.	c #98FF8E",
"R.	c #99FF8F",
"S.	c #93FC89",
"T.	c #8AF27F",
"U.	c #7CE573",
"V.	c #6AD75F",
"W.	c #5FCA54",
"X.	c #55BE4A",
"Y.	c #52AB48",
"Z.	c #5BA054",
"`.	c #62A45B",
" +	c #67A861",
".+	c #6CAB66",
"++	c #70AE69",
"@+	c #73B06D",
"#+	c #76B270",
"$+	c #7AB473",
"%+	c #7CB776",
"&+	c #7FB97A",
"*+	c #82BB7C",
"=+	c #8CC386",
"-+	c #385334",
";+	c #022202",
">+	c #154C0F",
",+	c #148807",
"'+	c #0F9E00",
")+	c #1EB00F",
"!+	c #2FC020",
"~+	c #42D034",
"{+	c #58DD4A",
"]+	c #6AE75C",
"^+	c #73EB66",
"/+	c #74EB68",
"(+	c #71E765",
"_+	c #6BE05F",
":+	c #64D658",
"<+	c #5CCC50",
"[+	c #52C146",
"}+	c #4CB241",
"|+	c #4C9D43",
"1+	c #4E9246",
"2+	c #509548",
"3+	c #549B4C",
"4+	c #57A04F",
"5+	c #5AA553",
"6+	c #5EA856",
"7+	c #61AA59",
"8+	c #64AA5C",
"9+	c #67A960",
"0+	c #6AA763",
"a+	c #6DA666",
"b+	c #78B072",
"c+	c #274D22",
"d+	c #002300",
"e+	c #14460D",
"f+	c #137808",
"g+	c #0C8C00",
"h+	c #14A305",
"i+	c #21B212",
"j+	c #2DBE1E",
"k+	c #36C827",
"l+	c #41CF32",
"m+	c #4CD53E",
"n+	c #58D74B",
"o+	c #5ED651",
"p+	c #5BD14F",
"q+	c #54C848",
"r+	c #4BBF3F",
"s+	c #44B339",
"t+	c #45A03A",
"u+	c #46913E",
"v+	c #4A9742",
"w+	c #4EA145",
"x+	c #51AB48",
"y+	c #55B24B",
"z+	c #59B74F",
"A+	c #5CBA52",
"B+	c #5FBB55",
"C+	c #62BB58",
"D+	c #65B85C",
"E+	c #67B45F",
"F+	c #6AAF62",
"G+	c #75B16E",
"H+	c #285623",
"I+	c #002800",
"J+	c #14430E",
"K+	c #137009",
"L+	c #0A7400",
"M+	c #0E8C00",
"N+	c #12A003",
"O+	c #1CAC0D",
"P+	c #25B416",
"Q+	c #2ABA1B",
"R+	c #2CBC1D",
"S+	c #2DBD1E",
"T+	c #30BB21",
"U+	c #37B929",
"V+	c #3CB730",
"W+	c #3EB032",
"X+	c #3E9F33",
"Y+	c #3F9036",
"Z+	c #429839",
"`+	c #46A63B",
" @	c #4AB13F",
".@	c #50BA44",
"+@	c #56BF4A",
"@@	c #5BC350",
"#@	c #5FC555",
"$@	c #62C658",
"%@	c #64C659",
"&@	c #64C45A",
"*@	c #65C15B",
"=@	c #65BC5C",
"-@	c #71BB68",
";@	c #275E21",
">@	c #002B00",
",@	c #174212",
"'@	c #137508",
")@	c #096E00",
"!@	c #0B7600",
"~@	c #0C8800",
"{@	c #0E9800",
"]@	c #12A202",
"^@	c #16A806",
"/@	c #18AB08",
"(@	c #17AA08",
"_@	c #13A704",
":@	c #0E9F00",
"<@	c #109602",
"[@	c #1D8811",
"}@	c #2C8522",
"|@	c #3A9630",
"1@	c #41A836",
"2@	c #47B63D",
"3@	c #4FBF44",
"4@	c #58C54D",
"5@	c #5FCB54",
"6@	c #65CE5A",
"7@	c #69D05F",
"8@	c #6BD161",
"9@	c #6CD163",
"0@	c #6DCF63",
"a@	c #6BCC61",
"b@	c #68C85F",
"c@	c #6FC866",
"d@	c #2A6922",
"e@	c #2D5928",
"f@	c #1CB70F",
"g@	c #15B408",
"h@	c #15B208",
"i@	c #16BA07",
"j@	c #17C007",
"k@	c #18C407",
"l@	c #18C707",
"m@	c #17C607",
"n@	c #14C105",
"o@	c #17C00A",
"p@	c #23A61E",
"q@	c #0A6D00",
"r@	c #0B7B00",
"s@	c #169609",
"t@	c #2BAC1D",
"u@	c #57C94C",
"v@	c #74D771",
"w@	c #7CDD79",
"x@	c #84E281",
"y@	c #89E586",
"z@	c #8CE789",
"A@	c #8EE78B",
"B@	c #8FE68C",
"C@	c #8EE58C",
"D@	c #8DE28A",
"E@	c #8ADF88",
"F@	c #8DE08A",
"G@	c #44823C",
"H@	c #053603",
"I@	c #163716",
"J@	c #61745F",
"K@	c #144E10",
"L@	c #0A4806",
"M@	c #0A4B06",
"N@	c #0A4D06",
"O@	c #0A4F06",
"P@	c #0A5006",
"Q@	c #0B5106",
"R@	c #0A5306",
"S@	c #0F5A0B",
"T@	c #1D6518",
"U@	c #66CA66",
"V@	c #39B53D",
"W@	c #0B7500",
"X@	c #0D8D00",
"Y@	c #11A102",
"Z@	c #1AAD0B",
"`@	c #43CD32",
" #	c #63C659",
".#	c #257420",
"+#	c #1B7215",
"@#	c #187113",
"##	c #196F13",
"$#	c #196E13",
"%#	c #196D13",
"&#	c #186A13",
"*#	c #186613",
"=#	c #176213",
"-#	c #1F631B",
";#	c #689A62",
">#	c #184815",
",#	c #0A4108",
"'#	c #4EA74E",
")#	c #3BBA3E",
"!#	c #0C8200",
"~#	c #0F9C01",
"{#	c #1BAC0C",
"]#	c #28B919",
"^#	c #4DD63D",
"/#	c #47BC38",
"(#	c #003900",
"_#	c #389738",
":#	c #3DC040",
"<#	c #0C8E00",
"[#	c #15A505",
"}#	c #24B415",
"|#	c #31C222",
"1#	c #5AE04A",
"2#	c #3CBB2D",
"3#	c #014600",
"4#	c #359035",
"5#	c #3EC540",
"6#	c #0E9700",
"7#	c #1AAB0B",
"8#	c #39CA2A",
"9#	c #62E752",
"0#	c #3DBC2E",
"a#	c #004700",
"b#	c #358B36",
"c#	c #3EC940",
"d#	c #109C00",
"e#	c #1FAF0F",
"f#	c #30C021",
"g#	c #3ECF2F",
"h#	c #68EC58",
"i#	c #40BC31",
"j#	c #358536",
"k#	c #3ECB40",
"l#	c #119F02",
"m#	c #32C223",
"n#	c #41D232",
"o#	c #6BEF5B",
"p#	c #41BC32",
"q#	c #347D36",
"r#	c #3ECC40",
"s#	c #22B213",
"t#	c #33C324",
"u#	c #42D333",
"v#	c #6CF05C",
"w#	c #41BA32",
"x#	c #003100",
"y#	c #337736",
"z#	c #109E01",
"A#	c #20B111",
"B#	c #31C122",
"C#	c #40D131",
"D#	c #6AEF5A",
"E#	c #40B532",
"F#	c #004400",
"G#	c #327435",
"H#	c #0F9A00",
"I#	c #1DAE0E",
"J#	c #2EBE1F",
"K#	c #3CCD2D",
"L#	c #66EC56",
"M#	c #3DAE2F",
"N#	c #004200",
"O#	c #357438",
"P#	c #3DC93F",
"Q#	c #0B9500",
"R#	c #16AB07",
"S#	c #27BA18",
"T#	c #35C926",
"U#	c #5FE94E",
"V#	c #3FAA32",
"W#	c #033302",
"X#	c #4C7D4F",
"Y#	c #45B447",
"Z#	c #1C8810",
"`#	c #209C13",
" $	c #2CAA1F",
".$	c #37B62A",
"+$	c #58D249",
"@$	c #52AA48",
"#$	c #054204",
"$$	c #274327",
"%$	c #2B4F2B",
"&$	c #1E381B",
"*$	c #0D3209",
"=$	c #0D3C08",
"-$	c #0E4608",
";$	c #0E4D08",
">$	c #1D5D14",
",$	c #30672D",
"'$	c #2A5D28",
"                        . + @ # $ % & *                         ",
"                      = - ; > , ' ) ! ~ {                       ",
"                      ] ^ / ( _ : < [ } $                       ",
"                      | 1 2 3 4 5 6 7 8 $                       ",
"                      9 0 a b c d e f g h                       ",
"                      i j k l m n o p q #                       ",
"                      r s t u v w x y z @                       ",
"                      A B C D E F G H I J                       ",
"                      K L M N O P Q R S J                       ",
"                      T U V W X Y Z `  ...                      ",
"                      +.@.#.$.%.&.*.=.-.;.                      ",
"  >.,.'.).!.~.{.].^./.(._.:.<.[.}.|.1.2.3.4.5.6.7.h 8.9.0.a.b.  ",
"c.d.e.f.g.h.i.j.k.l.m.n.o.p.q.r.s.t.u.v.w.x.y.z.A.B.C.D.E.F.G.H.",
"  I.J.K.L.M.N.O.P.Q.R.S.T.U.V.W.X.Y.Z.`. +.+++@+#+$+%+&+*+=+-+;+",
"  >+,+'+)+!+~+{+]+^+/+(+_+:+<+[+}+|+1+2+3+4+5+6+7+8+9+0+a+b+c+d+",
"  e+f+g+h+i+j+k+l+m+n+o+p+q+r+s+t+u+v+w+x+y+z+A+B+C+D+E+F+G+H+I+",
"  J+K+L+M+N+O+P+Q+R+S+T+U+V+W+X+Y+Z+`+ @.@+@@@#@$@%@&@*@=@-@;@>@",
"  ,@'@)@!@~@{@]@^@/@(@_@:@<@[@}@|@1@2@3@4@5@6@7@8@9@0@a@b@c@d@9.",
"  e@f@g@h@g@i@j@k@l@m@n@o@p@q@r@s@t@u@v@w@x@y@z@A@B@C@D@E@F@G@H@",
"I@J@K@L@M@N@O@P@Q@R@S@T@U@V@W@X@Y@Z@`@ #.#+#@###$#%#&#*#=#-#;#>#",
"                      ,#'#)#!#~#{#]#^#/#P@                      ",
"                      (#_#:#<#[#}#|#1#2#3#                      ",
"                      ..4#5#6#7#Q+8#9#0#a#                      ",
"                      @ b#c#d#e#f#g#h#i#T                       ",
"                      # j#k#l#i+m#n#o#p#T                       ",
"                      $ q#r#l#s#t#u#v#w#K                       ",
"                      x#y#r#z#A#B#C#D#E#F#                      ",
"                      8.G#c#H#I#J#K#L#M#N#                      ",
"                      8.O#P#Q#R#S#T#U#V#r                       ",
"                      W#X#Y#Z#`# $.$+$@$#$                      ",
"                      $$%$&$*$=$-$;$>$,$'$                      ",
"                                                                "};
