/* XPM */
static char * generic_hide_xpm[] = {
"24 24 44 1",
" 	c None",
".	c #FFFFFF",
"+	c #D1D1D1",
"@	c #F5F6F5",
"#	c #D8D8D8",
"$	c #EFEFEF",
"%	c #FCFCFC",
"&	c #7E7E7E",
"*	c #B7B7B7",
"=	c #737373",
"-	c #C0C0C0",
";	c #D5D6D5",
">	c #BDBDBD",
",	c #060606",
"'	c #A7A8A8",
")	c #F2F2F2",
"!	c #727272",
"~	c #515151",
"{	c #474747",
"]	c #A1A1A1",
"^	c #303030",
"/	c #A0A0A0",
"(	c #E5E5E5",
"_	c #DFDFDF",
":	c #919191",
"<	c #969696",
"[	c #636363",
"}	c #A4A4A4",
"|	c #7B7B7B",
"1	c #767676",
"2	c #484848",
"3	c #141414",
"4	c #202020",
"5	c #4D4D4D",
"6	c #505050",
"7	c #4C4C4C",
"8	c #252525",
"9	c #9D9E9D",
"0	c #B3B3B3",
"a	c #7A7A7A",
"b	c #ECECEC",
"c	c #CACBCB",
"d	c #A5A5A5",
"e	c #F9F9F9",
"........................",
"........................",
"........................",
"........................",
"........................",
"........................",
"........................",
"........................",
"........................",
"......+@.........#$.....",
"....%&*..........%=-;...",
"....>,'%.........)!~....",
"....{],^/(....._:^<%....",
"....[}|1234567859)......",
"....0a)~$2b(((..........",
"....%c.d(0..............",
".......e%(..............",
"........................",
"........................",
"........................",
"........................",
"........................",
"........................",
"........................"};
