/* XPM */
static char * generic_show_xpm[] = {
"24 24 62 1",
" 	c None",
".	c #FFFFFF",
"+	c #F5F6F5",
"@	c #DBDBDB",
"#	c #EFEFEF",
"$	c #CACBCB",
"%	c #E5E5E5",
"&	c #999999",
"*	c #7B7B7B",
"=	c #8F8F8F",
"-	c #9A9A9A",
";	c #7E7E7E",
">	c #D8D8D8",
",	c #484848",
"'	c #303030",
")	c #959595",
"!	c #919191",
"~	c #828282",
"{	c #B2B2B2",
"]	c #444444",
"^	c #C0C0C0",
"/	c #3F3F3F",
"(	c #595959",
"_	c #060606",
":	c #575757",
"<	c #000000",
"[	c #1E1E1E",
"}	c #676767",
"|	c #393939",
"1	c #AFAFAF",
"2	c #7A7A7A",
"3	c #515151",
"4	c #202020",
"5	c #EBEBEB",
"6	c #B0B1B0",
"7	c #373837",
"8	c #E4E5E4",
"9	c #6B6B6B",
"0	c #F7F7F7",
"a	c #D5D5D5",
"b	c #E2E2E2",
"c	c #D1D1D1",
"d	c #C1C1C1",
"e	c #8D8D8D",
"f	c #4F4F4F",
"g	c #777777",
"h	c #3A3A3A",
"i	c #D5D6D5",
"j	c #B6B6B6",
"k	c #E1E1E1",
"l	c #C7C7C7",
"m	c #D4D4D4",
"n	c #E3E3E3",
"o	c #F2F2F2",
"p	c #8B8B8B",
"q	c #1A1A1A",
"r	c #464646",
"s	c #727272",
"t	c #B0B0B0",
"u	c #FCFCFC",
"v	c #A5A5A5",
"w	c #929292",
"........................",
"........................",
"........................",
"........................",
"........................",
".....+.@#$..............",
"....%&.*%=..............",
"....-;>,@')!~!{%........",
"....]^/(_:_<<[}|]1......",
"....234&56<<7890a9,b....",
"....c<d00e<<<<f000ghi...",
".....j4;kl<<<<~0m},n....",
"......opqr[<<_s7/tu.....",
"........ucvwwwtb........",
"........................",
"........................",
"........................",
"........................",
"........................",
"........................",
"........................",
"........................",
"........................",
"........................"};
