/* XPM */
static char * generic_land_xpm[] = {
"32 32 439 2",
"  	c None",
". 	c #808969",
"+ 	c #6C7650",
"@ 	c #707B52",
"# 	c #899171",
"$ 	c #DAE0CB",
"% 	c #CED4B9",
"& 	c #717C54",
"* 	c #626F39",
"= 	c #66753C",
"- 	c #647240",
"; 	c #677345",
"> 	c #808A66",
", 	c #CED3C1",
"' 	c #99A67C",
") 	c #8E9F6A",
"! 	c #ABB78E",
"~ 	c #E2E3C2",
"{ 	c #EBEECD",
"] 	c #8C947A",
"^ 	c #667242",
"/ 	c #6B7939",
"( 	c #6B7B3B",
"_ 	c #6E7C44",
": 	c #5E6B36",
"< 	c #899071",
"[ 	c #D7DBC8",
"} 	c #A1AC86",
"| 	c #6C7F3F",
"1 	c #748C48",
"2 	c #748A52",
"3 	c #909E74",
"4 	c #C6CCA5",
"5 	c #D1D89B",
"6 	c #BBC774",
"7 	c #C1CD84",
"8 	c #DBE2BA",
"9 	c #788265",
"0 	c #616F3C",
"a 	c #6D7C40",
"b 	c #69793F",
"c 	c #687744",
"d 	c #6B7941",
"e 	c #69743A",
"f 	c #656E3D",
"g 	c #8B9467",
"h 	c #94A268",
"i 	c #7E9349",
"j 	c #7F984E",
"k 	c #789251",
"l 	c #788D53",
"m 	c #899861",
"n 	c #A5B46C",
"o 	c #B2C768",
"p 	c #B8CA71",
"q 	c #C5D089",
"r 	c #DDE4AB",
"s 	c #E0E3B7",
"t 	c #DADCB1",
"u 	c #D9DCAC",
"v 	c #DDE1B5",
"w 	c #E6EACE",
"x 	c #F0F2E4",
"y 	c #828B73",
"z 	c #68734E",
"A 	c #687745",
"B 	c #6B7A47",
"C 	c #687847",
"D 	c #677648",
"E 	c #6A7842",
"F 	c #6A773D",
"G 	c #68733F",
"H 	c #65713C",
"I 	c #8A995E",
"J 	c #92A65E",
"K 	c #799241",
"L 	c #7C944A",
"M 	c #7C9152",
"N 	c #7F9059",
"O 	c #9FAE73",
"P 	c #C7D490",
"Q 	c #C7D481",
"R 	c #BCC865",
"S 	c #BBC766",
"T 	c #BDC879",
"U 	c #C1CC8E",
"V 	c #C5D29C",
"W 	c #C3D2A0",
"X 	c #C5D5AC",
"Y 	c #D3DEC1",
"Z 	c #EBEEDC",
"` 	c #868F71",
" .	c #606D37",
"..	c #6C7C3E",
"+.	c #67783D",
"@.	c #6A7A42",
"#.	c #687743",
"$.	c #6A7747",
"%.	c #6D7B48",
"&.	c #909F6B",
"*.	c #87985D",
"=.	c #869657",
"-.	c #A1AF70",
";.	c #B7C485",
">.	c #BFCA84",
",.	c #BDC675",
"'.	c #B9C46D",
").	c #C0CD80",
"!.	c #CADAA0",
"~.	c #CCDEBA",
"{.	c #CCE0CA",
"].	c #CFE4D7",
"^.	c #CFE5D9",
"/.	c #CBE2CF",
"(.	c #C6D8B8",
"_.	c #D9E0C4",
":.	c #79835B",
"<.	c #606F29",
"[.	c #6B7C35",
"}.	c #677838",
"|.	c #69793D",
"1.	c #6A7937",
"2.	c #68783E",
"3.	c #667649",
"4.	c #637442",
"5.	c #647340",
"6.	c #626E40",
"7.	c #7D865F",
"8.	c #B4BA94",
"9.	c #BFC58E",
"0.	c #C6CE81",
"a.	c #BFCB6A",
"b.	c #B4C15B",
"c.	c #BDC873",
"d.	c #D2DFAA",
"e.	c #D4E4D6",
"f.	c #CDE4EC",
"g.	c #C9E4F4",
"h.	c #CBE6F1",
"i.	c #C7E1E0",
"j.	c #B4CCC0",
"k.	c #A0B79D",
"l.	c #9CAE85",
"m.	c #A7B187",
"n.	c #7E885E",
"o.	c #62702B",
"p.	c #647234",
"q.	c #626F45",
"r.	c #636E4B",
"s.	c #647044",
"t.	c #616F40",
"u.	c #5F6F43",
"v.	c #667843",
"w.	c #73834A",
"x.	c #899461",
"y.	c #ADB483",
"z.	c #CBCE94",
"A.	c #C5CB7A",
"B.	c #B5BF5A",
"C.	c #B2BE52",
"D.	c #C5D67F",
"E.	c #D5E9BE",
"F.	c #D3EAE5",
"G.	c #C1DDF1",
"H.	c #BDDBF2",
"I.	c #CBEAF3",
"J.	c #BFDED3",
"K.	c #97B38D",
"L.	c #82985D",
"M.	c #7B8C4B",
"N.	c #7A8748",
"O.	c #818C56",
"P.	c #B0B98A",
"Q.	c #8A9752",
"R.	c #7F8C50",
"S.	c #7A8363",
"T.	c #788169",
"U.	c #7A8461",
"V.	c #808A59",
"W.	c #88955C",
"X.	c #97A665",
"Y.	c #ADBD76",
"Z.	c #C3D087",
"`.	c #C3CC79",
" +	c #B9C25E",
".+	c #B7C157",
"++	c #B8C56A",
"@+	c #CEDBA1",
"#+	c #D9EFD6",
"$+	c #C7E9E9",
"%+	c #BADDEB",
"&+	c #BDDDEC",
"*+	c #CBE7E7",
"=+	c #BBD7B9",
"-+	c #8AA46E",
";+	c #758A49",
">+	c #7E8D49",
",+	c #859146",
"'+	c #828D44",
")+	c #89955E",
"!+	c #C5CF8C",
"~+	c #BBC871",
"{+	c #BCCA76",
"]+	c #B2BD7D",
"^+	c #B2BB7F",
"/+	c #B7C277",
"(+	c #C0CA7B",
"_+	c #C5CE7F",
":+	c #BFCD71",
"<+	c #BCCD67",
"[+	c #B7C75F",
"}+	c #B6C458",
"|+	c #B2BF51",
"1+	c #BDCB6F",
"2+	c #DCEABF",
"3+	c #DBEEF1",
"4+	c #C0E0F7",
"5+	c #B7E0F5",
"6+	c #BBDFEC",
"7+	c #D0E9E8",
"8+	c #C0D2B7",
"9+	c #829356",
"0+	c #7A8942",
"a+	c #849054",
"b+	c #83915B",
"c+	c #849655",
"d+	c #7D9049",
"e+	c #8C9A64",
"f+	c #BDC77E",
"g+	c #B6C366",
"h+	c #BACA5E",
"i+	c #BBC965",
"j+	c #BDC862",
"k+	c #BECA64",
"l+	c #BAC962",
"m+	c #B5C656",
"n+	c #B5C652",
"o+	c #B6C456",
"p+	c #B2BD5C",
"q+	c #C0CB81",
"r+	c #E0EBC3",
"s+	c #DFF2EB",
"t+	c #C2E0F0",
"u+	c #B7DDF3",
"v+	c #B9DFEF",
"w+	c #CAE8F4",
"x+	c #CFE2DB",
"y+	c #8FA072",
"z+	c #7A883E",
"A+	c #87914A",
"B+	c #859054",
"C+	c #829258",
"D+	c #7F9651",
"E+	c #7E9351",
"F+	c #8D9B66",
"G+	c #B9C575",
"H+	c #B2C154",
"I+	c #B8C752",
"J+	c #B8C454",
"K+	c #B8C25B",
"L+	c #B6C55C",
"M+	c #B4C755",
"N+	c #B6C752",
"O+	c #B5C251",
"P+	c #B5BF5E",
"Q+	c #C7CD8F",
"R+	c #E8F0D8",
"S+	c #E2F0F3",
"T+	c #C3DEEC",
"U+	c #B9DEEB",
"V+	c #B9DFE8",
"W+	c #C2E1E7",
"X+	c #D8F0F1",
"Y+	c #A6BBA2",
"Z+	c #75894E",
"`+	c #829347",
" @	c #86944A",
".@	c #839253",
"+@	c #819356",
"@@	c #7A914C",
"#@	c #85965C",
"$@	c #C3CA8A",
"%@	c #B4C062",
"&@	c #B5C44C",
"*@	c #B7C64E",
"=@	c #B6C352",
"-@	c #B3C14B",
";@	c #B6C15B",
">@	c #CDD493",
",@	c #EDF4DD",
"'@	c #E7F3F7",
")@	c #C7DFED",
"!@	c #BBDDEB",
"~@	c #B9E2EB",
"{@	c #BADDE7",
"]@	c #DAEFF8",
"^@	c #C7D9CD",
"/@	c #7D925F",
"(@	c #7A8D45",
"_@	c #83944A",
":@	c #839350",
"<@	c #849457",
"[@	c #819354",
"}@	c #7A8F4C",
"|@	c #8D9D67",
"1@	c #C4CB88",
"2@	c #B3C160",
"3@	c #B2C458",
"4@	c #B1C357",
"5@	c #B5C15E",
"6@	c #B9C067",
"7@	c #C1CA79",
"8@	c #D8E1A9",
"9@	c #EDF6E1",
"0@	c #E3F3F6",
"a@	c #C7E0EA",
"b@	c #BEDEE5",
"c@	c #BCE1E4",
"d@	c #B7DFE4",
"e@	c #C9E5EF",
"f@	c #E2ECF0",
"g@	c #9AA887",
"h@	c #74863E",
"i@	c #829442",
"j@	c #839349",
"k@	c #839352",
"l@	c #839356",
"m@	c #7D8E50",
"n@	c #84955C",
"o@	c #E1E5C0",
"p@	c #D6DEAD",
"q@	c #CBD99A",
"r@	c #C8D898",
"s@	c #D1DDA8",
"t@	c #DDE2BF",
"u@	c #E6EDDA",
"v@	c #E6F3F4",
"w@	c #D6EBF9",
"x@	c #C1DFED",
"y@	c #BCDEEA",
"z@	c #BDE0E7",
"A@	c #BADDE2",
"B@	c #C2E3EA",
"C@	c #E4F7FA",
"D@	c #BBC2B0",
"E@	c #7D8953",
"F@	c #7F9043",
"G@	c #829544",
"H@	c #809347",
"I@	c #82944F",
"J@	c #7E8F4F",
"K@	c #818F5A",
"L@	c #9CA680",
"M@	c #F6FBEE",
"N@	c #EAF3E6",
"O@	c #E5F1E6",
"P@	c #E9F6F0",
"Q@	c #E7F4F7",
"R@	c #DAECFB",
"S@	c #C7E2F8",
"T@	c #BADEF1",
"U@	c #B8DEEE",
"V@	c #BBE0F0",
"W@	c #BADAEE",
"X@	c #C2DCEC",
"Y@	c #E3F5FD",
"Z@	c #D2DFCE",
"`@	c #889561",
" #	c #7E8C4A",
".#	c #82954B",
"+#	c #7E9446",
"@#	c #7F9548",
"##	c #7D924A",
"$#	c #808E57",
"%#	c #99A27D",
"&#	c #EBF3F9",
"*#	c #DCE7F3",
"=#	c #CEE1ED",
"-#	c #C4DEE8",
";#	c #BEDDE6",
">#	c #BADEE5",
",#	c #B7E0E6",
"'#	c #B6DFEA",
")#	c #BADDEF",
"!#	c #CAE3F7",
"~#	c #E7F5FE",
"{#	c #E3EADE",
"]#	c #96A371",
"^#	c #7A8E42",
"/#	c #81964F",
"(#	c #7E954F",
"_#	c #7C954A",
":#	c #7B9248",
"<#	c #82955B",
"[#	c #9AA581",
"}#	c #E0E8F2",
"|#	c #D4E5F0",
"1#	c #C6E2EA",
"2#	c #C2E1E1",
"3#	c #BEE1DE",
"4#	c #BEE2E6",
"5#	c #C5E7F3",
"6#	c #D7EFFC",
"7#	c #ECFCFF",
"8#	c #E2EBD7",
"9#	c #A7AD7E",
"0#	c #7D8844",
"a#	c #7F9549",
"b#	c #7B934E",
"c#	c #7A9251",
"d#	c #7C9251",
"e#	c #8C9D66",
"f#	c #A4B08A",
"g#	c #E3F4F7",
"h#	c #DEEFEF",
"i#	c #DBEDEC",
"j#	c #D9EBED",
"k#	c #DBEDED",
"l#	c #DEEAE2",
"m#	c #CAD6B6",
"n#	c #97A467",
"o#	c #7C8540",
"p#	c #828D4D",
"q#	c #819257",
"r#	c #82935E",
"s#	c #879866",
"t#	c #99A77B",
"u#	c #F2F6F7",
"v#	c #E0E3DF",
"w#	c #C7CDBC",
"x#	c #ADB593",
"y#	c #95A06F",
"z#	c #85935B",
"A#	c #889660",
"B#	c #8B9766",
"C#	c #949D73",
"D#	c #A6AF8B",
"E#	c #ABB291",
"F#	c #AEB99D",
"                                                                ",
"                                                                ",
"                                                                ",
"                                                                ",
"                                                                ",
"                                                                ",
"                                                                ",
"                                                                ",
"          . + @ #         $ %                                   ",
"        & * = - ; >     , ' ) !       ~ {                       ",
"      ] ^ / ( _ = : < [ } | 1 2 3 4 5 6 7 8                     ",
"      9 0 a b c d e f g h i j k l m n o p q r s t u v w x       ",
"    y z A B C D E F G H I J K L M N O P Q R S T U V W X Y Z     ",
"    `  ...+.@.+.b #.$.- %.&.*.=.-.;.>.,.'.).!.~.{.].^./.(._.    ",
"    :.<.[.}.|.1.2.3.4.5.6.7.8.9.0.a.b.c.d.e.f.g.h.i.j.k.l.m.    ",
"    n.o.p.q.r.s.t.u.v.w.x.y.z.A.B.C.D.E.F.G.H.I.J.K.L.M.N.O.    ",
"    P.Q.R.S.T.U.V.W.X.Y.Z.`. +.+++@+#+$+%+&+*+=+-+;+>+,+'+)+    ",
"    !+~+{+]+^+/+(+_+:+<+[+}+|+1+2+3+4+5+6+7+8+9+0+a+b+c+d+e+    ",
"    f+g+h+i+S j+k+l+m+n+o+p+q+r+s+t+u+v+w+x+y+z+A+B+C+D+E+F+    ",
"      G+H+I+J+K+L+M+N+O+P+Q+R+S+T+U+V+W+X+Y+Z+`+ @.@+@@@#@      ",
"      $@%@&@*@=@o+O+-@;@>@,@'@)@!@~@{@]@^@/@(@_@:@<@[@}@|@      ",
"        1@2@3@4@5@6@7@8@9@0@a@b@c@d@e@f@g@h@i@j@k@l@m@n@        ",
"        o@p@q@r@s@t@u@v@w@x@y@z@A@B@C@D@E@F@G@H@I@J@K@L@        ",
"          M@N@O@P@Q@R@S@T@U@V@W@X@Y@Z@`@ #.#+#@###$#%#          ",
"            &#*#=#-#;#>#,#'#)#!#~#{#]#^#/#(#_#:#<#[#            ",
"              }#|#1#2#3#4#5#6#7#8#9#0#a#b#c#d#e#f#              ",
"                  g#h#i#j#k#l#m#n#o#p#q#r#s#t#                  ",
"                      u#v#w#x#y#z#A#B#C#D#                      ",
"                              E#F#                              ",
"                                                                ",
"                                                                ",
"                                                                "};
