/* XPM */
static char * generic_eye_xpm[] = {
"48 48 205 2",
"  	c None",
". 	c #FFFFFF",
"+ 	c #FEFEFE",
"@ 	c #FDFDFD",
"# 	c #F3F3F3",
"$ 	c #DEDEDE",
"% 	c #CBCBCB",
"& 	c #C0C0C0",
"* 	c #B9B9B9",
"= 	c #B8B8B8",
"- 	c #BEBEBE",
"; 	c #DBDBDB",
"> 	c #F0F0F0",
", 	c #FCFCFC",
"' 	c #DDDDDD",
") 	c #A3A3A3",
"! 	c #606060",
"~ 	c #3C3C3C",
"{ 	c #383838",
"] 	c #393939",
"^ 	c #363636",
"/ 	c #303030",
"( 	c #292929",
"_ 	c #242424",
": 	c #1F1F1F",
"< 	c #1B1B1B",
"[ 	c #151515",
"} 	c #131313",
"| 	c #191919",
"1 	c #464646",
"2 	c #919191",
"3 	c #D6D6D6",
"4 	c #EFEFEF",
"5 	c #999999",
"6 	c #454545",
"7 	c #4E4E4E",
"8 	c #525252",
"9 	c #535353",
"0 	c #4C4C4C",
"a 	c #3B3B3B",
"b 	c #343434",
"c 	c #2D2D2D",
"d 	c #272727",
"e 	c #222222",
"f 	c #1D1D1D",
"g 	c #171717",
"h 	c #181818",
"i 	c #161616",
"j 	c #141414",
"k 	c #818181",
"l 	c #E8E8E8",
"m 	c #F6F6F6",
"n 	c #797979",
"o 	c #494949",
"p 	c #5C5C5C",
"q 	c #626262",
"r 	c #565656",
"s 	c #515151",
"t 	c #262626",
"u 	c #212121",
"v 	c #050505",
"w 	c #000000",
"x 	c #555555",
"y 	c #ECECEC",
"z 	c #9A9A9A",
"A 	c #444444",
"B 	c #3A3A3A",
"C 	c #737373",
"D 	c #ACACAC",
"E 	c #2A2A2A",
"F 	c #202020",
"G 	c #1A1A1A",
"H 	c #707070",
"I 	c #030303",
"J 	c #787878",
"K 	c #EEEEEE",
"L 	c #636363",
"M 	c #5F5F5F",
"N 	c #595959",
"O 	c #3F3F3F",
"P 	c #727272",
"Q 	c #D5D5D5",
"R 	c #313131",
"S 	c #7A7A7A",
"T 	c #A1A1A1",
"U 	c #A4A4A4",
"V 	c #0F0F0F",
"W 	c #1C1C1C",
"X 	c #F1F1F1",
"Y 	c #DCDCDC",
"Z 	c #010101",
"` 	c #DFDFDF",
" .	c #C2C2C2",
"..	c #434343",
"+.	c #5E5E5E",
"@.	c #F2F2F2",
"#.	c #F5F5F5",
"$.	c #E9E9E9",
"%.	c #E6E6E6",
"&.	c #AAAAAA",
"*.	c #A9A9A9",
"=.	c #4F4F4F",
"-.	c #616161",
";.	c #5D5D5D",
">.	c #D7D7D7",
",.	c #676767",
"'.	c #575757",
").	c #A2A2A2",
"!.	c #121212",
"~.	c #D2D2D2",
"{.	c #101010",
"].	c #020202",
"^.	c #8A8A8A",
"/.	c #A8A8A8",
"(.	c #585858",
"_.	c #A6A6A6",
":.	c #2C2C2C",
"<.	c #9F9F9F",
"[.	c #424242",
"}.	c #878787",
"|.	c #C1C1C1",
"1.	c #5A5A5A",
"2.	c #6F6F6F",
"3.	c #090909",
"4.	c #A5A5A5",
"5.	c #EDEDED",
"6.	c #B5B5B5",
"7.	c #5B5B5B",
"8.	c #E7E7E7",
"9.	c #D9D9D9",
"0.	c #505050",
"a.	c #414141",
"b.	c #6A6A6A",
"c.	c #232323",
"d.	c #9C9C9C",
"e.	c #060606",
"f.	c #040404",
"g.	c #D1D1D1",
"h.	c #252525",
"i.	c #979797",
"j.	c #545454",
"k.	c #D8D8D8",
"l.	c #1E1E1E",
"m.	c #0E0E0E",
"n.	c #888888",
"o.	c #8F8F8F",
"p.	c #838383",
"q.	c #7C7C7C",
"r.	c #282828",
"s.	c #7B7B7B",
"t.	c #6B6B6B",
"u.	c #0A0A0A",
"v.	c #808080",
"w.	c #EAEAEA",
"x.	c #474747",
"y.	c #404040",
"z.	c #696969",
"A.	c #080808",
"B.	c #2F2F2F",
"C.	c #484848",
"D.	c #757575",
"E.	c #8C8C8C",
"F.	c #9E9E9E",
"G.	c #353535",
"H.	c #2B2B2B",
"I.	c #AEAEAE",
"J.	c #F8F8F8",
"K.	c #070707",
"L.	c #F9F9F9",
"M.	c #0C0C0C",
"N.	c #6C6C6C",
"O.	c #D0D0D0",
"P.	c #2E2E2E",
"Q.	c #C3C3C3",
"R.	c #868686",
"S.	c #BBBBBB",
"T.	c #B3B3B3",
"U.	c #989898",
"V.	c #858585",
"W.	c #111111",
"X.	c #E2E2E2",
"Y.	c #D3D3D3",
"Z.	c #333333",
"`.	c #C8C8C8",
" +	c #D4D4D4",
".+	c #0B0B0B",
"++	c #9B9B9B",
"@+	c #E1E1E1",
"#+	c #F4F4F4",
"$+	c #0D0D0D",
"%+	c #4B4B4B",
"&+	c #C7C7C7",
"*+	c #747474",
"=+	c #CDCDCD",
"-+	c #969696",
";+	c #8D8D8D",
">+	c #3D3D3D",
",+	c #B7B7B7",
"'+	c #6E6E6E",
")+	c #FBFBFB",
"!+	c #CFCFCF",
"~+	c #646464",
"{+	c #939393",
"]+	c #373737",
"^+	c #8B8B8B",
". + + . + . . + . + . . + . . + . + . + . . + . . . . + . . . . + + . . . + . . + + . + . + + + ",
". . . + + + . + + + . + + . . . + . + + . + . . + + . + + . + . . . + . + . + . . + + + . . . + ",
". . + . + . . + . + . . + . . . . . . + . . + . . . . + . . . . + + . . . . . . + + . + . + + + ",
". . . . + . . + . + . + + . + + . + . + . . + . . + . + + . + . . . + + . + + . . + . + + . + + ",
". . . + + + . + + + . + + . . + + + + + . + + . + + . + + . + . . . + + + + + . . + + + + . + + ",
". . . + + + . + + + . + + . . . + . + + . + . . + + . + + . + . . . + . + . + . . + + + . . . + ",
". . . + + + . + + + . + + . . . + . + + . + + . + + . + + . + . . . + + + . + . . + + + + . + + ",
". . + . + . . + . + . . + . . . . . . + . . + . . . . + . . . . + + . . . . . . + + . + . + + + ",
". + . + + + . + + + . + + . . . + . + @ + @ + . + + + @ @ . + . . . + + + . + . . + + + + . + + ",
". . + + + + + + + + . + + . + @ + + + # $ % & * = - % ; > . + + @ @ + + + + + . + + + + + + + + ",
". + + + + + . + + + . + , . . ' ) ! ~ { ] ^ / ( _ : < [ } | 1 2 3 + + @ + . + . + + + + . + + + ",
". . . . + . . + . + @ . 4 5 6 7 8 9 0 6 a b c d e f | g h h | i j < k l . , . . . + . + . . + + ",
"+ . + + + + . + + + m n o p q r s o ~ ^ b c t u f | g g | g g h h [ v w x y + . + + + + . + + + ",
". + . . + . . + . z 1 q q p x A B C * D E d F G g g g g g 1 H < w w w I w w J . . + . . . . + . ",
". + . . + . . K 8 p L M N O P Q . . . . _ R S T U k B } V I W X Y M w w Z I w h ` + . . . . + . ",
". . . + + +  ...L +.+.o n @.. + + . + + #.+ . . + + . $.8 w w w %.. > M w w w Z w &.+ + + . + + ",
". . . . + *.=.-.;.p ..>.. + . + . + . + . ; ,.O ^ '. .. + ).w w !.. , . ~.{.w Z ].w ^.. . . + . ",
". + . . /.8 ;.p (.! . + . . . . . . . + . _.} v I w w :.X . <.w w P + + . . [.w Z w w }.+ . + . ",
". . . |.0 p 1.r 2.+ . . + . . . . . . + + . V w w w Z w 3.# . o w w # . . . . +.w w Z w 4.. . + ",
". + 5.[.1.(.(.;.. + . . + 6.G 7., . . + . . <.w Z w w w w b . 8.w w z . . . . . =.w Z w w 9.+ + ",
". . 0.1.'.'.a.+ . + . . + b.c._ . l d.+ . . + e.f.w w w Z w g.. h.w [.. . . . . + u w w w {.+ + ",
". i.j.r j.[.k.+ . + . + + ] l.o . T w m.n.. + o.w w w w w w p.. ;.w !.+ . + + . + $.w w w w 2.+ ",
", ] r s =.q.. + + + . + + r.G L + s.w w w w t.y u.I w w w w 1.. n w ].+ + . + . + + v.w w w w w.",
"+ '.8 0 x.y.. + . + + . + E [ r . n.w w Z w w w G w w w w w z.. 2.w A.+ . . . . + + B.w w w l.+ ",
". 8.a C.a.~ D.+ . + . . + x.].:.. & w w w Z w w w Z Z w Z w *.. a.w d . . + . . + E.w w Z w ~.+ ",
". . F.~ a G.H.I.+ + . + + n.w w J.. K.w Z w Z w w w w w w w L.. M.w N.. + . + . O.w w w w J . + ",
". . + L b P.( f Q.+ . . + $ w w R.. S.w Z Z w w w w Z w w U . U w w % . . . . %.w w Z w b + + + ",
". . . . [.r.e l.[ T.. + + . B w w w.. U.w w w Z Z w w w V.. L.I w _ + + . + ' ].w w w i + . + + ",
". . . + + a f | [ W.s.+ + . X.w w W.L.+ Y.Z.w w w w c `.+ . u w w  ++ + + I.w w Z w j L.+ . + + ",
". . . + + + 7 j !..+w r.9.. . ++w w u.O.. + m @+` #+. + Y g w w }.. + #+=.w w Z w H.+ + . . . + ",
". . . + + + . k $+Z Z w w j.' . R.w w w %+& @.. + #.&+'.w w w D.. y *+w w Z Z w L + + + + . + + ",
". . + . + . . + =+j w I w w w H.&.-+W.w w w w w w w w w w $+;+6.>+w w w ].w K.,++ + . + . + + + ",
". + . + + + . + + + n.].w f.Z w w w } K.w w w w w w w w v g w w w Z I w w '++ . . + + + + . + + ",
". . + + + + + + + + . )+n.} w w I Z w w Z w w w w w w w w w Z I w w .+*+@.+ + . + + + + + + + + ",
". + + + + + . + + + . + + . !+~+g w w w w w Z I ].Z w w w w w !.x  .+ . + . + . + + + + . + + + ",
". . . . + . . + . + . . + . . . . y `.{+,.o ]+P.:.]+1 -.^+ .l . . . . . . . . . . + . + . . + + ",
"+ . + + + + . + + + + + + . . . @ , @ + . + . + + + + + + . , @ + + + . + . + . + + + + . + + + ",
". + . . + . . + . . . + . . . . . . . + . . + . . + . . + . + . . . + . . . + . . + . . . . + . ",
". + . . + . . . . . . . . . . . . . . . . . + . . . . . . . . . . . . . . . . . . + . . . . + . ",
". . . + + + . + + + . + + . . . + . + + . + . . + + . + + . + . . . + + + . + . . + + + + . + + ",
". . . . + . . + . . . + . . . + . + . + . . + . . + . . + . + . . . + . . + + . . + . . . . + . ",
". + . . + . . + . . . + . . . . . . . + . . + . . + . . + . + . . . + + . . + . . + . . + . + . ",
". . . . + . . + . + . . + . . . . . . + . . . . . . . + . . . . . . . . . . . . . + . + . . . + ",
". + + . + . . + . + . . + . . . . . . + . . + . . . . + . . . . + + . . . . . . + + . + . + + + ",
". . + . + . . + . + . . + . . . . . . + . . + . . . . + . . . . + + . . . . . . + + . + . + + + ",
". . + . + . . + . + . + + . . + . + . + . . + . . + . + + . + . + + + + . + + . + + . + + + + + ",
". + + + + + . + + + . + + . + . + . + + . + + . + + . + + . + . + + + + + . + . + + + + + + + + ",
"+ + + . + . . + . + + . + . + . . . . + . . + + . . + + . . . . + + . + . . . . + + . + + + + + "};
