/* XPM */
static char * generic_shuffle_xpm[] = {
"48 48 171 2",
"  	c #FFFFFF",
". 	c #FEFEFE",
"+ 	c #FDFDFD",
"@ 	c #F6F6F6",
"# 	c #F3F3F3",
"$ 	c #CDCDCD",
"% 	c #000000",
"& 	c #ACACAC",
"* 	c #2C2C2C",
"= 	c #6E6E6E",
"- 	c #959595",
"; 	c #313131",
"> 	c #F4F4F4",
", 	c #BFBFBF",
"' 	c #C5C5C5",
") 	c #CBCBCB",
"! 	c #DCDCDC",
"~ 	c #EDEDED",
"{ 	c #FCFCFC",
"] 	c #070707",
"^ 	c #BBBBBB",
"/ 	c #080808",
"( 	c #111111",
"_ 	c #212121",
": 	c #474747",
"< 	c #898989",
"[ 	c #DADADA",
"} 	c #6D6D6D",
"| 	c #878787",
"1 	c #181818",
"2 	c #696969",
"3 	c #D8D8D8",
"4 	c #F8F8F8",
"5 	c #C7C7C7",
"6 	c #9B9B9B",
"7 	c #797979",
"8 	c #6A6A6A",
"9 	c #393939",
"0 	c #494949",
"a 	c #FAFAFA",
"b 	c #3B3B3B",
"c 	c #D2D2D2",
"d 	c #CECECE",
"e 	c #7A7A7A",
"f 	c #282828",
"g 	c #010101",
"h 	c #0C0C0C",
"i 	c #D1D1D1",
"j 	c #020202",
"k 	c #030303",
"l 	c #9D9D9D",
"m 	c #171717",
"n 	c #D9D9D9",
"o 	c #A5A5A5",
"p 	c #101010",
"q 	c #575757",
"r 	c #B3B3B3",
"s 	c #EEEEEE",
"t 	c #333333",
"u 	c #292929",
"v 	c #B4B4B4",
"w 	c #C1C1C1",
"x 	c #6B6B6B",
"y 	c #8E8E8E",
"z 	c #888888",
"A 	c #767676",
"B 	c #5D5D5D",
"C 	c #404040",
"D 	c #1C1C1C",
"E 	c #AFAFAF",
"F 	c #AAAAAA",
"G 	c #D5D5D5",
"H 	c #838383",
"I 	c #121212",
"J 	c #E9E9E9",
"K 	c #DFDFDF",
"L 	c #1D1D1D",
"M 	c #A6A6A6",
"N 	c #0E0E0E",
"O 	c #1A1A1A",
"P 	c #646464",
"Q 	c #9A9A9A",
"R 	c #C3C3C3",
"S 	c #515151",
"T 	c #4A4A4A",
"U 	c #545454",
"V 	c #5B5B5B",
"W 	c #535353",
"X 	c #CFCFCF",
"Y 	c #929292",
"Z 	c #A4A4A4",
"` 	c #131313",
" .	c #272727",
"..	c #D4D4D4",
"+.	c #FBFBFB",
"@.	c #B1B1B1",
"#.	c #0A0A0A",
"$.	c #676767",
"%.	c #ECECEC",
"&.	c #3A3A3A",
"*.	c #454545",
"=.	c #3E3E3E",
"-.	c #232323",
";.	c #868686",
">.	c #787878",
",.	c #7F7F7F",
"'.	c #F7F7F7",
").	c #141414",
"!.	c #C8C8C8",
"~.	c #F5F5F5",
"{.	c #EBEBEB",
"].	c #A7A7A7",
"^.	c #818181",
"/.	c #D0D0D0",
"(.	c #A8A8A8",
"_.	c #8B8B8B",
":.	c #A1A1A1",
"<.	c #999999",
"[.	c #969696",
"}.	c #DBDBDB",
"|.	c #090909",
"1.	c #F2F2F2",
"2.	c #2A2A2A",
"3.	c #757575",
"4.	c #191919",
"5.	c #C6C6C6",
"6.	c #0B0B0B",
"7.	c #BCBCBC",
"8.	c #2E2E2E",
"9.	c #424242",
"0.	c #C0C0C0",
"a.	c #E5E5E5",
"b.	c #737373",
"c.	c #7C7C7C",
"d.	c #EAEAEA",
"e.	c #363636",
"f.	c #828282",
"g.	c #7E7E7E",
"h.	c #3F3F3F",
"i.	c #A3A3A3",
"j.	c #626262",
"k.	c #383838",
"l.	c #777777",
"m.	c #0F0F0F",
"n.	c #909090",
"o.	c #8C8C8C",
"p.	c #B7B7B7",
"q.	c #7B7B7B",
"r.	c #686868",
"s.	c #727272",
"t.	c #ADADAD",
"u.	c #4C4C4C",
"v.	c #050505",
"w.	c #444444",
"x.	c #565656",
"y.	c #484848",
"z.	c #252525",
"A.	c #242424",
"B.	c #E1E1E1",
"C.	c #555555",
"D.	c #ABABAB",
"E.	c #F1F1F1",
"F.	c #5C5C5C",
"G.	c #9E9E9E",
"H.	c #AEAEAE",
"I.	c #BDBDBD",
"J.	c #949494",
"K.	c #A9A9A9",
"L.	c #3C3C3C",
"M.	c #434343",
"N.	c #D3D3D3",
"      .               .               .               .               .               .         ",
"      .               .               .               .               .               .         ",
"      .               .               .               .               .               .         ",
"      . . . . .       . . . . .       . . . . .       . . . . .     .   + .   .       . . . . . ",
"                                                                      @ #   .                   ",
"      .               .               .               .               $ % &     .     .         ",
"      .               .               .               .                 * % =     .   .         ",
"            .                                                       .   - % % ; >   . .         ",
", ' ) ! ~         . .   .             .               .               {   % % % ] ^   .         ",
"% % % / ( _ : < [       . .           .               .       .           } % % % % |     .     ",
"% % % % % % % % % 1 2 3       .       .             . .         4 5 6 7 8 9 % % % % % 0 a   .   ",
"% % % % % % % % % % % % b c   + . .   . . . . .   . {     d e f % % % % % % g % % % % % h i   { ",
"% % % % % % % % % % % j % % 8     . .         .       - * % % % k g % % % % % % % % % % % % l   ",
"% % % % % % % % % % % % % % % m n   . .   .       o p % % % % % % % % % % % % % % % % % % % % q ",
"g g % % % % % % % % % % % % % % % r   +   +   s t % % % % % % % % % % % % % % % % % % % % k % u ",
"% % % % % % % % % % % % % % % % % % v   {   w ] % % % % % % % % % % % % % % % % % % % % % % x   ",
"y z A B C D % % % % % % % % % % % % % w   E % % % % % % % % % % % % % % % % % % % % % % % F     ",
"          # G H I % % % % % % % % % % k J K % % % % % % % % % % % % % % % ] % % % % % L 3   {   ",
"    .             M N % % % % % % % % % O   M % % % % % % % % % O P Q R J = % % % % S     . .   ",
"      . . .   .       T % g % % % % % g % U   V % g % g % % W X           N % % % Y     . . . . ",
"                  .     } % % % % % % % % % Z   ` % % %  ...    +.. .   @.% % #.X   {   .       ",
"      .             . .   $.% % % % % % % % % %.! % % }       .         &.% *.4   . . .         ",
"      .                     =.% % % % % % % % -.  ;.>.    .           ..% ,.    .     .         ",
"                      . .   '.).% % % % % % g % P     .               ~ !.  .                   ",
"      .               . . +   d % k % % % % % % % Y   +               ~.{.  +         .         ",
"      .                     ].  ^.% % % % % % % g % &   . .           /.% (.    .     .         ",
"      .             . .   _.% :.  b % % % % % % % % % <.    .           * % }     . . .         ",
"      . . . . . .   +   [.% % % }.. |.% % % % % % % % % S 1.  + + . .   l % % 2.%.  +   . . . . ",
"              .       3.% % % % 4.  5.% % % % % % % % j % 6.^.~.          % % % ] 7.    .       ",
"      .           d 8.% % % % % % 9.  - % % % % % % % % % % % % : _.0.a.  b.% % % % c.    . .   ",
"            d.v e.% % g % % % % g % f.  g.% g % % % % % % % % % % % % j 6.p % % % % % h.1.  {   ",
"^ v i.| j.k.|.% % % % % % % % % % % % a.  l.% % % % % % % % % % % % % % % % % % % % % % m.X     ",
"% % % % % % % % % % % % % % % % g % n.      [.% % % % % % % % % % % % % % % % % % % % % % % -   ",
"k j j g % % % % % % % % % % % % % o.  .   {   $ I % % % % % % % % % % % % % % % % % % % % j % S ",
"% % % % % % % % % % % % % % % % p.  . .   . .     q.% % % % % % % % % % % % % % % % % % % % % ; ",
"% % % % % % % % % % % g % % C d.  . . . . .   .     1.r.).% % j j g % % % % % % % % % % % % s.  ",
"% % % % % % % % % % % % ` &     . .               + .   # t.u.v.% % % % % % % % % % % % % &   { ",
"% % % % % % % % % % w.t.      .       .             .           i :.l.x.y.z.% % % % % A.B.  . . ",
"% % % % j p A.C.D.E.      .           .               .   . .             >.% % j % F.    .     ",
"G.M H.I.i %.      . .   .                                           . +.  6.% % % J.            ",
"              . .     .               .               .             .   K.% % ).G     .         ",
". . .                 .               .               .                 L.% M.'.  {   .         ",
"      .               .               .               .               N.% f.    .     .         ",
"      . . . . .       . . . . .       . . . . .       . . . . .       %.i     .       . . . . . ",
"                                                                    .     +                     ",
"      .               .               .               .               .               .         ",
"      .               .               .               .               .               .         ",
"                                                                                                "};
