/* XPM */
static char * generic_unchecked_xpm[] = {
"24 24 221 2",
"  	c None",
". 	c #E8E9EB",
"+ 	c #E9EAEB",
"@ 	c #EAEBEC",
"# 	c #ECEDEE",
"$ 	c #EBECED",
"% 	c #ECEDF0",
"& 	c #EDEEEF",
"* 	c #EEEFF0",
"= 	c #EFF1F2",
"- 	c #F0F1F0",
"; 	c #F1F2F1",
"> 	c #F2F3F2",
", 	c #F2F2F1",
"' 	c #F1F3F2",
") 	c #F2F4F3",
"! 	c #F2F5F3",
"~ 	c #F4F4F5",
"{ 	c #F3F4F4",
"] 	c #EDEEF0",
"^ 	c #EFF0F1",
"/ 	c #F0F1F2",
"( 	c #F0F1F1",
"_ 	c #F3F5F4",
": 	c #F3F4F5",
"< 	c #F4F5F4",
"[ 	c #ECEDEF",
"} 	c #EDEDEF",
"| 	c #F1F2F3",
"1 	c #F4F5F5",
"2 	c #F5F6F5",
"3 	c #EFF0F0",
"4 	c #F1F2F4",
"5 	c #F2F3F4",
"6 	c #F5F6F4",
"7 	c #F5F7F6",
"8 	c #F6F7F6",
"9 	c #F5F8F7",
"0 	c #EEF0F0",
"a 	c #EEF0F1",
"b 	c #F0F2F0",
"c 	c #F1F2F2",
"d 	c #F2F2F2",
"e 	c #F3F2F3",
"f 	c #F4F4F4",
"g 	c #F3F6F5",
"h 	c #F8F8F8",
"i 	c #F7F6F6",
"j 	c #FAFAFB",
"k 	c #F7F7F7",
"l 	c #F5F7F5",
"m 	c #F7F8F8",
"n 	c #EEF1F0",
"o 	c #EFF2F1",
"p 	c #F3F3F3",
"q 	c #F5F6F6",
"r 	c #F6F6F6",
"s 	c #FAFBFA",
"t 	c #E1E0E0",
"u 	c #838081",
"v 	c #999596",
"w 	c #FAFAF9",
"x 	c #EFF1F1",
"y 	c #F0F3F2",
"z 	c #F1F4F3",
"A 	c #F2F5F4",
"B 	c #F7F8F7",
"C 	c #FBFBFB",
"D 	c #E3E2E3",
"E 	c #878284",
"F 	c #989193",
"G 	c #938C8E",
"H 	c #959092",
"I 	c #FFFDFE",
"J 	c #F8F9F8",
"K 	c #F3F5F5",
"L 	c #F4F7F6",
"M 	c #FAF9F9",
"N 	c #E6E4E5",
"O 	c #888383",
"P 	c #989292",
"Q 	c #968F8F",
"R 	c #978F90",
"S 	c #928B8C",
"T 	c #9A9695",
"U 	c #FFFFFF",
"V 	c #F9F9F9",
"W 	c #F2F1F2",
"X 	c #E1E1E1",
"Y 	c #F5F5F5",
"Z 	c #F6F7F7",
"` 	c #E8E6E7",
" .	c #8A8587",
"..	c #959291",
"+.	c #948F8F",
"@.	c #999292",
"#.	c #9A9493",
"$.	c #848181",
"%.	c #EFEFF0",
"&.	c #FDFDFD",
"*.	c #F2F0F1",
"=.	c #8D888A",
"-.	c #858282",
";.	c #C3C2C2",
">.	c #FDFCFC",
",.	c #F6F8F7",
"'.	c #ECEBEB",
").	c #8A8586",
"!.	c #949091",
"~.	c #979090",
"{.	c #958E8F",
"].	c #969091",
"^.	c #8C8787",
"/.	c #C8C6C5",
"(.	c #FCFCFC",
"_.	c #EFF1F0",
":.	c #8F8B8B",
"<.	c #948E8E",
"[.	c #989191",
"}.	c #8A8584",
"|.	c #C9C5C4",
"1.	c #FDFDFB",
"2.	c #F6F6F5",
"3.	c #FAFAF7",
"4.	c #EDEBEA",
"5.	c #8B8685",
"6.	c #978E90",
"7.	c #989091",
"8.	c #969191",
"9.	c #8C8A89",
"0.	c #BFC0BD",
"a.	c #FDFCFD",
"b.	c #908F8F",
"c.	c #948F90",
"d.	c #979091",
"e.	c #989192",
"f.	c #888282",
"g.	c #CAC7C6",
"h.	c #F0F0EF",
"i.	c #8B8887",
"j.	c #968F90",
"k.	c #8D8888",
"l.	c #C0BEBC",
"m.	c #FCFCFA",
"n.	c #FDFEFD",
"o.	c #888687",
"p.	c #979291",
"q.	c #8D8788",
"r.	c #C7C4C4",
"s.	c #908E8D",
"t.	c #949190",
"u.	c #959190",
"v.	c #979191",
"w.	c #BDBBBA",
"x.	c #FCFCFB",
"y.	c #FBFBFA",
"z.	c #E7E6E6",
"A.	c #888585",
"B.	c #999293",
"C.	c #968E8F",
"D.	c #978E8F",
"E.	c #928D8D",
"F.	c #959090",
"G.	c #989291",
"H.	c #8B8989",
"I.	c #B5B3B4",
"J.	c #FEFDFE",
"K.	c #F8F6F7",
"L.	c #E6E5E4",
"M.	c #868282",
"N.	c #978F91",
"O.	c #8E8788",
"P.	c #B0AFB0",
"Q.	c #FCFDFC",
"R.	c #FEFEFE",
"S.	c #FEFFFE",
"T.	c #F9F9F7",
"U.	c #E2E2E0",
"V.	c #868382",
"W.	c #8F8889",
"X.	c #B2ADAD",
"Y.	c #FDFFFD",
"Z.	c #F4F6F5",
"`.	c #F9FAFA",
" +	c #DADADB",
".+	c #868183",
"++	c #999294",
"@+	c #978F92",
"#+	c #948E8F",
"$+	c #969292",
"%+	c #8D8989",
"&+	c #ACA9A9",
"*+	c #FDFEFE",
"=+	c #F7F7F6",
"-+	c #D9D6D7",
";+	c #888284",
">+	c #8E8989",
",+	c #AAA8A7",
"'+	c #F8F7F8",
")+	c #FEFDFD",
"!+	c #D7D4D5",
"~+	c #8E8889",
"{+	c #ABA8A7",
"]+	c #FBFCFB",
"^+	c #FDFDFE",
"/+	c #F9F8F9",
"(+	c #D6D4D5",
"_+	c #837F80",
":+	c #ACAAAB",
"<+	c #F7F6F7",
"[+	c #F8F8F9",
"}+	c #FAF8F8",
"|+	c #FFFEFF",
"1+	c #F8F8F7",
"2+	c #F9FCFB",
"3+	c #FAFCFC",
"4+	c #FAFCFB",
"5+	c #FFFEFE",
"6+	c #FFFDFD",
"7+	c #FCFEFC",
"8+	c #F9FAF9",
". + @ # $ # % & * = - - ; > , ' ' ) ! ) ) ! ~ { ",
"+ $ $ & & ] * * ^ / ( ; > ' ' ) _ _ ~ : : : < < ",
"@ $ # [ } * ^ / / | > > { ) _ { 1 < 2 2 2 2 2 2 ",
"$ & [ & * 3 / | 4 5 ) ) 1 : 1 6 2 2 7 7 7 8 9 9 ",
"# [ & ^ 0 a b c d e f f : 6 2 2 g h i j k l m h ",
"# & ] ^ n n o > p { 1 1 6 q r 8 s t u v w k h h ",
"& ] * / x n y z A A 1 2 2 k B C D E F G H I J J ",
"& * ^ / ; c ; K A L < 2 r k M N O P Q R S T U V ",
"* ^ / | W , X V Y < 8 Z h M `  ...+.@.Q #.$.%.&.",
"* * c 4 *.=.-.;.>.r ,.Z C '.).!...~.{.].^./.U (.",
"3 _.d *.:.<.[.}.|.1.2.3.4.5.~.Q 6.7.8.9.0.U (.a.",
"- ; k b.c.d.R e.f.g.U h.i.8.j.d.[.j.k.l.U m.n.&.",
"- c Y o.p.j.6.R @.q.r.s.t.u.R R v.^.w.U x.y.n.&.",
"- ; 2 z.A.B.C.D.R d.E.8.F.+.d.G.H.I.U >.n.n.J.J.",
"- > d K.L.M.P j.].].j.R N.~.j.O.P.U Q.R.R.S.&.&.",
"; ' p e T.U.V.P j.F.j.j.d.e.W.X.U (.C S.n.Y.J.R.",
"> ' ) 2 Z.`. +.+++@+#+$+..%+&+U &.*+R.&.&.&.U U ",
"' ' ) 2 1 =+&.-+;+++j.{.>+,+U m.R.&.R.&.&.&.U R.",
"> ' ! 2 Y Y '+)+!+E @.~+{+U m.]+R.^+&.U U U R.R.",
"' ) ~ 6 Y k h /+U (+_+:+U Q.R.R.&.&.U R.R.R.R.R.",
"' ) ~ 6 Y <+h [+}+|+J.U C Q.R.)+n.&.U R.R.R.R.R.",
"' ) ~ 6 Y r h 1+j /+2+3+4+&.5+6+&.&.U R.R.R.R.R.",
"' ) ~ 6 Y r h V V V (.(.a.7+^+&.)+&.U R.R.R.R.R.",
"> ) ~ 6 Y r h J 8+V (.(.a.7+J.&.&.&.U R.R.R.R.R."};
