/* XPM */
static char * imagefile_xpm[] = {
"48 48 151 2",
"  	c None",
". 	c #FFFFFF",
"+ 	c #FEFEFE",
"@ 	c #94CAF8",
"# 	c #83C2F7",
"$ 	c #81C1F7",
"% 	c #A9D4F9",
"& 	c #6FB5F7",
"* 	c #6CB7F6",
"= 	c #9CCEF8",
"- 	c #6DB4F7",
"; 	c #6EB4F6",
"> 	c #6FB4F5",
", 	c #6DB8F7",
"' 	c #6CB3F6",
") 	c #6EB8F6",
"! 	c #6FB8F5",
"~ 	c #9BCEF9",
"{ 	c #9ACFF8",
"] 	c #6BB5F9",
"^ 	c #6CB8F8",
"/ 	c #90BAD8",
"( 	c #C0C2AA",
"_ 	c #C2C3A9",
": 	c #9EBDD2",
"< 	c #9ACDF8",
"[ 	c #6FB9F7",
"} 	c #DBC993",
"| 	c #FDD471",
"1 	c #FDD473",
"2 	c #EACE84",
"3 	c #72B8F4",
"4 	c #AFBDB4",
"5 	c #FDD66D",
"6 	c #F6D17A",
"7 	c #F5D479",
"8 	c #FDD36F",
"9 	c #C7C6A5",
"0 	c #6BB8F9",
"a 	c #6CB4F8",
"b 	c #FAD376",
"c 	c #F7D279",
"d 	c #F5D179",
"e 	c #71B5F5",
"f 	c #73B5F3",
"g 	c #FDD771",
"h 	c #79B5ED",
"i 	c #71B9F7",
"j 	c #6EB3F4",
"k 	c #5A9AE2",
"l 	c #76BDFA",
"m 	c #A5C1CF",
"n 	c #F4D17C",
"o 	c #FDD76F",
"p 	c #ADBFBF",
"q 	c #516381",
"r 	c #4C7BBC",
"s 	c #6EB7F4",
"t 	c #75BCF9",
"u 	c #BCC1AB",
"v 	c #C8C5A4",
"w 	c #50678A",
"x 	c #50668A",
"y 	c #50688C",
"z 	c #5593D9",
"A 	c #70BAF8",
"B 	c #7DB5E9",
"C 	c #A6BFCC",
"D 	c #A6BECC",
"E 	c #80B8E8",
"F 	c #50678E",
"G 	c #4F668D",
"H 	c #516583",
"I 	c #4C72AA",
"J 	c #66ADF0",
"K 	c #73BCF9",
"L 	c #4F678F",
"M 	c #51678D",
"N 	c #4E82CA",
"O 	c #4F6993",
"P 	c #5EA2E8",
"Q 	c #74BBF8",
"R 	c #4F688D",
"S 	c #516483",
"T 	c #4B74B1",
"U 	c #64ABEE",
"V 	c #5898E0",
"W 	c #61A6ED",
"X 	c #65ACEF",
"Y 	c #4B7BBD",
"Z 	c #506280",
"` 	c #506588",
" .	c #5DA2E9",
"..	c #72BAF8",
"+.	c #4F698F",
"@.	c #506486",
"#.	c #5189CF",
"$.	c #506A92",
"%.	c #50668E",
"&.	c #5999E1",
"*.	c #506890",
"=.	c #4F6891",
"-.	c #61A5EB",
";.	c #4D81C7",
">.	c #5897DE",
",.	c #4C80C0",
"'.	c #5DA1E7",
").	c #4E6C9E",
"!.	c #78BEFA",
"~.	c #51678B",
"{.	c #5B9BE3",
"].	c #5391D7",
"^.	c #528BD2",
"/.	c #4A78B6",
"(.	c #4B72AD",
"_.	c #4E85CA",
":.	c #506688",
"<.	c #50678C",
"[.	c #4D80C5",
"}.	c #4D70A5",
"|.	c #62AAEE",
"1.	c #4B7ABB",
"2.	c #4B7CBF",
"3.	c #528CD4",
"4.	c #5C9DE6",
"5.	c #4F6B99",
"6.	c #4C71A8",
"7.	c #4E81C6",
"8.	c #4F6D99",
"9.	c #4D6FA1",
"0.	c #5C9FE4",
"a.	c #51627F",
"b.	c #4F6A97",
"c.	c #6BB2F5",
"d.	c #9DCFF9",
"e.	c #4C75AC",
"f.	c #4B75AF",
"g.	c #6BB1F3",
"h.	c #4D81C1",
"i.	c #4E70A4",
"j.	c #4878BA",
"k.	c #9BD0F9",
"l.	c #79BDF7",
"m.	c #64B0F6",
"n.	c #62AFF6",
"o.	c #61AEF5",
"p.	c #92C9F8",
"q.	c #D3EAFB",
"r.	c #CBE4FB",
"s.	c #CBE5FB",
"t.	c #DBECFB",
". + . . . . . . . . . . . . . . . . . . . . . . . . . . . . . . . . . . . . . . . . . . . . + . ",
"+ . . . . . . . . . . . . . . . . . . . . . . . . . . . . . . . . . . . . . . . . . . . . . + . ",
". . @ # # # # # # # # # # # # # # # # # # # # # # # # # # # # # # # # # # # # # # # # # $ % . + ",
". . # & & & & & & & & & & & & & & & & & & & & & & & & & & & & & & & & & & & & & & & & & * = . + ",
". . # & & - & & & & ; & & > & & & & & & & & & & & , & & & & > & & , - & & & & & & & , & ' = . . ",
". . # & & ; > ; ) ) ; ) ) ; & ) & ) ) , ! ! , ; & ) ! & ) ) > ; ) ) ; , & ; ; ) & ) ) , ' ~ . + ",
". . # & & & & > & & > & & > & & & ! & & & ! ! ! - ! & & ! & > - & & & ; & > & & & & ; ) ' { . . ",
". . # & & ; > > & ) ; ) ) > & , & ! , - ] ] ] ] - ! ! & ) ) > ; ! ) ; & & ; > & & , ) & ' = . + ",
". . # & & > > > & > > > > > & & & ! - ^ / ( _ : ^ - ! & > > > ; > > > & & > > & & & ; & ' < . . ",
". . # & & & & & & & > & & > & & & - [ } | 1 1 | 2 3 - - & & & - & & & - & & & & & & ; , ' < . . ",
". . # & & ; > > & ; ; ; ; > ! - ! ] 4 5 6 7 7 6 8 9 0 ! ; ; > ; > ; ; > & ; > & ! - ; ! ' = . + ",
". . # & & & & > & & > & & > & & - a b c 6 d c 6 6 | e - > & > & & & & & & > & & & & ; & ' { . + ",
". . # & & ; & > ) & ; & & ; & & , f 1 6 c 6 c c 6 g h , ! & > & & ) ; & & > & ) & & ) & ' ~ . + ",
". . # & & i ; & > ; ; ) ; > & ) - ] c c c c d c c | , - ; ; > ; > ) ; & & ; > ! & ; ) & ' = . + ",
". . # & j k l ' , & > & & > & & ! ^ m 5 n c c 6 o p ] ! & & > & & ! > - & & & & & & ; , ' { . . ",
". . # & [ q r s t ; ; & & ; & & - - a u | o o o v a - - & & > & & ) ; & & & & ) & & ; & ' < . . ",
". . # & [ w x y z l A ; ; ; & & & , ! 0 B C D E 0 ! ! & & & > - & ) ; - & & & , & & ; , ' = . . ",
". . # & [ w F G H I J K & ; & & & ! - - , a ^ , - ! & & ! & > - & & & ; & > & & & & ; ) ' = . . ",
". . # & [ w L M F x H N i i ; , & & & & ! ! & & & & & & & ; & & & ! > & & & & & & & ) & ' ~ . + ",
". . # & [ w F F F G F H O P t ' ) & & ) & ; & & & & & & ; Q & ; & & & ) & ! & & & & ; ) ' = . . ",
". . # & [ w L G R G F F F S r s K ; ; & ! ; & ; & ; ; Q ; T U K ; & ; & & ; > ! & ) ; & ' { . . ",
". . # & [ w L G G L L G F M w y z t i ; & ; & - ; & t V F x x W K ; ; > & ; > ! & ; ; ! ' < . . ",
". . # & [ w L R R R M R R R F y q I X t ; ; ) ; A [ Y Z G F y `  ...; ; & > > & & & ) & ' = . + ",
". . # & [ w L F G F L F +.M F M F ` @.#.[ A ' Q  .$.S F G %.F G @.&.Q ; & & & & & & - & ' = . . ",
". . # & [ w F F G F M F F G F F F G *.` =.-.l ;.@.F F G F F %.G *.S >.l ; & & ; & & ; & ' ~ . . ",
". . # & [ w L R G +.G R +.G F +.F F G S ,.'.).@.F F +.G R G G R G F H z !.; & ; & , ; & ' = . . ",
". . # & [ w %.F F F F F F G F F F x ~.{.].@.x F G %.F F F %.F F F F G S ^.t ; ; & & ; ! ' = . . ",
". . # & [ w L G R G M G G G G *.S /.U (.S M F M G G M R G G M R R G F F q _.K ; & , ; ) ' < . + ",
". . # & [ w L %.+.%.%.%.L F x @.z &.:.<.F G %.%.%.%.%.F %.%.M M F G %.G *.H [.l & & ; , ' { . . ",
". . # & [ w %.F F F F F G S }.|.1.q F G F L F F F %.F F F %.M M F M F F F F S 2.!.; & & ' = . . ",
". . # & [ w L G R G F y H 3.4.*.w F F G R G G M G L %.R G G M R +.G L R G G F H /...> ; ' ~ . + ",
". . # & [ w %.M G F x 5.-.[.q G F M M R G G G M R G F G M M M M F G G G R M M F @.6.A & ' = . . ",
". . # & [ w F F *.H 7.W 8.S F G F M F F G G G F F G F G F F G M F G G F F F F G F @.9.& - = . . ",
". . # & [ S x @.y 0.#.a.w x x x x x x x x x x x x x x x x x x x x x x x x x x x x x S b.c.d.. . ",
". . # & , e.f.1.g.h.i.f.f.f.f.f.f.f.f.f.f.f.f.f.f.f.f.f.f.f.f.f.f.f.f.f.f.f.f.f.f.f.f.e.j.k.. + ",
". . # & > t K K [ ..t K K K K K K K K K K K K K K K K K K K K K K K K K K K K K K K K K A = . . ",
". . l.m.n.n.n.n.n.n.n.n.n.n.n.n.n.n.n.n.n.n.n.n.n.n.n.n.n.n.n.n.n.n.n.n.n.n.n.n.n.n.n.n.o.p.. . ",
". . q.r.r.r.r.r.r.r.r.r.r.r.r.r.r.r.r.r.r.r.r.r.r.r.r.r.r.r.r.r.r.r.r.r.r.r.r.r.r.r.r.r.s.t.. + ",
"+ + . . . . . . . . . . . . . . . . . . . . . . . . . . . . . . . . . . . . . . . . . . . . + . ",
". . . . . . . . . . . . + . . . . . . + . . . . . . . . . . . . . . . . . . . . . . . + . . . . ",
". . . . + . . . . . . . + + . . . . . + . . . . . . . . . . . . . . . . . . . . . . . + . . . . ",
". . . . + . . . . . . . + + . . . . . + . . . . . . . . . . . . . . . . . . . . . . . + . . . . ",
". . . + . . . + . . + + + + . . . . + + . . + . . . . . + . . . . . . . . + . . . . . + . . . . ",
"+ + + + . + . + . + + + . + + . + . + . . . + + . . + . + + + . + . + + + + . . . + . + + . + + ",
"+ + + + . + . + . + + + + + . . . . + + . + + + . . + . + + + . + . + . . + . . . + + + + . . + ",
". . . . . . . . . . + . + + . . . . . + . + + . . . . + . . . . . . . . . . . . . . + + . . . . ",
". . + + . + . + + . + + + + . . . . + . + . + . . + . . + . + . . + + . . + . + . . . + + . . . ",
". . + + . + . + + . + + + + + . + . + + + . + . . + . . + . + . . + + . + + . + . . . + + . . . "};
