/* XPM */
static char * particle_xpm[] = {
"48 48 814 2",
"  	c #FFFAFB",
". 	c #FEFBFC",
"+ 	c #FEFAFA",
"@ 	c #FEFCFC",
"# 	c #FCF2F2",
"$ 	c #F6C4C1",
"% 	c #E75E55",
"& 	c #E1604E",
"* 	c #E89182",
"= 	c #F6D2CC",
"- 	c #F8C4C2",
"; 	c #E7443E",
"> 	c #E5453A",
", 	c #E64C3E",
"' 	c #E53F35",
") 	c #E3342D",
"! 	c #E4362F",
"~ 	c #F5B0AC",
"{ 	c #F7BBB8",
"] 	c #E6483B",
"^ 	c #E9A981",
"/ 	c #E4A678",
"( 	c #E4A677",
"_ 	c #D7553D",
": 	c #D3302B",
"< 	c #D0433A",
"[ 	c #F6DCDA",
"} 	c #FEF0F1",
"| 	c #E7413A",
"1 	c #E53C33",
"2 	c #E69A72",
"3 	c #DC9F6A",
"4 	c #DB9E69",
"5 	c #DB9966",
"6 	c #D36946",
"7 	c #AD282B",
"8 	c #A72A2C",
"9 	c #D78A80",
"0 	c #F8C2C0",
"a 	c #E4332D",
"b 	c #E86C51",
"c 	c #E1A473",
"d 	c #DB9D68",
"e 	c #D98E60",
"f 	c #CC3E2F",
"g 	c #B12A2A",
"h 	c #A3242B",
"i 	c #BF584B",
"j 	c #F3A19D",
"k 	c #E3332D",
"l 	c #E9865F",
"m 	c #DEA16F",
"n 	c #DB9C68",
"o 	c #D7835A",
"p 	c #CC3E30",
"q 	c #B42B2A",
"r 	c #A4242B",
"s 	c #C94B3C",
"t 	c #FFFBFB",
"u 	c #FEF6F9",
"v 	c #F3DBE7",
"w 	c #F0D9E2",
"x 	c #FDF6F6",
"y 	c #F39B97",
"z 	c #E4352D",
"A 	c #E88B60",
"B 	c #E0A371",
"C 	c #D47553",
"D 	c #CC4535",
"E 	c #CA3628",
"F 	c #B22A2A",
"G 	c #A5252B",
"H 	c #CB5344",
"I 	c #FCF9F8",
"J 	c #FCFAF8",
"K 	c #FDFCFC",
"L 	c #FDFDFD",
"M 	c #FDFBFC",
"N 	c #E59EE7",
"O 	c #CA41D2",
"P 	c #AB2EC8",
"Q 	c #9B2FC4",
"R 	c #CD85B3",
"S 	c #FEF7F8",
"T 	c #FAF7FA",
"U 	c #CFDBF1",
"V 	c #BAA0B3",
"W 	c #BB8997",
"X 	c #E5CDD3",
"Y 	c #F5BCBA",
"Z 	c #E4342D",
"` 	c #DA503A",
" .	c #D4563E",
"..	c #CE4D36",
"+.	c #CA382A",
"@.	c #BD2F29",
"#.	c #A5242C",
"$.	c #AE2B2E",
"%.	c #DF9383",
"&.	c #FCF0EE",
"*.	c #C7B487",
"=.	c #8BC262",
"-.	c #66DD60",
";.	c #63DC5F",
">.	c #6DD867",
",.	c #D5F1D4",
"'.	c #EAB3ED",
").	c #C430CE",
"!.	c #C33AC1",
"~.	c #7B35B9",
"{.	c #6027BD",
"].	c #893CAF",
"^.	c #E9D5CD",
"/.	c #EEEFF8",
"(.	c #7AA3DF",
"_.	c #6C9BD9",
":.	c #5B446C",
"<.	c #4A3156",
"[.	c #652943",
"}.	c #C37287",
"|.	c #F08B87",
"1.	c #E2332D",
"2.	c #BB2B2B",
"3.	c #AC272B",
"4.	c #AB272B",
"5.	c #AC282B",
"6.	c #A4242C",
"7.	c #A9272C",
"8.	c #CF694F",
"9.	c #F9E9E5",
"0.	c #FFF9F9",
"a.	c #A1B674",
"b.	c #60D759",
"c.	c #65DF61",
"d.	c #68DF60",
"e.	c #62DC5E",
"f.	c #4DCB4A",
"g.	c #53BA51",
"h.	c #CF73D8",
"i.	c #962BC7",
"j.	c #A855A0",
"k.	c #A06EC9",
"l.	c #5F27BC",
"m.	c #702DB7",
"n.	c #E6CFC5",
"o.	c #F6F4F9",
"p.	c #81A6DF",
"q.	c #77A8CC",
"r.	c #99D4A8",
"s.	c #92CAA1",
"t.	c #4D7086",
"u.	c #2D3D73",
"v.	c #692A44",
"w.	c #EED0D7",
"x.	c #F6BBB8",
"y.	c #BF4E4C",
"z.	c #A8282E",
"A.	c #AD2C30",
"B.	c #AD2D30",
"C.	c #B63633",
"D.	c #D67967",
"E.	c #F9E9E4",
"F.	c #D5CEAC",
"G.	c #61D459",
"H.	c #72E15E",
"I.	c #A4E953",
"J.	c #97E34D",
"K.	c #30A92D",
"L.	c #28892C",
"M.	c #686D72",
"N.	c #6327BE",
"O.	c #6728BB",
"P.	c #6026BD",
"Q.	c #702CBA",
"R.	c #EAD6CE",
"S.	c #B1C0E0",
"T.	c #6A98DA",
"U.	c #95CEAB",
"V.	c #99D3A8",
"W.	c #84B7BF",
"X.	c #5A8B9D",
"Y.	c #2A4079",
"Z.	c #3E3561",
"`.	c #B895B6",
" +	c #FDF3F2",
".+	c #E9BBAA",
"++	c #E3A88E",
"@+	c #E4A88F",
"#+	c #F0CDBF",
"$+	c #FFF9FA",
"%+	c #FEF8F8",
"&+	c #8BCA6C",
"*+	c #64DE61",
"=+	c #70E15F",
"-+	c #AAEB51",
";+	c #A7EB53",
">+	c #9EEB54",
",+	c #41B440",
"'+	c #29872D",
")+	c #339031",
"!+	c #7B44C0",
"~+	c #5D27BA",
"{+	c #6328BB",
"]+	c #A960AB",
"^+	c #FAF2F1",
"/+	c #93AAD8",
"(+	c #709FD5",
"_+	c #9CD7A5",
":+	c #87BCBB",
"<+	c #6A96DA",
"[+	c #2A5298",
"}+	c #284483",
"|+	c #3A3765",
"1+	c #B2A6C2",
"2+	c #D8D6D8",
"3+	c #BAB8BB",
"4+	c #FBF6F6",
"5+	c #FCF3F0",
"6+	c #72D35F",
"7+	c #64DE60",
"8+	c #82E359",
"9+	c #A8EB52",
"0+	c #5CEB6C",
"a+	c #4DDE65",
"b+	c #2D9636",
"c+	c #28872D",
"d+	c #30972B",
"e+	c #EFEBE6",
"f+	c #A386BF",
"g+	c #9972BD",
"h+	c #D1B2D2",
"i+	c #F4E7E5",
"j+	c #A1A8C7",
"k+	c #5C8BC5",
"l+	c #9AD5A3",
"m+	c #6FA3AB",
"n+	c #416DB1",
"o+	c #274C92",
"p+	c #284583",
"q+	c #2A3E76",
"r+	c #9BA5C1",
"s+	c #C7D4E4",
"t+	c #5589B6",
"u+	c #608CBB",
"v+	c #787CC3",
"w+	c #C5BAC0",
"x+	c #9C9C9F",
"y+	c #D9D5D7",
"z+	c #FCF5F4",
"A+	c #72D764",
"B+	c #5ED65B",
"C+	c #53B541",
"D+	c #87E658",
"E+	c #47D65F",
"F+	c #309E3A",
"G+	c #30A22C",
"H+	c #F4F5EF",
"I+	c #D5C7C2",
"J+	c #DBCECA",
"K+	c #D9BCB7",
"L+	c #4C76BB",
"M+	c #477898",
"N+	c #2B5593",
"O+	c #264B92",
"P+	c #254B91",
"Q+	c #27488A",
"R+	c #284989",
"S+	c #C1CBDD",
"T+	c #4E8DB6",
"U+	c #85CDD8",
"V+	c #75B7CD",
"W+	c #2A348F",
"X+	c #8382B6",
"Y+	c #9E9EA0",
"Z+	c #BBBABC",
"`+	c #87D980",
" @	c #369E3A",
".@	c #29882D",
"+@	c #2A8A2F",
"@@	c #2A882E",
"#@	c #288C2C",
"$@	c #5EB23A",
"%@	c #CDC153",
"&@	c #CBB854",
"*@	c #CEBF5D",
"=@	c #F1EACB",
"-@	c #FEF8F9",
";@	c #E8D3CA",
">@	c #E2CBC1",
",@	c #ECDEDC",
"'@	c #819BCA",
")@	c #2A5399",
"!@	c #2A5094",
"~@	c #98A8C8",
"{@	c #A3BBD6",
"]@	c #5FA5C2",
"^@	c #7BBACC",
"/@	c #44598F",
"(@	c #2E3375",
"_@	c #5463A8",
":@	c #A2A0A1",
"<@	c #B0B0B3",
"[@	c #B2DAAF",
"}@	c #2A8B2E",
"|@	c #288A2C",
"1@	c #28892D",
"2@	c #28882D",
"3@	c #288E2B",
"4@	c #5BA13E",
"5@	c #BEB233",
"6@	c #DAB67F",
"7@	c #E6BAAC",
"8@	c #C89E6E",
"9@	c #AA8732",
"0@	c #F8F0E7",
"a@	c #FFFAFA",
"b@	c #C8AAA1",
"c@	c #7F798C",
"d@	c #8D95B3",
"e@	c #4D5578",
"f@	c #787D97",
"g@	c #B5B2C5",
"h@	c #696F90",
"i@	c #516390",
"j@	c #707493",
"k@	c #D2D0DB",
"l@	c #90AECE",
"m@	c #4482AE",
"n@	c #3E4E87",
"o@	c #334086",
"p@	c #2E357D",
"q@	c #5061A7",
"r@	c #B3B2B5",
"s@	c #FEF9FA",
"t@	c #B1DBAC",
"u@	c #76C06D",
"v@	c #3AA836",
"w@	c #2A9B2A",
"x@	c #30A42C",
"y@	c #92C37F",
"z@	c #ECE0C4",
"A@	c #C9B244",
"B@	c #E7BBAF",
"C@	c #E7BAAE",
"D@	c #C0897B",
"E@	c #7B3828",
"F@	c #D7BCB1",
"G@	c #F1E2DD",
"H@	c #665C6D",
"I@	c #B4BEDA",
"J@	c #B7C0DB",
"K@	c #4C567A",
"L@	c #363340",
"M@	c #CFCBD1",
"N@	c #F4ECEC",
"O@	c #CBC0BD",
"P@	c #DFD6D4",
"Q@	c #FDF8F9",
"R@	c #CBD7E6",
"S@	c #395592",
"T@	c #2D3377",
"U@	c #272B9A",
"V@	c #2C33A8",
"W@	c #8F95B3",
"X@	c #9C9D9F",
"Y@	c #D7D4D5",
"Z@	c #F6F4F0",
"`@	c #C2CDBD",
" #	c #ECEFE8",
".#	c #F9F3E6",
"+#	c #BFA930",
"@#	c #A96F5A",
"##	c #A36A5C",
"$#	c #7B382A",
"%#	c #803F29",
"&#	c #E1CBBB",
"*#	c #E7D2C9",
"=#	c #5C5A73",
"-#	c #B7C1DB",
";#	c #9F9AAC",
">#	c #4D363C",
",#	c #43302C",
"'#	c #BAB2B5",
")#	c #E8E4E6",
"!#	c #A1A2A5",
"~#	c #9D9EA0",
"{#	c #DFDBDB",
"]#	c #EAE7F1",
"^#	c #7072BA",
"/#	c #7476BD",
"(#	c #D6D1E7",
"_#	c #CDCACC",
":#	c #9B9C9F",
"<#	c #DBD6D7",
"[#	c #E9E1DF",
"}#	c #C0BFC1",
"|#	c #BE9B63",
"1#	c #7B3928",
"2#	c #7A3728",
"3#	c #7E3C28",
"4#	c #AF844E",
"5#	c #F8EEEC",
"6#	c #EEDDD8",
"7#	c #4B4A65",
"8#	c #3E4A71",
"9#	c #45384E",
"0#	c #4F332D",
"a#	c #443A44",
"b#	c #E1DEE5",
"c#	c #E0DBDC",
"d#	c #C1C0C2",
"e#	c #CECCCE",
"f#	c #9D9DA0",
"g#	c #CAC8CB",
"h#	c #E9E3E4",
"i#	c #9F9EA0",
"j#	c #A7A7A9",
"k#	c #FAF5F7",
"l#	c #EAE0DE",
"m#	c #A6A2A2",
"n#	c #A1A1A4",
"o#	c #F9F4F5",
"p#	c #F8EFEE",
"q#	c #C2A899",
"r#	c #BDA37E",
"s#	c #DDCAA8",
"t#	c #F7EDE9",
"u#	c #ACA7B2",
"v#	c #3D3847",
"w#	c #443333",
"x#	c #46383B",
"y#	c #C3C0CA",
"z#	c #E6E2E4",
"A#	c #9FA0A3",
"B#	c #D2CECE",
"C#	c #F3EFF0",
"D#	c #B2B1B3",
"E#	c #ECE5E4",
"F#	c #B2A9A7",
"G#	c #E6E3E4",
"H#	c #F8F4F5",
"I#	c #B4B3B5",
"J#	c #B0B0B2",
"K#	c #FCF8F9",
"L#	c #F9F4F6",
"M#	c #9E9EA1",
"N#	c #E0DAD9",
"O#	c #E7E2E6",
"P#	c #E2D8D9",
"Q#	c #E8E1E4",
"R#	c #BDBCBE",
"S#	c #9B9C9E",
"T#	c #B4AAA7",
"U#	c #E7DDDB",
"V#	c #F7F3F4",
"W#	c #AAA9AC",
"X#	c #9E9FA2",
"Y#	c #E8E1E1",
"Z#	c #A5A1A2",
"`#	c #EBE7E8",
" $	c #DFDCDE",
".$	c #ABA6A5",
"+$	c #F0E9E9",
"@$	c #F9F3F3",
"#$	c #B8ACA8",
"$$	c #C7C5C7",
"%$	c #BFBDBF",
"&$	c #ABAAAC",
"*$	c #FAF5F6",
"=$	c #DDDBDB",
"-$	c #9D9D9F",
";$	c #D1CCCD",
">$	c #D3CFCF",
",$	c #999696",
"'$	c #A3A1A4",
")$	c #999A9D",
"!$	c #817F7F",
"~$	c #A3A3A6",
"{$	c #7D7D7E",
"]$	c #7E7C7C",
"^$	c #828081",
"/$	c #999697",
"($	c #BFBCBD",
"_$	c #C3C1C2",
":$	c #ACA7A5",
"<$	c #F3ECEB",
"[$	c #F0E8E7",
"}$	c #B5AAA7",
"|$	c #9B9B9E",
"1$	c #FCF7F8",
"2$	c #AEAEB0",
"3$	c #E2DFE0",
"4$	c #EEEAEA",
"5$	c #C9C5C5",
"6$	c #989595",
"7$	c #959698",
"8$	c #545454",
"9$	c #4B4A4A",
"0$	c #8B8B8D",
"a$	c #939497",
"b$	c #6A6969",
"c$	c #828182",
"d$	c #5D5A5A",
"e$	c #5D5B5B",
"f$	c #535151",
"g$	c #4C4B4B",
"h$	c #4E4C4C",
"i$	c #545252",
"j$	c #8B8C8E",
"k$	c #99999B",
"l$	c #868281",
"m$	c #A4A1A2",
"n$	c #CCC9CA",
"o$	c #D9D1D0",
"p$	c #A29FA1",
"q$	c #EDE6E5",
"r$	c #FFFBFC",
"s$	c #E1DEE0",
"t$	c #8D8D8F",
"u$	c #6D6B6B",
"v$	c #525050",
"w$	c #4D4B4B",
"x$	c #767577",
"y$	c #979799",
"z$	c #807E7E",
"A$	c #A09D9D",
"B$	c #C2BFC0",
"C$	c #CCCACC",
"D$	c #9C9DA0",
"E$	c #C0C0C1",
"F$	c #A3A4A7",
"G$	c #A0A0A3",
"H$	c #F0EEEE",
"I$	c #F7F4F5",
"J$	c #EDEAEA",
"K$	c #C5C3C3",
"L$	c #B3B2B2",
"M$	c #89898A",
"N$	c #8C8C8E",
"O$	c #4F4D4D",
"P$	c #6A6869",
"Q$	c #9A9B9E",
"R$	c #ACA4A2",
"S$	c #C7C3C3",
"T$	c #7B7879",
"U$	c #8C8C8F",
"V$	c #616060",
"W$	c #959494",
"X$	c #9FA0A2",
"Y$	c #A0A0A2",
"Z$	c #EFECEB",
"`$	c #FDFCFD",
" %	c #B8B8BA",
".%	c #E5E5E6",
"+%	c #BFC0C2",
"@%	c #9D9EA1",
"#%	c #F5F5F5",
"$%	c #F7F7F7",
"%%	c #A8A9AB",
"&%	c #EEEEEE",
"*%	c #EAE9E9",
"=%	c #CCCACA",
"-%	c #A6A4A4",
";%	c #949497",
">%	c #8E8F91",
",%	c #666364",
"'%	c #ABA8A8",
")%	c #E1DDDD",
"!%	c #F6F4F4",
"~%	c #7E7B7B",
"{%	c #4B4949",
"]%	c #7F7D7D",
"^%	c #CDCDCE",
"/%	c #D8D9DA",
"(%	c #B5B5B8",
"_%	c #FAFAFA",
":%	c #DDDBDC",
"<%	c #DFDDDE",
"[%	c #D4D4D5",
"}%	c #A8A9AC",
"|%	c #F8F8F8",
"1%	c #F2F1F1",
"2%	c #ABACAE",
"3%	c #F9F9F9",
"4%	c #AFB0B2",
"5%	c #6A6868",
"6%	c #565454",
"7%	c #C9C6C6",
"8%	c #C5C5C7",
"9%	c #45464A",
"0%	c #7C7B7B",
"a%	c #D2D2D2",
"b%	c #DEDEDF",
"c%	c #D7D7D9",
"d%	c #FCFAFA",
"e%	c #D7D5D6",
"f%	c #AAACAE",
"g%	c #DADBDB",
"h%	c #CACACC",
"i%	c #C6C7C9",
"j%	c #C9CACC",
"k%	c #CFCFD1",
"l%	c #E7E6E7",
"m%	c #D9DADB",
"n%	c #CECFD0",
"o%	c #F6F6F7",
"p%	c #E2E2E3",
"q%	c #CBCBCD",
"r%	c #F9F8F8",
"s%	c #BABABA",
"t%	c #4A4A4B",
"u%	c #232428",
"v%	c #C4C4C6",
"w%	c #E6E6E7",
"x%	c #2B2D33",
"y%	c #24252A",
"z%	c #666464",
"A%	c #B6B7B9",
"B%	c #C1BFC2",
"C%	c #F5F1F2",
"D%	c #E9E5E6",
"E%	c #C9C5C8",
"F%	c #A9A8AA",
"G%	c #8B8A8F",
"H%	c #6A6A70",
"I%	c #3C3D44",
"J%	c #222327",
"K%	c #212227",
"L%	c #202125",
"M%	c #1F2023",
"N%	c #212226",
"O%	c #1F2124",
"P%	c #26272D",
"Q%	c #27282D",
"R%	c #66686D",
"S%	c #95969A",
"T%	c #C5C6C8",
"U%	c #FBFBFB",
"V%	c #E7E7E8",
"W%	c #FCFCFC",
"X%	c #E6E5E5",
"Y%	c #303238",
"Z%	c #D3D3D4",
"`%	c #7F8084",
" &	c #79797C",
".&	c #F0F0F0",
"+&	c #E9E6E8",
"@&	c #CFCCCE",
"#&	c #8C8B90",
"$&	c #58595F",
"%&	c #44444B",
"&&	c #32333A",
"*&	c #1F2024",
"=&	c #202124",
"-&	c #25272B",
";&	c #2E3034",
">&	c #323337",
",&	c #37373B",
"'&	c #3D3D40",
")&	c #414044",
"!&	c #3F3E41",
"~&	c #3A3A3D",
"{&	c #37373A",
"]&	c #2D2E32",
"^&	c #1E1F23",
"/&	c #34363C",
"(&	c #E3E3E4",
"_&	c #949598",
":&	c #434449",
"<&	c #E6E6E6",
"[&	c #282A2F",
"}&	c #313339",
"|&	c #A8A6A9",
"1&	c #55555C",
"2&	c #25262A",
"3&	c #2A2A2E",
"4&	c #2E2F33",
"5&	c #343539",
"6&	c #3E3E44",
"7&	c #515156",
"8&	c #64656C",
"9&	c #5A5B62",
"0&	c #5B5C64",
"a&	c #5C5D64",
"b&	c #5C5D65",
"c&	c #5A5B61",
"d&	c #58585D",
"e&	c #565559",
"f&	c #575558",
"g&	c #4E4D4F",
"h&	c #414144",
"i&	c #333337",
"j&	c #25272A",
"k&	c #4B4C52",
"l&	c #A9A8AB",
"m&	c #EAE6E8",
"n&	c #F2F3F3",
"o&	c #32343A",
"p&	c #959598",
"q&	c #FBFAFA",
"r&	c #757579",
"s&	c #969599",
"t&	c #FAF6F7",
"u&	c #A4A2A6",
"v&	c #36373E",
"w&	c #2B2C30",
"x&	c #444445",
"y&	c #535255",
"z&	c #57575D",
"A&	c #58585E",
"B&	c #5A5A60",
"C&	c #5D5E66",
"D&	c #5E5F67",
"E&	c #656670",
"F&	c #777880",
"G&	c #7D7E85",
"H&	c #6B6C73",
"I&	c #6F7076",
"J&	c #797A81",
"K&	c #6D6E75",
"L&	c #62636C",
"M&	c #5F6067",
"N&	c #5B5C63",
"O&	c #53545A",
"P&	c #2E2F34",
"Q&	c #2D2D32",
"R&	c #48494F",
"S&	c #8F9094",
"T&	c #23252A",
"U&	c #BDBDBE",
"V&	c #BEBFC0",
"W&	c #232328",
"X&	c #25262B",
"Y&	c #2F3036",
"Z&	c #26272B",
"`&	c #3E3E42",
" *	c #55555B",
".*	c #5F5F65",
"+*	c #5C5E66",
"@*	c #6A6A72",
"#*	c #A9A9AE",
"$*	c #CDCED0",
"%*	c #DEDEE0",
"&*	c #DEDFE1",
"**	c #DEDFE8",
"=*	c #D9DAE5",
"-*	c #D6D7E3",
";*	c #D3D4E1",
">*	c #E2E3EC",
",*	c #F1F2F5",
"'*	c #FBFBFC",
")*	c #F9F9FA",
"!*	c #F4F4F5",
"~*	c #E8E8EA",
"{*	c #C4C4C7",
"]*	c #A8A8AC",
"^*	c #939499",
"/*	c #838489",
"(*	c #73747B",
"_*	c #62636B",
":*	c #5C5C63",
"<*	c #59585C",
"[*	c #4B4B4B",
"}*	c #333336",
"|*	c #242529",
"1*	c #2C2E33",
"2*	c #33353A",
"3*	c #ECEBEB",
"4*	c #2E3035",
"5*	c #2C2D33",
"6*	c #535358",
"7*	c #5D5F66",
"8*	c #808187",
"9*	c #A6A7AB",
"0*	c #B5B5B9",
"a*	c #BBBBBF",
"b*	c #FCFCFD",
"c*	c #EEEEEF",
"d*	c #C1C1C4",
"e*	c #A0A1A6",
"f*	c #A8A8AD",
"g*	c #7A7B82",
"h*	c #848589",
"i*	c #6E6E71",
"j*	c #555455",
"k*	c #44454B",
"l*	c #E3E3E3",
"m*	c #46474C",
"n*	c #87878A",
"o*	c #A6A6A9",
"p*	c #ADAEB2",
"q*	c #ACACB1",
"r*	c #A8A9AD",
"s*	c #B0B0B8",
"t*	c #ECEDF1",
"u*	c #F9F9FB",
"v*	c #FAFAFB",
"w*	c #F9F8F9",
"x*	c #C8C8CB",
"y*	c #99999F",
"z*	c #66676F",
"A*	c #9D9C9F",
"B*	c #8F8E8E",
"C*	c #E7E7E7",
"D*	c #E1E1E2",
"E*	c #918F93",
"F*	c #ECE8EA",
"G*	c #FEFCFD",
"H*	c #ECECED",
"I*	c #C7C8CB",
"J*	c #F0F0F1",
"K*	c #FEFBFB",
"L*	c #FEFAFB",
"M*	c #FBF9F9",
"                                                                                                ",
"                                                                                                ",
"                                                                                                ",
"                                                                                                ",
"                                        . . . +                                                 ",
"                                      @ # $ % & * =                                             ",
"                                      - ; > , ' ) ! ~                                           ",
"                                    { ! ] ^ / ( _ : < [                                         ",
"                                  } | 1 2 3 4 5 6 7 8 9                                         ",
"                                  0 a b c 4 d e f g h i                                         ",
"                                  j k l m d n o p q r s           t @ @     u v w x             ",
"                                t y z A B n C D E F G H         I J K L M N O P Q R S           ",
"                        T U V W X Y Z `  ...+.E @.#.$.%.  &.*.=.-.;.>.,.'.).!.~.{.].^.          ",
"                      /.(._.:.<.[.}.|.1.2.3.4.5.6.7.8.9.0.a.b.c.d.e.f.g.h.i.j.k.l.m.n.          ",
"                    o.p.q.r.s.t.u.v.w.x.y.z.A.B.C.D.E.  F.G.c.H.I.J.K.L.M.N.{.O.P.Q.R.          ",
"                    S.T.U.V.W.X.Y.Z.`.   +.+++@+#+$+  %+&+*+=+-+;+>+,+'+)+!+~+l.{+]+^+          ",
"                    /+(+_+:+<+[+}+|+1+        2+3+4+  5+6+7+8+9+0+a+b+c+d+e+f+g+h+i+            ",
"                    j+k+l+m+n+o+p+q+r+s+t+u+v+w+x+y+  z+A+B+C+D+E+F+'+c+G+H+I+J+                ",
"                    K+L+M+N+O+P+Q+R+S+T+U+V+W+X+Y+Z+    `+ @.@+@@@'+'+#@$@%@&@*@=@              ",
"              -@;@>@,@'@)@P+P+P+!@~@{@]@^@/@(@_@:@<@    [@}@|@1@2@2@3@4@5@6@7@8@9@0@            ",
"            a@b@c@d@e@f@g@h@i@j@k@  l@m@n@o@p@q@Y+r@    s@t@u@v@w@x@y@z@A@B@C@D@E@F@            ",
"            G@H@I@J@K@L@M@N@O@P@Q@  R@S@T@U@V@W@X@Y@          Z@`@ #  .#+#@###$#%#&#            ",
"            *#=#-#;#>#,#'#)#!#~#{#    ]#^#/#(#_#:#<#          [#Y+}#    |#1#2#3#4#5#            ",
"            6#7#8#9#0#a#b#  c#x+d#      e#f#g#h#i#j#k#        l#m#n#o#  p#q#r#s#t#              ",
"              u#v#w#x#y#  z#A#x+B#      C#D#A#E#F#X@G#      H#I#:#J#K#  L#A#M#N#                ",
"                O#P#Q#    R#S#T#U#      V#W#X#Y#Z#f#`#       $:#.$+$    @$#$x+$$                ",
"                  %$&$*$  =$n#-$;$*$>$,$'$)$!$~$)${$]$^$/$($_$:#:$<$    [$}$|$e#                ",
"                1$2$:#3$4$5$6$7$)$8$9$9$0$a$b$)$c$d$e$f$g$h$i$j$k$l$m$n$o$X@p$q$                ",
"      r$        s$|$t$u$v$w$x$)$y$z$A$B$C$D$E$F$G$H$I$J$K$L$M$)$N$O$h$O$P$Q$R$+$                ",
"    @ @ . . s@S$T$U$a$f$V$W$X$Y$Z$`$L L  %D$.%+%@%#%`$K L $%!#%%&%*%=%-%]$;%>%,%'%)%            ",
"  . L @ L !%~%w${%]%D$^%L L /%A#(%_%@ . :%<%[%:#}%|%L L L 1%X#2%3%L L @ $%4%Q$5%g$6%7%@ t       ",
". L `$L 8%9%{%{%0%a%A#A#$%`$L b%c%d%        e%f%g%h%i%j%k%l%m%n%o%L L L p%D$q%r%s%t%u%v%K `$    ",
"L @ L w%x%y%z%L$3%A%x+B%Q@  t C%D%E%F%G%H%I%J%K%L%M%L%N%O%L%P%Q%R%S%T%3%U%V%U%L W%X%Y%x%Z%L K . ",
"@ @ K `%M% &.&L @ +&@&#&$&%&&&L%L%*&M%=&J%-&;&>&,&'&)&!&~&{&]&y%M%^&M%/&F$(&K @ L L _&^&:&#%L L ",
"@ L <&[&}&$%L H#|&1&K%M%N%2&3&4&5&6&7&8&9&0&a&b&b&b&b&0&c&d&e&f&g&h&i&j&*&N%k&l&m&K n&o&^&p&U%L ",
"K q&r&^&s&t&u&v&^&L%w&x&y&z&A&B&a&b&b&C&C&C&D&E&F&G&H&I&J&K&L&M&D&C&D&N&O&/&P&Q&y%R&`%S&v&T&U&L ",
"W%V&W&X&#&Y&M%Z&`& *.*M&+*b&@*#*$*%*V%w%&***=*-*;*>*,*'*)*!*~*{*]*^*/*(*_*b&C&:*<*[*}*|*1*^&2*|%",
"3*4*^&M%^&5*6*a&7*D&8*9*0*a*j%V%W%b*L L L L L L L L L L L L L L L W%L c*d*e*f*g*D&h*i*j*[*{&k*_%",
"l*m*^&x%n*o*p*q*r*s*t*u*v*v*W%W%W%L L L W%W%W%w*K `$`$L L L L L L L L L L W%W%3%x*y*z*L&A*B*C*L ",
"L D*E*F*W%U%3%_%L L L L L L L L `$`$L L L . t       r$. . @ t     t t t . @ G*L L L H*I*J*U%L L ",
"L L r$L L L L L L `$K . r$. . .                                               . @ `$L L U%U%L L ",
"K @ @ K*t     t                                                                     t K W%L W%K ",
"  t @                                                                                   L*M*K . ",
"                                                                                                ",
"                                                                                                ",
"                                                                                                ",
"                                                                                                ",
"                                                                                                "};
