/* XPM */
static char * proxyPaintTool_voxel_xpm[] = {
"24 24 261 2",
"  	c #FEFEFE",
". 	c #FFFFFF",
"+ 	c #FDFDFD",
"@ 	c #F6F6F6",
"# 	c #EDEDED",
"$ 	c #FCFCFC",
"% 	c #A4A4A4",
"& 	c #3B3B3B",
"* 	c #2D2D2D",
"= 	c #8A8A8A",
"- 	c #7F7F7E",
"; 	c #000000",
"> 	c #353434",
", 	c #9D9D9D",
"' 	c #CCCCCC",
") 	c #3C3C3C",
"! 	c #151601",
"~ 	c #323402",
"{ 	c #262626",
"] 	c #A2A2A2",
"^ 	c #CFCFCF",
"/ 	c #030303",
"( 	c #4E5102",
"_ 	c #9A9F04",
": 	c #B2B805",
"< 	c #838703",
"[ 	c #242600",
"} 	c #C5C5C5",
"| 	c #939393",
"1 	c #000001",
"2 	c #2D3600",
"3 	c #919703",
"4 	c #ABB005",
"5 	c #616503",
"6 	c #0E1100",
"7 	c #020504",
"8 	c #B2B2B2",
"9 	c #979B95",
"0 	c #000003",
"a 	c #681293",
"b 	c #7516A7",
"c 	c #0E0020",
"d 	c #242401",
"e 	c #2B040F",
"f 	c #2E0612",
"g 	c #B4B3B3",
"h 	c #969B94",
"i 	c #020007",
"j 	c #6B1298",
"k 	c #941DD0",
"l 	c #8319BA",
"m 	c #170226",
"n 	c #140008",
"o 	c #5F0721",
"p 	c #A50C3A",
"q 	c #4D091E",
"r 	c #BDBCBC",
"s 	c #FBFBFB",
"t 	c #A8A9A8",
"u 	c #4A0C6A",
"v 	c #911CCC",
"w 	c #8B1BC5",
"x 	c #3B0B55",
"y 	c #52061D",
"z 	c #B50D40",
"A 	c #B00C3E",
"B 	c #48091C",
"C 	c #CDCCCC",
"D 	c #767776",
"E 	c #380A50",
"F 	c #9A1DDA",
"G 	c #8B1CC3",
"H 	c #300B3D",
"I 	c #53061D",
"J 	c #C10E44",
"K 	c #A10B39",
"L 	c #300713",
"M 	c #848685",
"N 	c #E1E1E1",
"O 	c #3E3C3E",
"P 	c #0D0012",
"Q 	c #3E0A57",
"R 	c #7F1F98",
"S 	c #3A113E",
"T 	c #620722",
"U 	c #750829",
"V 	c #26000B",
"W 	c #5B5657",
"X 	c #D1D0D0",
"Y 	c #979797",
"Z 	c #080407",
"` 	c #0E5314",
" .	c #08890C",
"..	c #002B00",
"+.	c #170213",
"@.	c #190819",
"#.	c #100206",
"$.	c #0D352F",
"%.	c #108B78",
"&.	c #118D7A",
"*.	c #A4A3A3",
"=.	c #B6B5B6",
"-.	c #060006",
";.	c #000C00",
">.	c #0A980F",
",.	c #00EA00",
"'.	c #00FF00",
").	c #00DD00",
"!.	c #0B9212",
"~.	c #001204",
"{.	c #011A16",
"].	c #138B79",
"^.	c #1CE1C2",
"/.	c #1CE8C8",
"(.	c #1EF6D4",
"_.	c #1CEBCB",
":.	c #003E35",
"<.	c #333333",
"[.	c #EBEBEB",
"}.	c #242324",
"|.	c #0A340F",
"1.	c #0FE218",
"2.	c #14FE20",
"3.	c #23E337",
"4.	c #16FF22",
"5.	c #0EBD17",
"6.	c #09200E",
"7.	c #06372C",
"8.	c #15B498",
"9.	c #1DEDCD",
"0.	c #1DF3D2",
"a.	c #18C5AA",
"b.	c #0C6657",
"c.	c #020B07",
"d.	c #0A0A0A",
"e.	c #373737",
"f.	c #000800",
"g.	c #1E7D2F",
"h.	c #3BDB5E",
"i.	c #1D742E",
"j.	c #000100",
"k.	c #000200",
"l.	c #074232",
"m.	c #0C5F52",
"n.	c #021511",
"o.	c #053948",
"p.	c #003240",
"q.	c #110E0D",
"r.	c #C9C8C8",
"s.	c #EDEEEE",
"t.	c #332B2E",
"u.	c #004228",
"v.	c #0F6A46",
"w.	c #000401",
"x.	c #093A07",
"y.	c #147A0F",
"z.	c #041D00",
"A.	c #000016",
"B.	c #0E0D8C",
"C.	c #0B016E",
"D.	c #010014",
"E.	c #085467",
"F.	c #0D85A3",
"G.	c #004254",
"H.	c #110D0C",
"I.	c #CAC9C9",
"J.	c #33292D",
"K.	c #004128",
"L.	c #1CCC88",
"M.	c #148E5E",
"N.	c #010C08",
"O.	c #10670C",
"P.	c #2AFF20",
"Q.	c #1EBA17",
"R.	c #010E00",
"S.	c #020023",
"T.	c #110DA0",
"U.	c #100C99",
"V.	c #0D0B7F",
"W.	c #000006",
"X.	c #021C1F",
"Y.	c #0C7A95",
"Z.	c #0C7D99",
"`.	c #003D4D",
" +	c #003F27",
".+	c #1CC985",
"++	c #1EDB94",
"@+	c #063122",
"#+	c #0C4D09",
"$+	c #26EA1C",
"%+	c #27F01D",
"&+	c #199C13",
"*+	c #02011B",
"=+	c #0F1492",
"-+	c #0F0A93",
";+	c #0E0D84",
">+	c #020016",
",+	c #032B2F",
"'+	c #0C7792",
")+	c #0D829F",
"!+	c #004051",
"~+	c #0E0A09",
"{+	c #C4C3C3",
"]+	c #211D1F",
"^+	c #000C04",
"/+	c #179066",
"(+	c #1FD972",
"_+	c #083613",
":+	c #13760E",
"<+	c #29FC1E",
"[+	c #188F13",
"}+	c #0A0953",
"|+	c #100DA3",
"1+	c #0E0C86",
"2+	c #03001A",
"3+	c #032D31",
"4+	c #0C7C98",
"5+	c #0B5D72",
"6+	c #000C13",
"7+	c #0E0B0A",
"8+	c #DDDDDD",
"9+	c #F7F7F7",
"0+	c #909191",
"a+	c #0F6916",
"b+	c #072B03",
"c+	c #26E91D",
"d+	c #0D5809",
"e+	c #080309",
"f+	c #070802",
"g+	c #090769",
"h+	c #110E9F",
"i+	c #04002A",
"j+	c #043538",
"k+	c #075365",
"l+	c #868787",
"m+	c #D7D8D8",
"n+	c #474747",
"o+	c #094307",
"p+	c #002F00",
"q+	c #292529",
"r+	c #CACBCA",
"s+	c #DEDEDF",
"t+	c #44443E",
"u+	c #00001C",
"v+	c #010017",
"w+	c #252221",
"x+	c #C6C7C8",
"y+	c #9D9B9D",
"z+	c #302E30",
"A+	c #110712",
"B+	c #908F90",
"C+	c #B3B3AF",
"D+	c #18180F",
"E+	c #807C7B",
"F+	c #F4F4F4",
"G+	c #8B8B8B",
"H+	c #6F6E6F",
"I+	c #E7E7E7",
"J+	c #E3E3E3",
"K+	c #828282",
"L+	c #B7B7B7",
"  .     .   .   + . @ # . . $   .     .     .   ",
". . . . .   . . . % & * = . . . .     . . . . . ",
"  .       . . . - ; ; ; ; > , . . . +       .   ",
"  .   . . . ' ) ; ; ! ~ ; ; ; { ] $ . .     .   ",
". . . + . ^ / ; ; ( _ : < [ ; ; ; } . . . . . . ",
"  .   $ . | ; 1 ; 2 3 4 5 6 ; 7 ; 8 . .     .   ",
"  .   $ . 9 0 a b c ; d ; ; e f ; g . .     .   ",
". . . $ . h i j k l m ; n o p q ; r . . . . . . ",
"  .   s . t ; u v w x ; y z A B ; C .   .   .   ",
"  . s . . D ; E F G H ; I J K L ; M . . +   .   ",
". . . N O ; ; P Q R S ; T U V ; ; ; W X . .   . ",
"  . Y Z ; `  ...; +.@.; #.; ; $.%.&.; / *.. . + ",
". =.-.;.>.,.'.).!.~.; ; ; {.].^./.(._.:.; <.. . ",
"[.}.; |.1.2.3.4.5.6.; ; ; 7.8.9.0.a.b.c.; d.} . ",
"# e.; ; f.g.h.i.; ; ; j.j.; k.l.m.n.; o.p.q.r.. ",
"s.t.u.v.; ; w.; ; x.y.z.A.B.C.D.; ; E.F.G.H.I.. ",
"s.J.K.L.M.N.; ; O.P.Q.R.S.T.U.V.W.X.Y.Z.`.q.I.. ",
"s.J. +.+++@+; #+$+%+&+; *+=+-+;+>+,+'+)+!+~+{+. ",
"[.]+^+/+(+_+; :+<+$+[+j.; }+|+1+2+3+4+5+6+7+8+. ",
"9+0+; ; a+b+; y.c+d+; e+f+; g+h+i+j+k+; ; l+. s ",
". . m+n+; ; ; o+p+; q+r+s+t+; u+v+k.; w+x+.   . ",
"  . . . y+z+; ; A+B+. . . . C+D+; ; E+F+. .   . ",
".     . . + G+H+I+. . .   . . J+K+L+. . .   . . ",
"  . . . $ . . . . s .     . $ . . . s   .   .   "};
