/* XPM */
static char * proxyPaintTool_point_xpm[] = {
"24 24 328 2",
"  	c #FFFFFF",
". 	c #FEFEFE",
"+ 	c #FDFCFC",
"@ 	c #FFFEFE",
"# 	c #FEF9FB",
"$ 	c #FEFDFF",
"% 	c #FEFCFC",
"& 	c #F9F0F1",
"* 	c #F79B95",
"= 	c #F6695F",
"- 	c #F6756C",
"; 	c #FBC7C2",
"> 	c #FDFDFD",
", 	c #FDFCFD",
"' 	c #DBCBD2",
") 	c #CB7482",
"! 	c #EA2D43",
"~ 	c #F31A2C",
"{ 	c #EE171F",
"] 	c #F24A4C",
"^ 	c #FAB9B8",
"/ 	c #FDFBFC",
"( 	c #BE9DAD",
"_ 	c #8B2033",
": 	c #C00317",
"< 	c #F4559A",
"[ 	c #F686E8",
"} 	c #F47BE5",
"| 	c #F1418A",
"1 	c #F12D36",
"2 	c #FAB6AF",
"3 	c #FCFAFB",
"4 	c #E9DADE",
"5 	c #7B2543",
"6 	c #7F0000",
"7 	c #E30000",
"8 	c #FB3E60",
"9 	c #EF9BCF",
"0 	c #F1C9FF",
"a 	c #F18DE4",
"b 	c #EE1021",
"c 	c #F55B53",
"d 	c #FEF8F7",
"e 	c #BF96A4",
"f 	c #6D0021",
"g 	c #A00002",
"h 	c #F10000",
"i 	c #F70000",
"j 	c #EA3E23",
"k 	c #E5B58D",
"l 	c #E8B4A4",
"m 	c #EC1111",
"n 	c #F21B1C",
"o 	c #FDE5E5",
"p 	c #FCF7F8",
"q 	c #AE7B8D",
"r 	c #720524",
"s 	c #AB0008",
"t 	c #ED0000",
"u 	c #F40000",
"v 	c #EE0000",
"w 	c #E93710",
"x 	c #E85629",
"y 	c #EC0000",
"z 	c #F2191D",
"A 	c #FDE4E5",
"B 	c #FFFCFC",
"C 	c #B88A9A",
"D 	c #700525",
"E 	c #A50006",
"F 	c #F30000",
"G 	c #F60000",
"H 	c #ED0300",
"I 	c #F01C1D",
"J 	c #FDE3E3",
"K 	c #FEFDFD",
"L 	c #DAC0C8",
"M 	c #761736",
"N 	c #860009",
"O 	c #DF0408",
"P 	c #FF0300",
"Q 	c #FA0200",
"R 	c #F50101",
"S 	c #F13131",
"T 	c #FDEBEB",
"U 	c #FCFBFB",
"V 	c #FCF9FA",
"W 	c #AD7385",
"X 	c #66001A",
"Y 	c #860005",
"Z 	c #CA0001",
"` 	c #E40000",
" .	c #E80000",
"..	c #EF2A2A",
"+.	c #FAACAC",
"@.	c #FEFFFE",
"#.	c #FBFEFB",
"$.	c #F7FBF8",
"%.	c #EFE8E9",
"&.	c #99566D",
"*.	c #6D0D2D",
"=.	c #780A28",
"-.	c #920E25",
";.	c #AD000B",
">.	c #C0212D",
",.	c #F0C6C8",
"'.	c #FCFFFF",
").	c #FAF9FB",
"!.	c #FCFCFD",
"~.	c #FBFBFD",
"{.	c #FAFAFD",
"].	c #FDFDFE",
"^.	c #FBFDFB",
"/.	c #FDFEFD",
"(.	c #FFFDFF",
"_.	c #F4F0F0",
":.	c #D1B8C1",
"<.	c #B28FA1",
"[.	c #AE8598",
"}.	c #B67F90",
"|.	c #C8A2AF",
"1.	c #EFF9FE",
"2.	c #E6FFF3",
"3.	c #CFFFE2",
"4.	c #DCFDE7",
"5.	c #FEFFFF",
"6.	c #FAFCFD",
"7.	c #F9FFFF",
"8.	c #F5FEFF",
"9.	c #F3F4F9",
"0.	c #F9FAFC",
"a.	c #D9D4EB",
"b.	c #C2B3DC",
"c.	c #CBC0E2",
"d.	c #EDEEF7",
"e.	c #F7F9F8",
"f.	c #CAF8D1",
"g.	c #84F28B",
"h.	c #48ED58",
"i.	c #4AF164",
"j.	c #85F89D",
"k.	c #DCFDE4",
"l.	c #ECEBF5",
"m.	c #7A77C0",
"n.	c #23289A",
"o.	c #192C9C",
"p.	c #20289A",
"q.	c #554AAB",
"r.	c #BFBBDF",
"s.	c #FAF2F5",
"t.	c #6DCF85",
"u.	c #25E03D",
"v.	c #9ED653",
"w.	c #CEC958",
"x.	c #8ED549",
"y.	c #29E536",
"z.	c #48F66E",
"A.	c #E8FFEF",
"B.	c #FFFEFF",
"C.	c #E3E4F2",
"D.	c #7271BC",
"E.	c #070086",
"F.	c #001992",
"G.	c #029CC9",
"H.	c #0593C5",
"I.	c #002397",
"J.	c #292097",
"K.	c #ADA8D6",
"L.	c #FFF7FF",
"M.	c #A5B7AB",
"N.	c #00B323",
"O.	c #00E213",
"P.	c #9DD15D",
"Q.	c #FFBF7B",
"R.	c #FFC176",
"S.	c #AECD51",
"T.	c #30E237",
"U.	c #7AEA97",
"V.	c #F9F8FC",
"W.	c #9A99D1",
"X.	c #0F0D90",
"Y.	c #00007F",
"Z.	c #0F2598",
"`.	c #1A9FCB",
" +	c #20EBEB",
".+	c #0F95C7",
"++	c #000087",
"@+	c #5C4BAA",
"#+	c #F5F5F9",
"$+	c #EADFEA",
"%+	c #416755",
"&+	c #00A812",
"*+	c #00F529",
"=+	c #3CE14B",
"-+	c #83CE64",
";+	c #BBC66F",
">+	c #CDD369",
",+	c #48D235",
"'+	c #1EA842",
")+	c #BACAC6",
"!+	c #8A89C6",
"~+	c #09068B",
"{+	c #0F068A",
"]+	c #101C94",
"^+	c #156FB6",
"/+	c #1B78BA",
"(+	c #00048D",
"_+	c #30229F",
":+	c #EAE9F7",
"<+	c #E0D5E2",
"[+	c #244E3B",
"}+	c #00AE15",
"|+	c #00FC2D",
"1+	c #00F02D",
"2+	c #08E936",
"3+	c #18E33C",
"4+	c #1FF33A",
"5+	c #04DD25",
"6+	c #0F882F",
"7+	c #9EA6A8",
"8+	c #FFF8FF",
"9+	c #F9FAF9",
"0+	c #8389A8",
"a+	c #0D1365",
"b+	c #010276",
"c+	c #0E078F",
"d+	c #0E008A",
"e+	c #0E088C",
"f+	c #141395",
"g+	c #000082",
"h+	c #2C2C90",
"i+	c #DDDEE9",
"j+	c #E1DAE3",
"k+	c #2A4740",
"l+	c #009217",
"m+	c #00F729",
"n+	c #00EC27",
"o+	c #00E927",
"p+	c #00FF2B",
"q+	c #00D91F",
"r+	c #156731",
"s+	c #A8A2AE",
"t+	c #F9FAFB",
"u+	c #7E8990",
"v+	c #02152A",
"w+	c #000746",
"x+	c #0F0E89",
"y+	c #0F0997",
"z+	c #0E0190",
"A+	c #120789",
"B+	c #000251",
"C+	c #20314A",
"D+	c #BCC2C3",
"E+	c #E3E7E6",
"F+	c #313844",
"G+	c #003710",
"H+	c #01D82C",
"I+	c #00FF2F",
"J+	c #00FF2C",
"K+	c #00FF2D",
"L+	c #03FF31",
"M+	c #009B1E",
"N+	c #324C47",
"O+	c #D3C6D6",
"P+	c #ACB3B7",
"Q+	c #10242C",
"R+	c #00071C",
"S+	c #0C1558",
"T+	c #101179",
"U+	c #101276",
"V+	c #121B5D",
"W+	c #00081F",
"X+	c #203337",
"Y+	c #C8CDCE",
"Z+	c #F3F7F4",
"`+	c #767B83",
" @	c #112128",
".@	c #00661D",
"+@	c #03C62C",
"@@	c #08E132",
"#@	c #07DF31",
"$@	c #00A11F",
"%@	c #114A2C",
"&@	c #908C9A",
"*@	c #FBFBFB",
"=@	c #F1F2F3",
"-@	c #606C78",
";@	c #000A19",
">@	c #00081A",
",@	c #00112B",
"'@	c #000719",
")@	c #00111F",
"!@	c #747F88",
"~@	c #FBFBFC",
"{@	c #F2F3F3",
"]@	c #8C9297",
"^@	c #1B2C31",
"/@	c #001E14",
"(@	c #002A17",
"_@	c #002C19",
":@	c #14322C",
"<@	c #757882",
"[@	c #F1EFF2",
"}@	c #CFD3D7",
"|@	c #3F4E5B",
"1@	c #001320",
"2@	c #051A22",
"3@	c #0B1F27",
"4@	c #0F222F",
"5@	c #5E6A76",
"6@	c #EDEEF0",
"7@	c #F9F9F9",
"8@	c #9C9CA5",
"9@	c #454155",
"0@	c #2A243D",
"a@	c #3E374E",
"b@	c #928B9B",
"c@	c #F3F1F4",
"d@	c #CBCFD3",
"e@	c #889199",
"f@	c #7A858E",
"g@	c #879099",
"h@	c #B6BBC1",
"i@	c #F4F5F6",
"j@	c #EDEFEF",
"k@	c #E3E6E6",
"l@	c #EAEBEC",
"m@	c #FCFDFD",
"        .   . + @     # $     % .               ",
"          . .     & * = - ;     . .             ",
"      .   >   , ' ) ! ~ { ] ^                   ",
"        /     ( _ : < [ } | 1 2                 ",
"      . 3   4 5 6 7 8 9 0 a b c d               ",
"      ,     e f g h i j k l m n o               ",
"      /   p q r s t u v w x y z A               ",
"      +   B C D E F G y t H t I J               ",
"      . K   L M N O P Q R F v S T               ",
"        U   V W X Y Z `  . ...+.    . . .       ",
". .   @.#.$.  %.&.*.=.-.;.>.,.  '.).!.~.{.].    ",
"  @ ^./.  (.    _.:.<.[.}.|.1.            @ ~.. ",
". /.    2.3.4.      5.6.7.8.9.  0.a.b.c.d.    5.",
"    e.f.g.h.i.j.k.            l.m.n.o.p.q.r.    ",
"  s.t.u.v.w.x.y.z.A.  B.].  C.D.E.F.G.H.I.J.K.  ",
"L.M.N.O.P.Q.R.S.T.U.V.B.    W.X.Y.Z.`. +.+++@+#+",
"$+%+&+*+=+-+;+>+,+'+)+(.  !.!+~+++{+]+^+/+(+_+:+",
"<+[+}+|+1+2+3+4+5+6+7+8+  9+0+a+b+c+d+e+f+g+h+i+",
"j+k+l+|+m+n+o+p+q+r+s+    t+u+v+w+x+y+z+A+B+C+D+",
"E+F+G+H+I+J+K+L+M+N+O+      P+Q+R+S+T+U+V+W+X+Y+",
"Z+`+ @.@+@@@#@$@%@&@(.  *@  =@-@;@>@,@,@'@)@!@~@",
"  {@]@^@/@(@_@:@<@[@    >     }@|@1@2@3@4@5@6@  ",
"    7@8@9@0@a@b@c@    .   !.    d@e@f@g@h@i@    ",
".       j@k@l@      > .   . .       m@        m@"};
