/* XPM */
static char * up_xpm[] = {
"32 32 402 2",
"  	c None",
". 	c #FEFEFE",
"+ 	c #FDFDFD",
"@ 	c #FCFCFC",
"# 	c #FFFFFF",
"$ 	c #C2C2C2",
"% 	c #505050",
"& 	c #4E4E4E",
"* 	c #BDBDBD",
"= 	c #E4E4E4",
"- 	c #B6B6B6",
"; 	c #464646",
"> 	c #1D1D1D",
", 	c #1C1C1C",
"' 	c #4F4F4F",
") 	c #C3C3C3",
"! 	c #F8F8F8",
"~ 	c #CCCCCD",
"{ 	c #BDBEBE",
"] 	c #A9A9A9",
"^ 	c #1F1F1F",
"/ 	c #0A0A0A",
"( 	c #1E1E1E",
"_ 	c #202020",
": 	c #141414",
"< 	c #303030",
"[ 	c #F6F6F6",
"} 	c #CACCCF",
"| 	c #B7BABD",
"1 	c #B4B5B5",
"2 	c #A7A7A7",
"3 	c #282828",
"4 	c #090909",
"5 	c #1A1A1A",
"6 	c #232323",
"7 	c #151515",
"8 	c #7B7B7B",
"9 	c #E3E3E3",
"0 	c #D0D2D6",
"a 	c #BABDC2",
"b 	c #B4B5B6",
"c 	c #FBFBFB",
"d 	c #A8A8A8",
"e 	c #272727",
"f 	c #2F2F2F",
"g 	c #4B4B4B",
"h 	c #4A4A4A",
"i 	c #373737",
"j 	c #050505",
"k 	c #989898",
"l 	c #F9F9F9",
"m 	c #D4D6D9",
"n 	c #BCBFC3",
"o 	c #B6B8B9",
"p 	c #F5F5F5",
"q 	c #7F7F7F",
"r 	c #3D3D3D",
"s 	c #ABABAB",
"t 	c #868686",
"u 	c #191919",
"v 	c #171717",
"w 	c #A1A1A1",
"x 	c #D6D6D6",
"y 	c #777777",
"z 	c #595959",
"A 	c #AAAAAA",
"B 	c #FAFAFA",
"C 	c #D7D9DC",
"D 	c #B5B7B9",
"E 	c #D4D4D4",
"F 	c #AFAFAF",
"G 	c #DFDFDF",
"H 	c #7D7D7D",
"I 	c #111111",
"J 	c #9C9C9C",
"K 	c #E7E7E7",
"L 	c #EDEDED",
"M 	c #FEFEFD",
"N 	c #DADCDF",
"O 	c #BCBFC4",
"P 	c #B0B2B5",
"Q 	c #7C7C7C",
"R 	c #080909",
"S 	c #0A0B0C",
"T 	c #949495",
"U 	c #DCDEE1",
"V 	c #BDC0C5",
"W 	c #B0B1B4",
"X 	c #FCFBFB",
"Y 	c #C1C1BF",
"Z 	c #585752",
"` 	c #696761",
" .	c #CECCC9",
"..	c #DBDEE0",
"+.	c #BEC1C5",
"@.	c #B3B4B7",
"#.	c #FBFCFC",
"$.	c #FDFDFC",
"%.	c #FFFFFE",
"&.	c #F6F9FE",
"*.	c #C1CEEA",
"=.	c #B3C4ED",
"-.	c #D6E2FC",
";.	c #F8FAFC",
">.	c #FFFFFC",
",.	c #FAFAFB",
"'.	c #D9DADD",
").	c #B7B9BC",
"!.	c #FEFEFC",
"~.	c #FFFFFD",
"{.	c #E0E7F8",
"].	c #86A6ED",
"^.	c #5D89EB",
"/.	c #5180E9",
"(.	c #5984E7",
"_.	c #95B0EF",
":.	c #F3F6FB",
"<.	c #FDFCFC",
"[.	c #D8D9DC",
"}.	c #BCBEC2",
"|.	c #E6ECF8",
"1.	c #7297EA",
"2.	c #4073E4",
"3.	c #4676E3",
"4.	c #4B7AE4",
"5.	c #4576E4",
"6.	c #4273E4",
"7.	c #82A3EE",
"8.	c #F5F7FB",
"9.	c #FBFBFC",
"0.	c #F0F3FA",
"a.	c #81A2EC",
"b.	c #3B6EE3",
"c.	c #4474E4",
"d.	c #4A77E4",
"e.	c #4977E4",
"f.	c #4978E5",
"g.	c #3F6FE4",
"h.	c #3868E5",
"i.	c #82A0EE",
"j.	c #F1F4FB",
"k.	c #FAFBFC",
"l.	c #FFFEFE",
"m.	c #D7D8DB",
"n.	c #BEC0C4",
"o.	c #FEFFFF",
"p.	c #FEFDFD",
"q.	c #92AFEE",
"r.	c #4171E5",
"s.	c #3B6BE5",
"t.	c #406DE4",
"u.	c #3F6CE3",
"v.	c #3F6CE5",
"w.	c #3F6DE5",
"x.	c #406EE5",
"y.	c #3E6CE5",
"z.	c #3465E5",
"A.	c #7999ED",
"B.	c #EFF2FA",
"C.	c #D8DADD",
"D.	c #FEFDFC",
"E.	c #E9EEF8",
"F.	c #8AAAED",
"G.	c #4979E5",
"H.	c #406DE3",
"I.	c #406BE4",
"J.	c #3F6BE5",
"K.	c #416EE5",
"L.	c #3D6BE5",
"M.	c #3868E4",
"N.	c #7294EB",
"O.	c #D3DDF7",
"P.	c #BEC1C6",
"Q.	c #BDC0C4",
"R.	c #D8E2F7",
"S.	c #6E94E9",
"T.	c #3E70E3",
"U.	c #426FE4",
"V.	c #426DE4",
"W.	c #406BE3",
"X.	c #406CE4",
"Y.	c #3F6DE4",
"Z.	c #416FE5",
"`.	c #3E6DE5",
" +	c #3666E4",
".+	c #4C77E6",
"++	c #A8BDF1",
"@+	c #D8D9DB",
"#+	c #BCC0C5",
"$+	c #BFC2C6",
"%+	c #FFFEFC",
"&+	c #F7F9FB",
"*+	c #AFC3F1",
"=+	c #4E7AE7",
"-+	c #3465E3",
";+	c #3E6BE4",
">+	c #406BE5",
",+	c #3F6BE4",
"'+	c #416BE3",
")+	c #406DE5",
"!+	c #3F6EE4",
"~+	c #406EE4",
"{+	c #3E6CE4",
"]+	c #3263E3",
"^+	c #3766E3",
"/+	c #88A4EF",
"(+	c #E1E7F3",
"_+	c #D4D4D0",
":+	c #CFCFCF",
"<+	c #CFDBF5",
"[+	c #84A4EC",
"}+	c #4473E5",
"|+	c #3D6BE4",
"1+	c #3F6CE4",
"2+	c #3F6EE5",
"3+	c #406DE6",
"4+	c #3F6CE6",
"5+	c #3866E4",
"6+	c #3565E5",
"7+	c #5F80D3",
"8+	c #8A94AD",
"9+	c #A3AABD",
"0+	c #C0CAE3",
"a+	c #B8C9EF",
"b+	c #89A6EC",
"c+	c #507DE6",
"d+	c #4171E4",
"e+	c #4170E5",
"f+	c #406CE5",
"g+	c #406CE6",
"h+	c #406CE2",
"i+	c #416ADB",
"j+	c #4169D5",
"k+	c #4169D7",
"l+	c #416CE2",
"m+	c #365AB8",
"n+	c #374C84",
"o+	c #4660A6",
"p+	c #4B71D5",
"q+	c #5B82DD",
"r+	c #3C6CE3",
"s+	c #4270E4",
"t+	c #4773E4",
"u+	c #3F6CE7",
"v+	c #416BDE",
"w+	c #4269D3",
"x+	c #436AD3",
"y+	c #436BD9",
"z+	c #416CE0",
"A+	c #416BDC",
"B+	c #4368CF",
"C+	c #4366C5",
"D+	c #4364C0",
"E+	c #4266C7",
"F+	c #3F5FB3",
"G+	c #3C5082",
"H+	c #364F95",
"I+	c #3E60BC",
"J+	c #6286DC",
"K+	c #426FE5",
"L+	c #406BE1",
"M+	c #4269D6",
"N+	c #4368CE",
"O+	c #4468C8",
"P+	c #4567C2",
"Q+	c #4568C3",
"R+	c #4568C5",
"S+	c #4468C7",
"T+	c #4368CA",
"U+	c #4369CF",
"V+	c #416AD8",
"W+	c #4169D9",
"X+	c #416ADD",
"Y+	c #416CE5",
"Z+	c #3F6ADE",
"`+	c #3E5BA2",
" @	c #3D4F80",
".@	c #3A5195",
"+@	c #4C69B2",
"@@	c #6587DB",
"#@	c #416EE4",
"$@	c #436BD8",
"%@	c #4467C7",
"&@	c #4467C4",
"*@	c #4467C1",
"=@	c #4467C2",
"-@	c #4568C4",
";@	c #4569C5",
">@	c #4466C0",
",@	c #4466C2",
"'@	c #4467C8",
")@	c #4269D4",
"!@	c #406BE0",
"~@	c #3E6DE8",
"{@	c #3E6ADE",
"]@	c #3F5A9C",
"^@	c #3E4F7E",
"/@	c #384E91",
"(@	c #415DA6",
"_@	c #6386DB",
":@	c #3E6DE6",
"<@	c #416DE3",
"[@	c #4469CF",
"}@	c #4567C1",
"|@	c #4468C3",
"1@	c #4467C3",
"2@	c #4468C4",
"3@	c #4366C8",
"4@	c #4268D3",
"5@	c #426ADC",
"6@	c #416BE1",
"7@	c #406CE3",
"8@	c #3F6BE1",
"9@	c #3D6CE7",
"0@	c #3E69DA",
"a@	c #405893",
"b@	c #3D507F",
"c@	c #374E91",
"d@	c #415DA7",
"e@	c #6386D9",
"f@	c #3D6CE8",
"g@	c #416BE2",
"h@	c #4568CB",
"i@	c #4366C2",
"j@	c #4366C1",
"k@	c #4366C6",
"l@	c #416CE3",
"m@	c #416CE4",
"n@	c #416BE0",
"o@	c #3F6DEA",
"p@	c #3F65CA",
"q@	c #405588",
"r@	c #3C4D7F",
"s@	c #374F95",
"t@	c #4A67B0",
"u@	c #6989D3",
"v@	c #4A6FD4",
"w@	c #3E68DD",
"x@	c #3E68D7",
"y@	c #4265C4",
"z@	c #4265C0",
"A@	c #4365C2",
"B@	c #4268D0",
"C@	c #4269D8",
"D@	c #426AD8",
"E@	c #426AD6",
"F@	c #4268D2",
"G@	c #4367CA",
"H@	c #4266CA",
"I@	c #3D63CD",
"J@	c #385DC5",
"K@	c #3755A4",
"L@	c #3B4E82",
"M@	c #344883",
"N@	c #38519A",
"O@	c #536FB7",
"P@	c #7491D4",
"Q@	c #6886CF",
"R@	c #5B7CCF",
"S@	c #5274CB",
"T@	c #4768C0",
"U@	c #3F5FB9",
"V@	c #3E5EB6",
"W@	c #3D5CB1",
"X@	c #3957AC",
"Y@	c #3856AA",
"Z@	c #3855A9",
"`@	c #3754A9",
" #	c #3654A8",
".#	c #3655A9",
"+#	c #3653A8",
"@#	c #3552A5",
"##	c #3551A2",
"$#	c #324F9D",
"%#	c #2E4993",
"&#	c #2D468F",
"*#	c #2F488F",
"=#	c #334B90",
"-#	c #364F97",
";#	c #405BA4",
">#	c #7896D7",
",#	c #7997D7",
"'#	c #7593D5",
")#	c #627FC7",
"!#	c #5570B6",
"~#	c #516CB2",
"{#	c #4C68AF",
"]#	c #4661A8",
"^#	c #3F58A0",
"/#	c #3F59A0",
"(#	c #415BA3",
"_#	c #425DA4",
":#	c #445EA4",
"<#	c #4661A6",
"[#	c #4964A9",
"}#	c #4A65AB",
"|#	c #4863A9",
"1#	c #4762A8",
"2#	c #4761A8",
"3#	c #4A65AD",
"4#	c #4E6AB2",
"5#	c #5B78BE",
"                                                                ",
"                                                                ",
"          . . . . . + @ # # $ % & * # # + + + + . . @ =         ",
"        . + + + + + + # # - ; > , ' ) # # . + + . # ! ~ {       ",
"      . + + . + + + # # ] ^ / ( _ : < ] # # . . . # [ } | 1     ",
"      . . . . + + # + 2 3 4 5 6 _ 7 / _ 8 9 # . + # ! 0 a b     ",
"      # . + + c . . d e 4 f g 6 ( h i j 5 k l . c # l m n o     ",
"      . . . @ c # p q 5 r s t u v w x y z A ! # @ . B C n D     ",
"      . . + c c + @ E F G @ H : I J # # K L @ @ @ M B N O P     ",
"      . . @ c c c @ # # # + Q R S T # # # # @ c c + B U V W     ",
"      . . @ c X @ c @ . # # Y Z `  .# . @ @ @ @ @ M c ..+.@.    ",
"      . + @ c #.c X c @ $.%.&.*.=.-.;.>.@ @ @ @ @ . ,.'.V ).    ",
"      . . @ c c c @ #.!.~.{.].^./.(._.:.~.<.@ c c . B [.V }.    ",
"      . + @ c c @ @ $.~.|.1.2.3.4.5.6.7.8.%.@ 9.@ . B C V +.    ",
"      . @ c c @ @ @ ~.0.a.b.c.d.e.f.g.h.i.j.~.k.@ l.l m.V n.    ",
"    o.p.@ @ c @ @ ~.c q.r.s.t.u.v.w.x.y.z.A.B.~.<.p.B C.V +.    ",
"      + @ 9.c D.~.E.F.G.H.I.J.v.w.x.x.K.L.M.N.O.>.%.9.N P.Q.    ",
"      @ #.@ ~.%.R.S.T.U.V.W.X.Y.x.K.Z.w.x.`. +.+++%.>.@+#+$+    ",
"    @ ,.%+~.&+*+=+-+;+>+,+'+X.w.x.)+x.)+!+~+{+]+^+/+(+_+Y :+    ",
"    $.~.k.<+[+}+ +|+v.v.v.v.v.1+Y.!+2+x.w.3+3+4+5+6+7+8+9+0+    ",
"      a+b+c+d+e+w.v.v.f+g+g+g+4+4+w.)+w.h+i+j+k+l+L.m+n+o+p+    ",
"      q+r+s+t+w.4+4+u+g+v+w+x+y+z+X.X.A+B+C+D+E+v+1+F+G+H+I+    ",
"      J+K+~+t.f+L+v+M+N+O+P+Q+R+S+T+T+U+M+V+W+X+Y+Z+`+ @.@+@    ",
"      @@#@`.)+$@%@&@*@*@=@-@;@=@>@,@'@)@!@I.I.X.~@{@]@^@/@(@    ",
"      _@x.:@<@[@}@*@=@|@1@&@2@1@3@4@5@6@I.I.7@8@9@0@a@b@c@d@    ",
"      e@H.f@g@h@*@=@,@1@i@i@j@k@M+6@l@m@Y+6@n@3+o@p@q@r@s@t@    ",
"      u@v@w@x@y@z@A@A@A@i@i@i@C+B@C@D@E@F@G@H@I@J@K@L@M@N@O@    ",
"      P@Q@R@S@T@U@V@W@X@Y@Z@Z@Z@`@ #.#+#@###$#%#&#*#=#-#;#      ",
"        >#,#'#)#!#~#{#]#^#/#(#_#:#<#[#}#|#1#1#<#2#3#4#5#        ",
"                                                                ",
"                                                                ",
"                                                                "};
